STARTFONT 2.3
FONT -FontForge-Syncopate-Book-R-Normal--32-320-72-72-P-239-ISO10646-1
SIZE 32 72 72  4
FONTBOUNDINGBOX 60 37 -7 -8
COMMENT "Generated by fontforge, http://fontforge.sourceforge.net"
COMMENT "Copyright (c) 2010 by Brian J. Bonislawsky DBA Astigmatic (AOETI). All rights reserved. Available under the Apache 2.0 licence.http://www.apache.org/licenses/LICENSE-2.0.html"
STARTPROPERTIES 40
FOUNDRY "FontForge"
FAMILY_NAME "Syncopate"
WEIGHT_NAME "Book"
SLANT "R"
SETWIDTH_NAME "Normal"
ADD_STYLE_NAME ""
PIXEL_SIZE 32
POINT_SIZE 320
RESOLUTION_X 72
RESOLUTION_Y 72
SPACING "P"
AVERAGE_WIDTH 239
CHARSET_REGISTRY "ISO10646"
CHARSET_ENCODING "1"
FONTNAME_REGISTRY ""
CHARSET_COLLECTIONS "ISO8859-2 ISO8859-9 ISO8859-4 ISO10646-1"
BITS_PER_PIXEL 4
FONT_NAME "Syncopate-Regular"
FACE_NAME "Syncopate Regular"
COPYRIGHT "Copyright (c) 2010 by Brian J. Bonislawsky DBA Astigmatic (AOETI). All rights reserved. Available under the Apache 2.0 licence.http://www.apache.org/licenses/LICENSE-2.0.html"
FONT_VERSION "001.001"
FONT_ASCENT 26
FONT_DESCENT 6
UNDERLINE_POSITION -3
UNDERLINE_THICKNESS 2
X_HEIGHT 21
CAP_HEIGHT 21
RAW_ASCENT 799
RAW_DESCENT 200
NORM_SPACE 12
RELATIVE_WEIGHT 40
RELATIVE_SETWIDTH 70
SUPERSCRIPT_X 0
SUPERSCRIPT_Y 9
SUPERSCRIPT_SIZE 6
SUBSCRIPT_X 0
SUBSCRIPT_Y 9
SUBSCRIPT_SIZE 6
AVG_LOWERCASE_WIDTH 274
AVG_UPPERCASE_WIDTH 262
ENDPROPERTIES
CHARS 370
STARTCHAR space
ENCODING 32
SWIDTH 375 0
DWIDTH 12 0
BBX 1 1 0 0
BITMAP
00
ENDCHAR
STARTCHAR exclam
ENCODING 33
SWIDTH 274 0
DWIDTH 9 0
BBX 3 22 3 0
BITMAP
CF90
CF90
CF90
CF90
BF80
BF80
AF70
9F60
9F60
8F50
7F40
7F40
6F30
5F20
5F20
4F10
0000
0000
0000
CF90
CF90
CF90
ENDCHAR
STARTCHAR quotedbl
ENCODING 34
SWIDTH 290 0
DWIDTH 9 0
BBX 8 6 1 16
BITMAP
DF501FF2
CF400FF1
BF300EF0
AF300DF0
AF200DE0
9F100CD0
ENDCHAR
STARTCHAR numbersign
ENCODING 35
SWIDTH 701 0
DWIDTH 22 0
BBX 20 22 1 0
BITMAP
00000005F3000005F400
00000009F0000008F100
0000000CC000000BC000
0000001F8000000F9000
0000004F5000003F5000
0000007F1000007F2000
009FFFFFFFFFFFFFFFFC
000000F9000000E90000
000003F6000002F60000
000006F3000005F30000
000009E0000008F00000
00000CC000000BC00000
00000F8000000E900000
00003F5000002F600000
6FFFFFFFFFFFFFFFFF10
0000AD000000AE000000
0000DA000000DB000000
0001F7000001F8000000
0004F4000004F5000000
0007F1000007F2000000
000AD000000AE0000000
000DA000000DB0000000
ENDCHAR
STARTCHAR dollar
ENCODING 36
SWIDTH 767 0
DWIDTH 25 0
BBX 20 26 2 -2
BITMAP
0000000009E000000000
0000000009E000000000
000048BDFFFEECA85200
003CFFFFFFFFFFFFFF40
04FFD84219E012469C40
1EF8000009E000000000
4FB0000009E000000000
6F80000009E000000000
4FC0000009E000000000
0DFA100009E000000000
03EFE83009E000000000
0019FFFEACE000000000
000027CFFFFD95100000
000000015CFFFFE93000
0000000009E26AEFF910
0000000009E00006DFC1
0000000009E000001BF8
0000000009E0000002FD
0000000009E0000000FE
0000000009E0000004FC
4930000009E000004EF6
5FFD853119E1247CFFA0
05BFFFFFFFFFFFFFD600
000169CDEFFEDB840000
0000000009E000000000
0000000009E000000000
ENDCHAR
STARTCHAR percent
ENCODING 37
SWIDTH 992 0
DWIDTH 32 0
BBX 28 22 1 0
BITMAP
0003ADFEB600000000000AF70000
008F92016EC2000000006FA00000
07F7000002EC00000003FD100000
1ED00000007F6000001DE2000000
4F800000003FA00000BF50000000
6F700000001FC00008F800000000
4F800000003FA0005FB000000000
1ED00000007F6002EE1000000000
07F7000002EC001DF40000000000
008F92016EC200AF700000000000
0003ADFEB60007FA000000000000
0000000000004FD10039DFEC7100
000000000001EE2008F93015DD20
00000000000BF5006F8000001DD1
00000000008F8000EE10000006F7
0000000005FB0003F900000001FB
000000002EE10005F800000000FD
00000001DF400003F900000001FB
0000000AF7000000EE10000006F7
0000007FA00000006F8000002DD1
000004FD1000000007FA3016ED20
00002EE2000000000039DFEC7100
ENDCHAR
STARTCHAR ampersand
ENCODING 38
SWIDTH 926 0
DWIDTH 30 0
BBX 26 22 2 0
BITMAP
00000027BDFFDB610000000000
000008FFFFFFFFFE3000000000
00008FF9421014BFE100000000
0001FF400000000CF400000000
0003FB000000000AF300000000
0002FC000000004FB000000000
0000CF20000018FB1000000000
00004FC00017EF800000000000
000008FA28EFA2000000000000
000000BFFF9200000000000000
00002AFFFC1000000000000000
0006EF829FC200000000000000
009FB20008FE4000000000AF40
08FA0000005EF700000000DF10
2FD000000003DFB1000003FA00
7F70000000001AFD40000BF400
7F7000000000006EF8006FA000
5FD1000000000002CFC6FD1000
0DFC20000000000008FFF20000
03EFFB6311001347AEFEFB2000
001AFFFFFFFFFFFFFB408FE600
000026ACEFFEDB85100003CFB2
ENDCHAR
STARTCHAR quotesingle
ENCODING 39
SWIDTH 140 0
DWIDTH 4 0
BBX 3 6 1 16
BITMAP
DF50
CF40
BF30
AF30
AF20
9F10
ENDCHAR
STARTCHAR parenleft
ENCODING 40
SWIDTH 420 0
DWIDTH 13 0
BBX 9 26 2 -2
BITMAP
0000009700
00000AFD10
00009FD200
0006FE2000
001EF40000
009FA00000
01FF200000
07FA000000
0CF4000000
1FF1000000
3FC0000000
5FA0000000
6F90000000
6F90000000
5FA0000000
3FC0000000
1FF1000000
0CF4000000
07FA000000
01FF200000
009F900000
001EF40000
0006FE2000
00009FD200
00000AFD10
0000009700
ENDCHAR
STARTCHAR parenright
ENCODING 41
SWIDTH 420 0
DWIDTH 13 0
BBX 8 26 3 -2
BITMAP
2B300000
7FE30000
07FE2000
009FC000
000CF800
0003FE20
0000AF80
00003FE0
00000DF4
000008F8
000005FA
000003FC
000002FD
000002FD
000003FC
000005FA
000008F8
00000DF4
00003FE0
00009F80
0003FF20
000CF800
009FC000
07FE2000
7FE30000
2B300000
ENDCHAR
STARTCHAR asterisk
ENCODING 42
SWIDTH 503 0
DWIDTH 16 0
BBX 13 12 2 10
BITMAP
00000CE0000000
00000BD0000000
67000BC0006700
CFD40AB03CFD10
05DFABC9FD6000
0005DFFD600000
0006DFFE710000
06DFABC8FE7100
CFC40AC03BFD10
67000BC0006700
00000BD0000000
00000CE0000000
ENDCHAR
STARTCHAR plus
ENCODING 43
SWIDTH 634 0
DWIDTH 20 0
BBX 16 16 2 3
BITMAP
0000000AF0000000
0000000AF0000000
0000000AF0000000
0000000AF0000000
0000000AF0000000
0000000AF0000000
0000000AF0000000
5FFFFFFFFFFFFFF9
5FFFFFFFFFFFFFF9
0000000AF0000000
0000000AF0000000
0000000AF0000000
0000000AF0000000
0000000AF0000000
0000000AF0000000
0000000AF0000000
ENDCHAR
STARTCHAR comma
ENCODING 44
SWIDTH 185 0
DWIDTH 6 0
BBX 5 7 0 -4
BITMAP
01FF70
03FF30
06FE00
09F900
0CF500
0EF100
2FC000
ENDCHAR
STARTCHAR hyphen
ENCODING 45
SWIDTH 540 0
DWIDTH 17 0
BBX 13 2 2 10
BITMAP
7FFFFFFFFFFFB0
7FFFFFFFFFFFB0
ENDCHAR
STARTCHAR period
ENCODING 46
SWIDTH 185 0
DWIDTH 6 0
BBX 4 3 1 0
BITMAP
6FF5
6FF5
6FF5
ENDCHAR
STARTCHAR slash
ENCODING 47
SWIDTH 500 0
DWIDTH 16 0
BBX 14 23 1 -1
BITMAP
00000000000DE1
00000000005F80
0000000000CF20
0000000004F900
000000000BF200
000000003FB000
00000000AF4000
00000002FC0000
00000008F50000
0000001ED00000
0000007F600000
000000EE000000
000006F7000000
00000DE1000000
00005F80000000
0000CF20000000
0004FA00000000
000BF300000000
003FB000000000
009F4000000000
02FC0000000000
08F50000000000
1ED00000000000
ENDCHAR
STARTCHAR zero
ENCODING 48
SWIDTH 833 0
DWIDTH 27 0
BBX 23 22 2 0
BITMAP
00000016ADEFEC9400000000
000018EFFFFFFFFFD5000000
0003DFFB6310248DFFA10000
003EFC30000000005EFC1000
01EF90000000000002DFA000
0AFB000000000000002EF500
2FE20000000000000006FC00
8F900000000000000000DF20
CF3000000000000000009F60
EF1000000000000000006F90
FE0000000000000000004FA0
FE0000000000000000004FA0
EF1000000000000000006F90
CF3000000000000000009F60
8F900000000000000000DF20
2FE20000000000000006FC00
0AFA000000000000002EF500
01EF90000000000002DFA000
003EFC30000000006EFC1000
0003DFFB6310248DFFA10000
000018EFFFFFFFFFD5000000
00000016ADEFEC9400000000
ENDCHAR
STARTCHAR one
ENCODING 49
SWIDTH 339 0
DWIDTH 11 0
BBX 8 22 0 0
BITMAP
147ADFF1
FFFFFFF1
EB852DF1
00000DF1
00000DF1
00000DF1
00000DF1
00000DF1
00000DF1
00000DF1
00000DF1
00000DF1
00000DF1
00000DF1
00000DF1
00000DF1
00000DF1
00000DF1
00000DF1
00000DF1
00000DF1
00000DF1
ENDCHAR
STARTCHAR two
ENCODING 50
SWIDTH 728 0
DWIDTH 23 0
BBX 21 22 1 0
BITMAP
000269CDEFEDB840000000
16CFFFFFFFFFFFFD600000
7FFD8531101247CFFB1000
6920000000000004DFB000
00000000000000002EF500
000000000000000006FB00
000000000000000002FD00
000000000000000002FD00
000000000000000006F900
00000000000000001EF200
0000000000000001CF6000
000000000000002CF70000
00000000000004EF700000
0000000000019FE4000000
00000000004DFB20000000
000000002AFE6000000000
00000017EFA20000000000
000005DFC4000000000000
0004CFE600000000000000
02AFF81000000000000000
7FFFFFFFFFFFFFFFFFFF60
BFFFFFFFFFFFFFFFFFFF60
ENDCHAR
STARTCHAR three
ENCODING 51
SWIDTH 726 0
DWIDTH 23 0
BBX 20 22 1 0
BITMAP
000269CEFFEDB9510000
05BFFFFFFFFFFFFE9100
4FFD8521001247BFFD20
4A30000000000003CFB0
00000000000000001EF1
00000000000000000CF2
00000000000000001EE0
0000000000000003CF50
00000000112468CFD400
0000007FFFFFFDA50000
0000007FFFFFFDA61000
00000000123469DFE800
0000000000000003BFB0
00000000000000000AF8
000000000000000002FD
000000000000000000FE
000000000000000003FC
00000000000000000BF8
9710000000000003CFD1
BFFB7421001247BFFD20
28EFFFFFFFFFFFFE8100
00048BDEFFEDB9510000
ENDCHAR
STARTCHAR four
ENCODING 52
SWIDTH 769 0
DWIDTH 25 0
BBX 24 22 0 0
BITMAP
00000000000000AFFF200000
00000000000009FCDF200000
0000000000009FC1CF200000
000000000009FC10CF200000
00000000009FC100CF200000
0000000009FD1000CF200000
000000009FD10000CF200000
00000008FD100000CF200000
0000008FD2000000CF200000
000008FD20000000CF200000
00008FD200000000CF200000
0008FD2000000000CF200000
008FD20000000000CF200000
07FD200000000000CF200000
1FFFFFFFFFFFFFFFFFFFFFFA
1FFFFFFFFFFFFFFFFFFFFFFA
0000000000000000CF200000
0000000000000000CF200000
0000000000000000CF200000
0000000000000000CF200000
0000000000000000CF200000
0000000000000000CF200000
ENDCHAR
STARTCHAR five
ENCODING 53
SWIDTH 738 0
DWIDTH 24 0
BBX 21 22 1 0
BITMAP
03FFFFFFFFFFFFFFFFE000
03FFFFFFFFFFFFFFFFE000
03FA000000000000000000
03FA000000000000000000
03FA000000000000000000
03FA000000000000000000
03FA000000000000000000
03FA000000000000000000
03FA000000000000000000
03FD9BDEFFEEDB84000000
03FFFFFFFFFFFFFFE71000
03EA74210011358DFFC200
00000000000000004DFC00
000000000000000001DF50
0000000000000000006F90
0000000000000000004FB0
0000000000000000006F90
000000000000000001DF50
1B400000000000004DFB00
1FFE96321011358DFFB100
04AFFFFFFFFFFFFFD60000
000158BDEFEECA73000000
ENDCHAR
STARTCHAR six
ENCODING 54
SWIDTH 772 0
DWIDTH 25 0
BBX 22 22 2 0
BITMAP
000000048BDEFEDB963000
000017DFFFFFFFFFFFF300
0002CFFB6411012469C300
002EFA2000000000000000
01DF700000000000000000
08FA000000000000000000
1EE1000000000000000000
5FB0000000000000000000
9F600016ADEFEDB8400000
BF403AFFFFFFFFFFFD4000
DF4AFFE942101258DFF800
EFEFD6000000000006FF50
DFF8100000000000005FD0
BF50000000000000000CF4
9F600000000000000009F5
4FC00000000000000009F5
0DF4000000000000000DF3
05FE200000000000006FC0
009FE5000000000018FF30
0009FFD742101259EFF500
00004CFFFFFFFFFFFB2000
00000038BDEFEDA7200000
ENDCHAR
STARTCHAR seven
ENCODING 55
SWIDTH 669 0
DWIDTH 21 0
BBX 21 22 0 0
BITMAP
FFFFFFFFFFFFFFFFFFFF70
FFFFFFFFFFFFFFFFFFFF40
000000000000000008FA00
00000000000000002FE200
0000000000000000BF7000
0000000000000006FC0000
000000000000001EF30000
00000000000000AF900000
00000000000004FE100000
0000000000000DF5000000
0000000000008FB0000000
000000000002FF20000000
00000000000BF700000000
00000000006FD000000000
0000000001EF4000000000
000000000AF90000000000
000000004FE10000000000
00000000DF600000000000
00000008FC000000000000
0000002FF3000000000000
000000BF80000000000000
000006FD10000000000000
ENDCHAR
STARTCHAR eight
ENCODING 56
SWIDTH 793 0
DWIDTH 25 0
BBX 23 22 1 0
BITMAP
00000048BDEFFECA62000000
00005DFFFFFFFFFFFF910000
0007FFC7421001359EFD1000
003FE5000000000001BFA000
008F700000000000001FE000
008F600000000000000EF000
004FD10000000000007FA000
0009FD61000000004BFC1000
00007EFEA731259DFE700000
0000017CFFFFFFFD71000000
0000017CFFFFFFFFB6100000
00029FFEA631259DFFE70000
005EFB500000000039FFC200
04FE500000000000002CFD10
0DF40000000000000001CF60
3FC000000000000000006FA0
3FD000000000000000006F90
1FF50000000000000001DF50
08FF810000000000004DFC00
009FFEA6421001358DFFC100
0005CFFFFFFFFFFFFFD60000
0000037ACEEFFECA73000000
ENDCHAR
STARTCHAR nine
ENCODING 57
SWIDTH 776 0
DWIDTH 25 0
BBX 22 22 1 0
BITMAP
0000038BDEFEDB72000000
0003CFFFFFFFFFFFB30000
007FFD842101248DFF7000
05FF6000000000006FF700
1EF400000000000004FF30
5FA0000000000000007FB0
8F70000000000000001EF2
8F700000000000000009F7
6FA00000000000000009F9
1FF300000000000001AFFB
08FE5000000000006EFDFB
00AFFC742101249EFF75FA
0006EFFFFFFFFFFFA206F9
0000059CEFFEDA610008F6
0000000000000000000DF3
0000000000000000004FC0
000000000000000000CF50
00000000000000000AFB00
0000000000000003CFD100
009A7431101247CFFB1000
00AFFFFFFFFFFFFD600000
00147ACEFFEDB740000000
ENDCHAR
STARTCHAR colon
ENCODING 58
SWIDTH 245 0
DWIDTH 8 0
BBX 4 15 2 0
BITMAP
7FF4
7FF4
7FF4
0000
0000
0000
0000
0000
0000
0000
0000
0000
7FF4
7FF4
7FF4
ENDCHAR
STARTCHAR semicolon
ENCODING 59
SWIDTH 234 0
DWIDTH 8 0
BBX 5 19 1 -4
BITMAP
07FF40
07FF40
07FF40
000000
000000
000000
000000
000000
000000
000000
000000
000000
06FF20
09FC00
0CF800
0EF400
2FE000
5FB000
8F7000
ENDCHAR
STARTCHAR less
ENCODING 60
SWIDTH 634 0
DWIDTH 20 0
BBX 16 15 2 3
BITMAP
0000000000000178
0000000000028EFA
00000000039FFD71
00000004BFFC5000
000005CFE9300000
0006DFD710000000
17EFB50000000000
8FE5000000000000
17EFB50000000000
0006DFD710000000
000005CFE9300000
00000004BFFB5000
0000000003AFFD71
0000000000028EFA
0000000000000178
ENDCHAR
STARTCHAR equal
ENCODING 61
SWIDTH 634 0
DWIDTH 20 0
BBX 16 8 2 7
BITMAP
5FFFFFFFFFFFFFF9
5FFFFFFFFFFFFFF9
0000000000000000
0000000000000000
0000000000000000
0000000000000000
5FFFFFFFFFFFFFF9
5FFFFFFFFFFFFFF9
ENDCHAR
STARTCHAR greater
ENCODING 62
SWIDTH 634 0
DWIDTH 20 0
BBX 16 15 2 3
BITMAP
5920000000000000
5FFA300000000000
05CFFC5000000000
0003AFFD60000000
0000017DFE710000
000000005BFE8200
000000000039EFA3
0000000000002DFD
000000000039EFA3
000000005BFE8200
0000017DFE710000
00039FFD60000000
05CFFC5000000000
5FFA400000000000
5920000000000000
ENDCHAR
STARTCHAR question
ENCODING 63
SWIDTH 568 0
DWIDTH 18 0
BBX 15 22 1 0
BITMAP
0005ADEFEB720000
05DFFFFFFFFF8000
1FFA521125BFFA00
1A1000000005FF50
0000000000007FB0
0000000000002FD0
0000000000001FE0
0000000000005FB0
000000000001DF50
00000000004DF900
000000004AFF6000
0000159DFFA20000
0001FFFD82000000
0001FE3000000000
0001FE0000000000
0001FE0000000000
0000000000000000
0000000000000000
0000000000000000
0001FF5000000000
0001FF5000000000
0001FF5000000000
ENDCHAR
STARTCHAR at
ENCODING 64
SWIDTH 1016 0
DWIDTH 33 0
BBX 29 23 2 0
BITMAP
000000000159CEFFEDA74000000000
00000003AFFFFFFFFFFFFD71000000
000001AFFFA641101258DFFD500000
00004EFE71000000000003BFF60000
0004FFA10000000000000007FF5000
003EF70000000000000000007FE100
00CF80000004ADFEC76F80000CF600
06FC000002BF83014CFF600006FC00
0DF400001DE3000000CF300001FE00
3FD000009F60000000DF100000FF10
6FA00001FE00000000FD000000EF00
8F800004FB00000003FB000001FD00
8F800006FA00000005F9000005F800
6F900004FB00000007F600000CE200
5FC00000EF3000003EF500008F6000
1EF200004ED51028E8EC324BE60000
0AFB0000029DFEC9203BEED8200000
02EF70000000000000000000000000
006FF7000000000000000000000000
0007FFC40000000000000000000000
00005DFFD95311012347AD30000000
0000017DFFFFFFFFFFFFFE60000000
0000000047ADEFFEDCA74000000000
ENDCHAR
STARTCHAR A
ENCODING 65
SWIDTH 812 0
DWIDTH 26 0
BBX 26 22 0 0
BITMAP
000000000006FF600000000000
00000000000DFFE10000000000
00000000006FBAF70000000000
0000000000DF32FE1000000000
0000000006FA009F7000000000
000000001EF2002FE100000000
000000007F900008F700000000
00000001EF200001EE10000000
00000007F90000008F80000000
0000001EE10000001EE1000000
0000007F8000000007F8000000
000001EE1000000001EE100000
000008F700000000006F800000
00001EE100000000000DE10000
00008FFFFFFFFFFFFFFFF90000
0001EFFFFFFFFFFFFFFFFF2000
0008F7000000000000007F9000
001EE1000000000000001EF200
009F800000000000000007F900
02FE100000000000000001EF20
09F80000000000000000007FA0
2FE10000000000000000001EF2
ENDCHAR
STARTCHAR B
ENCODING 66
SWIDTH 836 0
DWIDTH 27 0
BBX 22 22 3 0
BITMAP
6FFFFFFFFFFFFFEB830000
6FFFFFFFFFFFFFFFFF9000
6F800000000001259EF900
6F8000000000000003EF10
6F80000000000000009F40
6F80000000000000008F50
6F8000000000000000AF30
6F8000000000000003FD00
6F800000000001259FE400
6FFFFFFFFFFFFFFFD81000
6FFFFFFFFFFFFFFFFD9200
6F800000000001137CFF50
6F80000000000000006FF2
6F80000000000000000AF8
6F800000000000000004FC
6F800000000000000003FD
6F800000000000000003FD
6F800000000000000007FA
6F80000000000000003EF5
6F8000000000001259FFB0
6FFFFFFFFFFFFFFFFFF900
6FFFFFFFFFFFFFEDB82000
ENDCHAR
STARTCHAR C
ENCODING 67
SWIDTH 869 0
DWIDTH 28 0
BBX 24 22 2 0
BITMAP
0000000158BDEFEEDA851000
0000029EFFFFFFFFFFFFFB61
00008FFFB85211012469DFF9
001BFF820000000000000388
00BFD3000000000000000000
06FD20000000000000000000
0EF400000000000000000000
5FC000000000000000000000
9F7000000000000000000000
CF4000000000000000000000
DF3000000000000000000000
DF2000000000000000000000
CF4000000000000000000000
9F7000000000000000000000
5FC000000000000000000000
0EF400000000000000000000
06FD20000000000000000000
00BFD2000000000000000000
001BFF820000000000000288
00008FFFB74210012469DFF9
0000029FFFFFFFFFFFFFFC61
0000000159BDEFFEDB851000
ENDCHAR
STARTCHAR D
ENCODING 68
SWIDTH 910 0
DWIDTH 29 0
BBX 24 22 3 0
BITMAP
6FFFFFFFFFFFEECA72000000
6FFFFFFFFFFFFFFFFFC40000
6F80000000001236AEFF9000
6F80000000000000007EFA00
6F800000000000000003EF60
6F8000000000000000005FE1
6F8000000000000000000CF6
6F80000000000000000007FA
6F80000000000000000003FD
6F80000000000000000001FF
6F80000000000000000000FF
6F80000000000000000000FF
6F80000000000000000001FE
6F80000000000000000003FD
6F80000000000000000007FA
6F8000000000000000000CF5
6F8000000000000000006FE1
6F800000000000000004EF70
6F80000000000000007FFA00
6F800000000011359EFFA000
6FFFFFFFFFFFFFFFFFC50000
6FFFFFFFFFFFEDCA73000000
ENDCHAR
STARTCHAR E
ENCODING 69
SWIDTH 754 0
DWIDTH 24 0
BBX 19 22 3 0
BITMAP
6FFFFFFFFFFFFFFFFF80
6FFFFFFFFFFFFFFFFF80
6FB00000000000000000
6FB00000000000000000
6FB00000000000000000
6FB00000000000000000
6FB00000000000000000
6FB00000000000000000
6FB00000000000000000
6FFFFFFFFFFFFFFFFB00
6FFFFFFFFFFFFFFFFB00
6FB00000000000000000
6FB00000000000000000
6FB00000000000000000
6FB00000000000000000
6FB00000000000000000
6FB00000000000000000
6FB00000000000000000
6FB00000000000000000
6FB00000000000000000
6FFFFFFFFFFFFFFFFFB0
6FFFFFFFFFFFFFFFFFB0
ENDCHAR
STARTCHAR F
ENCODING 70
SWIDTH 687 0
DWIDTH 22 0
BBX 18 22 3 0
BITMAP
6FFFFFFFFFFFFFFFF9
6FFFFFFFFFFFFFFFF9
6F8000000000000000
6F8000000000000000
6F8000000000000000
6F8000000000000000
6F8000000000000000
6F8000000000000000
6F8000000000000000
6FFFFFFFFFFFFFFFD0
6FFFFFFFFFFFFFFFD0
6F8000000000000000
6F8000000000000000
6F8000000000000000
6F8000000000000000
6F8000000000000000
6F8000000000000000
6F8000000000000000
6F8000000000000000
6F8000000000000000
6F8000000000000000
6F8000000000000000
ENDCHAR
STARTCHAR G
ENCODING 71
SWIDTH 910 0
DWIDTH 29 0
BBX 25 22 2 0
BITMAP
0000000047ACEFFEDC96200000
0000028EFFFFFFFFFFFFFD8300
00007EFFD85321012358CFFF00
000AFFA3000000000000016C00
00AFE400000000000000000000
06FE3000000000000000000000
0EF50000000000000000000000
5FC00000000000000000000000
9F700000000000000000000000
CF400000000000000000000000
DF300000000000000000000000
DF300000000003FFFFFFFFFF80
CF400000000003FFFFFFFFFF80
9F800000000000000000007F80
5FD00000000000000000007F80
1EF60000000000000000007F80
06FE3000000000000000007F80
00AFE500000000000000007F80
000AFFB4000000000000007F80
00007EFFD963210012468BEF80
0000029EFFFFFFFFFFFFFFEA30
0000000047ADEEFEEDB9630000
ENDCHAR
STARTCHAR H
ENCODING 72
SWIDTH 949 0
DWIDTH 30 0
BBX 24 22 3 0
BITMAP
6F80000000000000000003FB
6F80000000000000000003FB
6F80000000000000000003FB
6F80000000000000000003FB
6F80000000000000000003FB
6F80000000000000000003FB
6F80000000000000000003FB
6F80000000000000000003FB
6F80000000000000000003FB
6FFFFFFFFFFFFFFFFFFFFFFB
6FFFFFFFFFFFFFFFFFFFFFFB
6F80000000000000000003FB
6F80000000000000000003FB
6F80000000000000000003FB
6F80000000000000000003FB
6F80000000000000000003FB
6F80000000000000000003FB
6F80000000000000000003FB
6F80000000000000000003FB
6F80000000000000000003FB
6F80000000000000000003FB
6F80000000000000000003FB
ENDCHAR
STARTCHAR I
ENCODING 73
SWIDTH 287 0
DWIDTH 9 0
BBX 3 22 3 0
BITMAP
6F80
6F80
6F80
6F80
6F80
6F80
6F80
6F80
6F80
6F80
6F80
6F80
6F80
6F80
6F80
6F80
6F80
6F80
6F80
6F80
6F80
6F80
ENDCHAR
STARTCHAR J
ENCODING 74
SWIDTH 590 0
DWIDTH 19 0
BBX 16 22 0 0
BITMAP
00000000000008F6
00000000000008F6
00000000000008F6
00000000000008F6
00000000000008F6
00000000000008F6
00000000000008F6
00000000000008F6
00000000000008F6
00000000000008F6
00000000000008F6
00000000000008F6
00000000000008F6
00000000000008F6
00000000000009F6
0000000000000AF5
0000000000000DF3
0000000000005FE0
000000000004EF60
D964210014AFFA00
FFFFFFFFFFFF8000
269BDEFEDB720000
ENDCHAR
STARTCHAR K
ENCODING 75
SWIDTH 806 0
DWIDTH 26 0
BBX 22 22 3 0
BITMAP
6F9000000000000005DF80
6F90000000000001AFD300
6F9000000000005EF80000
6F90000000002BFD300000
6F9000000006EF80000000
6F90000002BFD300000000
6F9000007FF81000000000
6F90003CFD400000000000
6F9008FF91000000000000
6F94DFD400000000000000
6FDFFD1000000000000000
6F96EFC200000000000000
6F902CFE60000000000000
6F90007FFB200000000000
6F900003CFE60000000000
6F90000008FFA100000000
6F900000003DFE50000000
6F90000000019FF9100000
6F900000000004DFD40000
6F9000000000001AFF9100
6F900000000000005EFD30
6F9000000000000001BFF8
ENDCHAR
STARTCHAR L
ENCODING 76
SWIDTH 701 0
DWIDTH 22 0
BBX 19 22 3 0
BITMAP
6F800000000000000000
6F800000000000000000
6F800000000000000000
6F800000000000000000
6F800000000000000000
6F800000000000000000
6F800000000000000000
6F800000000000000000
6F800000000000000000
6F800000000000000000
6F800000000000000000
6F800000000000000000
6F800000000000000000
6F800000000000000000
6F800000000000000000
6F800000000000000000
6F800000000000000000
6F800000000000000000
6F800000000000000000
6F800000000000000000
6FFFFFFFFFFFFFFFFF40
6FFFFFFFFFFFFFFFFF40
ENDCHAR
STARTCHAR M
ENCODING 77
SWIDTH 1139 0
DWIDTH 36 0
BBX 30 22 3 0
BITMAP
6FE1000000000000000000000008FC
6FFA00000000000000000000003FFC
6FFF4000000000000000000000CFFC
6FCFD100000000000000000007FCFC
6F89F80000000000000000002EE3FC
6F81DF300000000000000000AF71FC
6F805FC00000000000000005FC01FC
6F800BF6000000000000001DF301FC
6F8002EE200000000000008F9001FC
6F80007FA0000000000003FD1001FC
6F80000CF500000000000CF50001FC
6F800003FD10000000006FA00001FC
6F8000009F9000000001EE200001FC
6F8000001DF30000000AF7000001FC
6F80000005FC0000004FC0000001FC
6F80000000AF700001DF30000001FC
6F800000002EE20008F800000001FC
6F8000000007FB003FD100000001FC
6F8000000000CF50CF5000000001FC
6F80000000003FE7FA0000000001FC
6F800000000009FFE20000000001FC
6F800000000001DF600000000001FC
ENDCHAR
STARTCHAR N
ENCODING 78
SWIDTH 936 0
DWIDTH 30 0
BBX 24 22 3 0
BITMAP
6FF4000000000000000009F5
6FFE400000000000000009F5
6FEFE30000000000000009F5
6F88FE3000000000000009F5
6F809FE200000000000009F5
6F8009FD20000000000009F5
6F8000AFD2000000000009F5
6F80000AFD100000000009F5
6F800000BFC10000000009F5
6F8000001BFC1000000009F5
6F80000001CFC100000009F5
6F800000001CFB00000009F5
6F8000000001CFB0000009F5
6F80000000001DFA000009F5
6F800000000002DF900009F5
6F8000000000002DF90009F5
6F80000000000002EF8009F5
6F800000000000003EF809F5
6F8000000000000003EF79F5
6F80000000000000003EFDF5
6F800000000000000004FFF5
6F8000000000000000004FF5
ENDCHAR
STARTCHAR O
ENCODING 79
SWIDTH 983 0
DWIDTH 31 0
BBX 28 22 2 0
BITMAP
0000000159BDEFEDCA7300000000
000003AFFFFFFFFFFFFFD7000000
00019FFFB7421011358DFFD40000
001CFE710000000000003BFF5000
00CFD200000000000000007FF400
07FD10000000000000000007FD10
1EF400000000000000000000CF80
5FC0000000000000000000004FD0
9F70000000000000000000000EF2
CF40000000000000000000000CF4
DF30000000000000000000000AF5
DF30000000000000000000000AF5
CF40000000000000000000000CF4
AF70000000000000000000000EF2
6FB0000000000000000000004FD0
1EF400000000000000000000CF80
07FD10000000000000000007FD10
00CFC200000000000000007FF400
001CFE710000000000003BFF6000
00019FFFA7421011358DFFD40000
000003AFFFFFFFFFFFFFD7100000
0000000169BDEFEECA7300000000
ENDCHAR
STARTCHAR P
ENCODING 80
SWIDTH 818 0
DWIDTH 26 0
BBX 22 22 3 0
BITMAP
6FFFFFFFFFFFFEDB830000
6FFFFFFFFFFFFFFFFFB200
6F800000000011358EFE20
6F8000000000000001AFB0
6F80000000000000001EF2
6F80000000000000000AF6
6F800000000000000008F8
6F800000000000000008F8
6F80000000000000000AF6
6F80000000000000001EF2
6F8000000000000001BFB0
6F800000000000147DFE20
6FFFFFFFFFFFFFFFFFB200
6FFFFFFFFFFFFEDB830000
6F80000000000000000000
6F80000000000000000000
6F80000000000000000000
6F80000000000000000000
6F80000000000000000000
6F80000000000000000000
6F80000000000000000000
6F80000000000000000000
ENDCHAR
STARTCHAR Q
ENCODING 81
SWIDTH 983 0
DWIDTH 31 0
BBX 30 22 2 0
BITMAP
0000000159BDEFEDCA730000000000
000003AFFFFFFFFFFFFFD700000000
00019FFFB7421011358DFFD4000000
001CFE710000000000003BFF500000
00CFD200000000000000007FF40000
07FD10000000000000000007FD1000
1EF400000000000000000000CF8000
5FC0000000000000000000004FD000
9F70000000000000000000000EF200
CF40000000000000000000000CF400
DF30000000000000000000000AF500
DF30000000000000000000000AF500
CF40000000000000000000000CF400
AF70000000000000000000000EF200
6FB0000000000000000000004FC000
1EF400000000000000000000BF7000
07FD100000000000C7200006FD1000
00CFC20000000005FFFB617FF50000
001CFE710000000148CFFFFF600000
00019FFFA7421001258CFFFFDA7420
000003AFFFFFFFFFFFFFD759EFFFF2
0000000169BDEFFECA730000037BA0
ENDCHAR
STARTCHAR R
ENCODING 82
SWIDTH 833 0
DWIDTH 27 0
BBX 23 22 3 0
BITMAP
6FFFFFFFFFFFEDB940000000
6FFFFFFFFFFFFFFFFC300000
6F80000000012358DFF40000
6F8000000000000009FD0000
6F8000000000000000DF4000
6F80000000000000009F6000
6F80000000000000008F7000
6F80000000000000009F7000
6F8000000000000000DF4000
6F8000000000000008FD0000
6F80000000011248DFF50000
6FFFFFFFFFFFFFFFFD500000
6FFFFFFFFFFFFFFB50000000
6F800000000007FC00000000
6F800000000000AF90000000
6F8000000000001DF6000000
6F80000000000003FF300000
6F800000000000006FD10000
6F8000000000000009FB0000
6F8000000000000001CF8000
6F80000000000000002EF500
6F800000000000000005FE20
ENDCHAR
STARTCHAR S
ENCODING 83
SWIDTH 787 0
DWIDTH 25 0
BBX 21 22 2 0
BITMAP
000027ACEEFEDA73000000
002BFFFFFFFFFFFFD83000
04FFE95311001369EFE000
1EF910000000000005B000
4FD0000000000000000000
6FA0000000000000000000
3FD0000000000000000000
0BFB200000000000000000
01BFFA4100000000000000
0006DFFFB7300000000000
0000038CFFFEB720000000
00000000159CFFFC710000
000000000000159EFE6000
00000000000000006EF900
000000000000000002DF50
0000000000000000006FA0
0000000000000000005FB0
000000000000000000AF80
4A3000000000000019FF30
4FFD964210011369EFF600
05AFFFFFFFFFFFFFFB3000
000158BDEFFEECA6200000
ENDCHAR
STARTCHAR T
ENCODING 84
SWIDTH 708 0
DWIDTH 23 0
BBX 23 22 0 0
BITMAP
6FFFFFFFFFFFFFFFFFFFFF10
6FFFFFFFFFFFFFFFFFFFFF10
00000000009F500000000000
00000000009F500000000000
00000000009F500000000000
00000000009F500000000000
00000000009F500000000000
00000000009F500000000000
00000000009F500000000000
00000000009F500000000000
00000000009F500000000000
00000000009F500000000000
00000000009F500000000000
00000000009F500000000000
00000000009F500000000000
00000000009F500000000000
00000000009F500000000000
00000000009F500000000000
00000000009F500000000000
00000000009F500000000000
00000000009F500000000000
00000000009F500000000000
ENDCHAR
STARTCHAR U
ENCODING 85
SWIDTH 891 0
DWIDTH 29 0
BBX 23 22 3 0
BITMAP
9F600000000000000000DF10
9F600000000000000000DF10
9F600000000000000000DF10
9F600000000000000000DF10
9F600000000000000000DF10
9F600000000000000000DF10
9F600000000000000000DF10
9F600000000000000000DF10
9F600000000000000000DF10
9F600000000000000000DF10
9F600000000000000000DF10
9F600000000000000000DF10
9F600000000000000000DF10
9F600000000000000000DF10
9F600000000000000000DF10
8F700000000000000000EF00
5FC00000000000000005FD00
1EF8000000000000002EF700
06FFA2000000000005EFD100
007FFFB631101258DFFD2000
0003BFFFFFFFFFFFFE810000
0000027ACEEFEDB950000000
ENDCHAR
STARTCHAR V
ENCODING 86
SWIDTH 817 0
DWIDTH 26 0
BBX 25 22 1 0
BITMAP
DF40000000000000000002FF10
6FC0000000000000000009F900
0DF400000000000000002FF200
07FB00000000000000008F9000
01EF3000000000000001EF2000
007FB000000000000008F90000
001EF30000000000001EF20000
0007FA0000000000008F900000
0001EF300000000001EF200000
00008FA00000000007FA000000
00001EF2000000001EF2000000
000008FA000000007FA0000000
000001EF20000000EF30000000
0000008F90000006FA00000000
0000002FF200000DF300000000
00000009F900006FA000000000
00000002FF1000DF3000000000
000000009F8006FB0000000000
000000002FE10DF30000000000
000000000AF85FB00000000000
0000000002FEDF400000000000
0000000000AFFB000000000000
ENDCHAR
STARTCHAR W
ENCODING 87
SWIDTH 1266 0
DWIDTH 41 0
BBX 39 22 1 0
BITMAP
9F8000000000000004FFB000000000000001FF20
3FE000000000000009FFF200000000000006FB00
0CF50000000000001EFAF70000000000000CF500
07FB0000000000006FB3FD0000000000003FE000
01FF200000000000BF50DF4000000000009F8000
00AF700000000002FE007F900000000001EF2000
004FD00000000007F9001FE10000000006FC0000
000DF4000000000DF3000BF6000000000BF60000
0007FA000000004FC00005FB000000002FE10000
0001FF100000009F700000EF200000008F900000
0000AF70000001EF1000009F70000000EF300000
00004FC0000005FA0000003FD0000005FC000000
00000DF300000BF50000000CF400000BF6000000
000008F900002FE000000007F900002FE1000000
000002FE10007F8000000001FE10007F90000000
000000BF6000DF3000000000AF6000DF40000000
0000005FC004FC00000000004FB004FD00000000
0000000EF209F600000000000EF20AF700000000
00000008F81EF1000000000008F71FF100000000
00000002FE6FA0000000000002FD6FA000000000
00000000BFEF40000000000000CFEF4000000000
000000006FFE000000000000006FFD0000000000
ENDCHAR
STARTCHAR X
ENCODING 88
SWIDTH 821 0
DWIDTH 26 0
BBX 24 22 1 0
BITMAP
09FC10000000000000008FD1
00AFC100000000000007FD20
000BFB0000000000006FE200
0000BFA00000000005FE3000
00001CF9000000004FE40000
000001DF80000003EF400000
0000002DF600003EF5000000
00000002EF5002EF60000000
000000003EF41DF700000000
0000000004EEDF8000000000
00000000005FFA0000000000
0000000001BFFE3000000000
000000000BFB6FE200000000
00000000AFB107FD20000000
00000009FC10008FD1000000
0000008FD1000009FC100000
000007FD20000000AFB00000
00006FE2000000000BFA0000
0005FE300000000001CF9000
004FF40000000000001CF800
03EF5000000000000001DF70
3EF600000000000000002DF6
ENDCHAR
STARTCHAR Y
ENCODING 89
SWIDTH 763 0
DWIDTH 24 0
BBX 23 22 1 0
BITMAP
7FC10000000000000007FC10
0AFA000000000000004FE200
01CF70000000000002EF4000
002EF400000000000CF70000
0004FE20000000009FA00000
00007FC000000006FD100000
00000AF90000003FE2000000
000001DF600001DF50000000
0000002EF3000BF800000000
00000005FD108FB000000000
000000008FB5FD1000000000
000000000BFFE30000000000
0000000001DF600000000000
0000000000CF300000000000
0000000000CF300000000000
0000000000CF300000000000
0000000000CF300000000000
0000000000CF300000000000
0000000000CF300000000000
0000000000CF300000000000
0000000000CF300000000000
0000000000CF300000000000
ENDCHAR
STARTCHAR Z
ENCODING 90
SWIDTH 728 0
DWIDTH 23 0
BBX 20 22 2 0
BITMAP
4FFFFFFFFFFFFFFFFFD0
4FFFFFFFFFFFFFFFFF90
0000000000000009FB00
000000000000006FC100
00000000000004FE2000
0000000000003EF30000
000000000001DF500000
00000000001CF7000000
0000000000AF90000000
0000000008FB00000000
000000006FD100000000
00000004FE2000000000
0000002EF40000000000
000001DF600000000000
00000CF8000000000000
0000AFA0000000000000
0008FC10000000000000
005FD100000000000000
04FE3000000000000000
2EF40000000000000000
AFFFFFFFFFFFFFFFFFF3
BFFFFFFFFFFFFFFFFFF3
ENDCHAR
STARTCHAR bracketleft
ENCODING 91
SWIDTH 409 0
DWIDTH 13 0
BBX 8 25 4 -2
BITMAP
FFFFFFF7
FFFFFFF7
FF000000
FF000000
FF000000
FF000000
FF000000
FF000000
FF000000
FF000000
FF000000
FF000000
FF000000
FF000000
FF000000
FF000000
FF000000
FF000000
FF000000
FF000000
FF000000
FF000000
FF000000
FFFFFFF7
FFFFFFF7
ENDCHAR
STARTCHAR backslash
ENCODING 92
SWIDTH 500 0
DWIDTH 16 0
BBX 14 23 1 -1
BITMAP
1ED00000000000
08F50000000000
02FC0000000000
009F4000000000
003FB000000000
000BF300000000
0004FA00000000
0000CF20000000
00005F80000000
00000DE1000000
000006F7000000
000000EE000000
0000007F600000
0000001ED00000
00000008F50000
00000002FC0000
00000000AF4000
000000003FB000
000000000BF200
0000000004F900
0000000000CF20
00000000005F80
00000000000DE1
ENDCHAR
STARTCHAR bracketright
ENCODING 93
SWIDTH 409 0
DWIDTH 13 0
BBX 9 25 1 -2
BITMAP
6FFFFFFF10
6FFFFFFF10
000000DF10
000000DF10
000000DF10
000000DF10
000000DF10
000000DF10
000000DF10
000000DF10
000000DF10
000000DF10
000000DF10
000000DF10
000000DF10
000000DF10
000000DF10
000000DF10
000000DF10
000000DF10
000000DF10
000000DF10
000000DF10
6FFFFFFF10
6FFFFFFF10
ENDCHAR
STARTCHAR asciicircum
ENCODING 94
SWIDTH 459 0
DWIDTH 15 0
BBX 13 9 1 13
BITMAP
00001EFB000000
00009FDF500000
0003FC2ED00000
000CF307F80000
006FA000DF2000
01EE20005FA000
08F700000BF400
3FD0000003FD00
BF500000009F70
ENDCHAR
STARTCHAR underscore
ENCODING 95
SWIDTH 500 0
DWIDTH 16 0
BBX 16 2 0 -4
BITMAP
FFFFFFFFFFFFFFFF
FFFFFFFFFFFFFFFF
ENDCHAR
STARTCHAR grave
ENCODING 96
SWIDTH 527 0
DWIDTH 17 0
BBX 8 5 3 18
BITMAP
79100000
DFE71000
28EFE600
0017EFD3
000006C1
ENDCHAR
STARTCHAR a
ENCODING 97
SWIDTH 888 0
DWIDTH 28 0
BBX 23 22 2 0
BITMAP
00000158BDEFFEDA84000000
0027CFFFFFFFFFFFFFD60000
00FFFC86310011358CFFB100
00C7200000000000003BFB00
00000000000000000000AF50
000000000000000000002FB0
000000000000000000000FD0
000000000000000000000EF0
0000000000013579ABCDEFF0
000000158BEFFFFFFFFFFFF0
00006BFFFFFDB98654211EF0
005DFFEA7410000000000EF0
07FFB5000000000000000EF0
5FE500000000000000000EF0
CF6000000000000000000EF0
FF0000000000000000000EF0
FF1000000000000000000EF0
DF7000000000000000018FF0
7FF6000000000000049EFFF0
0BFFD7421012358BEFFD6EF0
008FFFFFFFFFFFFFE9400EF0
00016ADEFFEDB96300000EF0
ENDCHAR
STARTCHAR b
ENCODING 98
SWIDTH 836 0
DWIDTH 27 0
BBX 22 22 3 0
BITMAP
6FFFFFFFFFFFFFEB830000
6FFFFFFFFFFFFFFFFF9000
6F800000000001259EF900
6F8000000000000003EF10
6F80000000000000009F40
6F80000000000000008F50
6F8000000000000000AF30
6F8000000000000003FD00
6F800000000001259FE400
6FFFFFFFFFFFFFFFD81000
6FFFFFFFFFFFFFFFFD9200
6F800000000001137CFF50
6F80000000000000006FF2
6F80000000000000000AF8
6F800000000000000004FC
6F800000000000000003FD
6F800000000000000003FD
6F800000000000000007FA
6F80000000000000003EF5
6F8000000000001259FFB0
6FFFFFFFFFFFFFFFFFF900
6FFFFFFFFFFFFFEDB82000
ENDCHAR
STARTCHAR c
ENCODING 99
SWIDTH 869 0
DWIDTH 28 0
BBX 24 22 2 0
BITMAP
0000000158BDEFEEDA851000
0000029EFFFFFFFFFFFFFB61
00008FFFB85211012469DFF9
001BFF820000000000000388
00BFD3000000000000000000
06FD20000000000000000000
0EF400000000000000000000
5FC000000000000000000000
9F7000000000000000000000
CF4000000000000000000000
DF3000000000000000000000
DF2000000000000000000000
CF4000000000000000000000
9F7000000000000000000000
5FC000000000000000000000
0EF400000000000000000000
06FD20000000000000000000
00BFD2000000000000000000
001BFF820000000000000288
00008FFFB74210012469DFF9
0000029FFFFFFFFFFFFFFC61
0000000159BDEFFEDB851000
ENDCHAR
STARTCHAR d
ENCODING 100
SWIDTH 910 0
DWIDTH 29 0
BBX 24 22 3 0
BITMAP
6FFFFFFFFFFFEECA72000000
6FFFFFFFFFFFFFFFFFC40000
6F80000000001236AEFF9000
6F80000000000000007EFA00
6F800000000000000003EF60
6F8000000000000000005FE1
6F8000000000000000000CF6
6F80000000000000000007FA
6F80000000000000000003FD
6F80000000000000000001FF
6F80000000000000000000FF
6F80000000000000000000FF
6F80000000000000000001FE
6F80000000000000000003FD
6F80000000000000000007FA
6F8000000000000000000CF5
6F8000000000000000006FE1
6F800000000000000004EF70
6F80000000000000007FFA00
6F800000000011359EFFA000
6FFFFFFFFFFFFFFFFFC50000
6FFFFFFFFFFFEDCA73000000
ENDCHAR
STARTCHAR e
ENCODING 101
SWIDTH 910 0
DWIDTH 29 0
BBX 25 22 2 0
BITMAP
000000026ACEFEDC8500000000
000003AFFFFFFFFFFFE7100000
00008FFE963101237BFFD30000
000BFF8100000000003BFE3000
00AFE3000000000000007FD100
05FE200000000000000008F900
0DF6000000000000000000DF20
4FD00000000000000000007F60
9F700000000000000000002FA0
BF300000000000000000000FD0
DFFFFFFFFFFFFFFFFFFFFFFFE0
DFFFFFFFFFFFFFFFFFFFFFFFF0
BF300000000000000000000000
9F600000000000000000000000
4FC00000000000000000000000
0EF40000000000000000000000
05FD1000000000000000000000
00AFD300000000000000000000
000BFF92000000000000039300
00007FFFC85211012469EFF400
0000029EFFFFFFFFFFFFFA4000
0000000158BDEFFEDB84100000
ENDCHAR
STARTCHAR f
ENCODING 102
SWIDTH 817 0
DWIDTH 26 0
BBX 22 22 3 0
BITMAP
0000038ADEFFFFFFFFFFF3
0005DFFFFFFFFFFFFFFFF3
009FFE9531100000000000
06FF810000000000000000
0EF7000000000000000000
3FE0000000000000000000
5FA0000000000000000000
6F90000000000000000000
6F80000000000000000000
6F80000000000000000000
6FFFFFFFFFFFFFFFFFFFE0
6FFFFFFFFFFFFFFFFFFFE0
6F80000000000000000000
6F80000000000000000000
6F80000000000000000000
6F80000000000000000000
6F80000000000000000000
6F80000000000000000000
6F80000000000000000000
6F80000000000000000000
6F80000000000000000000
6F80000000000000000000
ENDCHAR
STARTCHAR g
ENCODING 103
SWIDTH 910 0
DWIDTH 29 0
BBX 25 22 2 0
BITMAP
0000000047ACEFFEDC96200000
0000028EFFFFFFFFFFFFFD8300
00007EFFD85321012358CFFF00
000AFFA3000000000000016C00
00AFE400000000000000000000
06FE3000000000000000000000
0EF50000000000000000000000
5FC00000000000000000000000
9F700000000000000000000000
CF400000000000000000000000
DF300000000000000000000000
DF300000000003FFFFFFFFFF80
CF400000000003FFFFFFFFFF80
9F800000000000000000007F80
5FD00000000000000000007F80
1EF60000000000000000007F80
06FE3000000000000000007F80
00AFE500000000000000007F80
000AFFB4000000000000007F80
00007EFFD963210012468BEF80
0000029EFFFFFFFFFFFFFFEA30
0000000047ADEEFEEDB9630000
ENDCHAR
STARTCHAR h
ENCODING 104
SWIDTH 949 0
DWIDTH 30 0
BBX 24 22 3 0
BITMAP
6F80000000000000000003FB
6F80000000000000000003FB
6F80000000000000000003FB
6F80000000000000000003FB
6F80000000000000000003FB
6F80000000000000000003FB
6F80000000000000000003FB
6F80000000000000000003FB
6F80000000000000000003FB
6FFFFFFFFFFFFFFFFFFFFFFB
6FFFFFFFFFFFFFFFFFFFFFFB
6F80000000000000000003FB
6F80000000000000000003FB
6F80000000000000000003FB
6F80000000000000000003FB
6F80000000000000000003FB
6F80000000000000000003FB
6F80000000000000000003FB
6F80000000000000000003FB
6F80000000000000000003FB
6F80000000000000000003FB
6F80000000000000000003FB
ENDCHAR
STARTCHAR i
ENCODING 105
SWIDTH 287 0
DWIDTH 9 0
BBX 3 22 3 0
BITMAP
6F80
6F80
6F80
6F80
6F80
6F80
6F80
6F80
6F80
6F80
6F80
6F80
6F80
6F80
6F80
6F80
6F80
6F80
6F80
6F80
6F80
6F80
ENDCHAR
STARTCHAR j
ENCODING 106
SWIDTH 590 0
DWIDTH 19 0
BBX 16 22 0 0
BITMAP
00000000000008F6
00000000000008F6
00000000000008F6
00000000000008F6
00000000000008F6
00000000000008F6
00000000000008F6
00000000000008F6
00000000000008F6
00000000000008F6
00000000000008F6
00000000000008F6
00000000000008F6
00000000000008F6
00000000000009F6
0000000000000AF5
0000000000000DF3
0000000000005FE0
000000000004EF60
D964210014AFFA00
FFFFFFFFFFFF8000
269BDEFEDB720000
ENDCHAR
STARTCHAR k
ENCODING 107
SWIDTH 867 0
DWIDTH 28 0
BBX 23 22 3 0
BITMAP
6F80000000000000000AF500
6F80000000000000000DF200
6F80000000000000004FD000
6F8000000000000000BF7000
6F8000000000000005FE1000
6F800000000000003EF50000
6F80000000000004EF700000
6F8000000000019FF7000000
6F80000000017EFC30000000
6F80001247BFFD6000000000
6FFFFFFFFFFB400000000000
6FFFFFFFFFFFD93000000000
6F800012357BFFFC50000000
6F800000000016CFFB200000
6F80000000000005DFE30000
6F800000000000001BFE2000
6F8000000000000000BFC000
6F80000000000000001DF700
6F800000000000000004FE00
6F800000000000000000DF40
6F8000000000000000008F80
6F8000000000000000005FA0
ENDCHAR
STARTCHAR l
ENCODING 108
SWIDTH 709 0
DWIDTH 23 0
BBX 20 22 3 0
BITMAP
6F800000000000000000
6F800000000000000000
6F800000000000000000
6F800000000000000000
6F800000000000000000
6F800000000000000000
6F800000000000000000
6F800000000000000000
6F800000000000000000
6F800000000000000000
6F800000000000000000
6F800000000000000000
6F800000000000000000
6F800000000000000000
6F900000000000000000
5F900000000000000000
4FB00000000000000000
2FE10000000000000000
0CFA0000000000000000
04FFD742100000000000
005EFFFFFFFFFFFFFFF6
00016ACEFFFFFFFFFFF6
ENDCHAR
STARTCHAR m
ENCODING 109
SWIDTH 1246 0
DWIDTH 40 0
BBX 34 22 3 0
BITMAP
6F800005BEFEC71000000049DEFDA40000
6F8006EFFFFFFFE500005DFFFFFFFFA100
6F81BFFA41015BFF402BFFB620137EFB00
6FBDFB200000007FE4EFB200000002DF70
6FFF70000000000CFFF600000000004FD0
6FF5000000000006FE4000000000000DF3
6F90000000000003FC0000000000000AF5
6F80000000000002FD00000000000009F5
6F80000000000001FD00000000000009F5
6F80000000000001FD00000000000009F5
6F80000000000001FD00000000000009F5
6F80000000000001FD00000000000009F5
6F80000000000001FD00000000000009F5
6F80000000000001FD00000000000009F5
6F80000000000001FD00000000000009F5
6F80000000000001FD00000000000009F5
6F80000000000001FD00000000000009F5
6F80000000000001FD00000000000009F5
6F80000000000001FD00000000000009F5
6F80000000000001FD00000000000009F5
6F80000000000001FD00000000000009F5
6F80000000000001FD00000000000009F5
ENDCHAR
STARTCHAR n
ENCODING 110
SWIDTH 933 0
DWIDTH 30 0
BBX 24 22 3 0
BITMAP
6F800000016ADEFEDB710000
6F800006CFFFFFFFFFFF7000
6F8006DFFE95210125AFF900
6F84DFFA400000000003EF50
6FEFFA300000000000006FD0
6FFD40000000000000000EF2
6FC100000000000000000BF4
6F8000000000000000000AF5
6F80000000000000000009F5
6F80000000000000000009F5
6F80000000000000000009F5
6F80000000000000000009F5
6F80000000000000000009F5
6F80000000000000000009F5
6F80000000000000000009F5
6F80000000000000000009F5
6F80000000000000000009F5
6F80000000000000000009F5
6F80000000000000000009F5
6F80000000000000000009F5
6F80000000000000000009F5
6F80000000000000000009F5
ENDCHAR
STARTCHAR o
ENCODING 111
SWIDTH 983 0
DWIDTH 31 0
BBX 28 22 2 0
BITMAP
0000000159BDEFEDCA7300000000
000003AFFFFFFFFFFFFFD7000000
00019FFFB7421011358DFFD40000
001CFE710000000000003BFF5000
00CFD200000000000000007FF400
07FD10000000000000000007FD10
1EF400000000000000000000CF80
5FC0000000000000000000004FD0
9F70000000000000000000000EF2
CF40000000000000000000000CF4
DF30000000000000000000000AF5
DF30000000000000000000000AF5
CF40000000000000000000000CF4
AF70000000000000000000000EF2
6FB0000000000000000000004FD0
1EF400000000000000000000CF80
07FD10000000000000000007FD10
00CFC200000000000000007FF400
001CFE710000000000003BFF6000
00019FFFA7421011358DFFD40000
000003AFFFFFFFFFFFFFD7100000
0000000169BDEFEECA7300000000
ENDCHAR
STARTCHAR p
ENCODING 112
SWIDTH 818 0
DWIDTH 26 0
BBX 22 22 3 0
BITMAP
6FFFFFFFFFFFFEDB830000
6FFFFFFFFFFFFFFFFFB200
6F800000000011358EFE20
6F8000000000000001AFB0
6F80000000000000001EF2
6F80000000000000000AF6
6F800000000000000008F8
6F800000000000000008F8
6F80000000000000000AF6
6F80000000000000001EF2
6F8000000000000001BFB0
6F800000000000147DFE20
6FFFFFFFFFFFFFFFFFB200
6FFFFFFFFFFFFEDB830000
6F80000000000000000000
6F80000000000000000000
6F80000000000000000000
6F80000000000000000000
6F80000000000000000000
6F80000000000000000000
6F80000000000000000000
6F80000000000000000000
ENDCHAR
STARTCHAR q
ENCODING 113
SWIDTH 983 0
DWIDTH 31 0
BBX 30 22 2 0
BITMAP
0000000159BDEFEDCA730000000000
000003AFFFFFFFFFFFFFD700000000
00019FFFB7421011358DFFD4000000
001CFE710000000000003BFF500000
00CFD200000000000000007FF40000
07FD10000000000000000007FD1000
1EF400000000000000000000CF8000
5FC0000000000000000000004FD000
9F70000000000000000000000EF200
CF40000000000000000000000CF400
DF30000000000000000000000AF500
DF30000000000000000000000AF500
CF40000000000000000000000CF300
AF70000000000000000000000EF200
6FB0000000000000000000004FC000
1EF400000000000000000000CF7000
07FD10000000000000000007FD1000
00CFC200000000000000007FF50000
001CFE710000000000003BFF600000
00019FFFA7421011358DFFFFB86410
000003AFFFFFFFFFFFFFD9BEFFFFE1
0000000169BDEFFECA730000369C90
ENDCHAR
STARTCHAR r
ENCODING 114
SWIDTH 609 0
DWIDTH 20 0
BBX 17 22 3 0
BITMAP
6F80000016ADEFED60
6F800029FFFFFFFF80
6F8008FFD852101330
6F81BFD50000000000
6FADFA100000000000
6FFF60000000000000
6FF600000000000000
6F9000000000000000
6F8000000000000000
6F8000000000000000
6F8000000000000000
6F8000000000000000
6F8000000000000000
6F8000000000000000
6F8000000000000000
6F8000000000000000
6F8000000000000000
6F8000000000000000
6F8000000000000000
6F8000000000000000
6F8000000000000000
6F8000000000000000
ENDCHAR
STARTCHAR s
ENCODING 115
SWIDTH 787 0
DWIDTH 25 0
BBX 21 22 2 0
BITMAP
000027ACEEFEDA73000000
002BFFFFFFFFFFFFD83000
04FFE95311001369EFE000
1EF910000000000005B000
4FD0000000000000000000
6FA0000000000000000000
3FD0000000000000000000
0BFB200000000000000000
01BFFA4100000000000000
0006DFFFB7300000000000
0000038CFFFEB720000000
00000000159CFFFC710000
000000000000159EFE6000
00000000000000006EF900
000000000000000002DF50
0000000000000000006FA0
0000000000000000005FB0
000000000000000000AF80
4A3000000000000019FF30
4FFD964210011369EFF600
05AFFFFFFFFFFFFFFB3000
000158BDEFFEECA6200000
ENDCHAR
STARTCHAR t
ENCODING 116
SWIDTH 708 0
DWIDTH 23 0
BBX 23 22 0 0
BITMAP
6FFFFFFFFFFFFFFFFFFFFF10
6FFFFFFFFFFFFFFFFFFFFF10
00000000009F500000000000
00000000009F500000000000
00000000009F500000000000
00000000009F500000000000
00000000009F500000000000
00000000009F500000000000
00000000009F500000000000
00000000009F500000000000
00000000009F500000000000
00000000009F500000000000
00000000009F500000000000
00000000009F500000000000
00000000009F500000000000
00000000009F500000000000
00000000009F500000000000
00000000009F500000000000
00000000009F500000000000
00000000009F500000000000
00000000009F500000000000
00000000009F500000000000
ENDCHAR
STARTCHAR u
ENCODING 117
SWIDTH 931 0
DWIDTH 30 0
BBX 24 22 3 0
BITMAP
7F8000000000000000000CF3
7F8000000000000000000CF3
7F8000000000000000000CF3
7F8000000000000000000CF3
7F8000000000000000000CF3
7F8000000000000000000CF3
7F8000000000000000000CF3
7F8000000000000000000CF3
7F8000000000000000000CF3
7F8000000000000000000CF3
7F8000000000000000000CF3
7F8000000000000000000CF3
7F8000000000000000000CF3
7F8000000000000000000CF3
7F8000000000000000000CF3
6F9000000000000000002EF3
4FC00000000000000006EFF3
0EF300000000000003BFFEF3
07FD200000000015BFFB2CF3
00BFE84200136AEFFC500CF3
0008FFFFFFFFFFFB50000CF3
000027BDEFECA51000000CF3
ENDCHAR
STARTCHAR v
ENCODING 118
SWIDTH 817 0
DWIDTH 26 0
BBX 25 22 1 0
BITMAP
DF40000000000000000002FF10
6FC0000000000000000009F900
0DF400000000000000002FF200
07FB00000000000000008F9000
01EF3000000000000001EF2000
007FB000000000000008F90000
001EF30000000000001EF20000
0007FA0000000000008F900000
0001EF300000000001EF200000
00008FA00000000007FA000000
00001EF2000000001EF2000000
000008FA000000007FA0000000
000001EF20000000EF30000000
0000008F90000006FA00000000
0000002FF200000DF300000000
00000009F900006FA000000000
00000002FF1000DF3000000000
000000009F8006FB0000000000
000000002FE10DF30000000000
000000000AF85FB00000000000
0000000002FEDF400000000000
0000000000AFFB000000000000
ENDCHAR
STARTCHAR w
ENCODING 119
SWIDTH 1266 0
DWIDTH 41 0
BBX 39 22 1 0
BITMAP
9F8000000000000004FFB000000000000001FF20
3FE000000000000009FFF200000000000006FB00
0CF50000000000001EFAF70000000000000CF500
07FB0000000000006FB3FD0000000000003FE000
01FF200000000000BF50DF4000000000009F8000
00AF700000000002FE007F900000000001EF2000
004FD00000000007F9001FE10000000006FC0000
000DF4000000000DF3000BF6000000000BF60000
0007FA000000004FC00005FB000000002FE10000
0001FF100000009F700000EF200000008F900000
0000AF70000001EF1000009F70000000EF300000
00004FC0000005FA0000003FD0000005FC000000
00000DF300000BF50000000CF400000BF6000000
000008F900002FE000000007F900002FE1000000
000002FE10007F8000000001FE10007F90000000
000000BF6000DF3000000000AF6000DF40000000
0000005FC004FC00000000004FB004FD00000000
0000000EF209F600000000000EF20AF700000000
00000008F81EF1000000000008F71FF100000000
00000002FE6FA0000000000002FD6FA000000000
00000000BFEF40000000000000CFEF4000000000
000000006FFE000000000000006FFD0000000000
ENDCHAR
STARTCHAR x
ENCODING 120
SWIDTH 821 0
DWIDTH 26 0
BBX 24 22 1 0
BITMAP
09FC10000000000000008FD1
00AFC100000000000007FD20
000BFB0000000000006FE200
0000BFA00000000005FE3000
00001CF9000000004FE40000
000001DF80000003EF400000
0000002DF600003EF5000000
00000002EF5002EF60000000
000000003EF41DF700000000
0000000004EEDF8000000000
00000000005FFA0000000000
0000000001BFFE3000000000
000000000BFB6FE200000000
00000000AFB107FD20000000
00000009FC10008FD1000000
0000008FD1000009FC100000
000007FD20000000AFB00000
00006FE2000000000BFA0000
0005FE300000000001CF9000
004FF40000000000001CF800
03EF5000000000000001DF70
3EF600000000000000002DF6
ENDCHAR
STARTCHAR y
ENCODING 121
SWIDTH 911 0
DWIDTH 29 0
BBX 24 22 2 0
BITMAP
2FD0000000000000000007F8
2FD0000000000000000007F8
2FD0000000000000000007F8
2FD0000000000000000007F8
2FD0000000000000000007F8
2FD0000000000000000007F8
1FE0000000000000000007F8
0EF200000000000000001DF8
0BF60000000000000000AFF8
06FC0000000000000009FFF8
01EF70000000000001BFD8F8
006FF800000000005DFD27F8
0008FFE84210137DFFA107F8
00005DFFFFFFFFFFC40007F8
00000049CEFFEB83000009F7
000000000000000000000DF4
000000000000000000007FE0
00000000000000000006FF70
2B6100000000000004BFF900
2FFFB85321011359DFFF7000
04AFFFFFFFFFFFFFFF920000
000148ACEEFFEDB851000000
ENDCHAR
STARTCHAR z
ENCODING 122
SWIDTH 728 0
DWIDTH 23 0
BBX 20 22 2 0
BITMAP
4FFFFFFFFFFFFFFFFFD0
4FFFFFFFFFFFFFFFFF90
0000000000000009FB00
000000000000006FC100
00000000000004FE2000
0000000000003EF30000
000000000001DF500000
00000000001CF7000000
0000000000AF90000000
0000000008FB00000000
000000006FD100000000
00000004FE2000000000
0000002EF40000000000
000001DF600000000000
00000CF8000000000000
0000AFA0000000000000
0008FC10000000000000
005FD100000000000000
04FE3000000000000000
2EF40000000000000000
AFFFFFFFFFFFFFFFFFF3
BFFFFFFFFFFFFFFFFFF3
ENDCHAR
STARTCHAR braceleft
ENCODING 123
SWIDTH 386 0
DWIDTH 12 0
BBX 11 25 0 -2
BITMAP
0000006CEFB0
000007FFFFB0
00001EF51000
00004FA00000
00006F800000
00007F800000
00007F800000
00007F700000
00007F600000
00008F400000
0000CE100000
0018F5000000
1FFE50000000
0028F5000000
0000CE100000
00008F400000
00007F600000
00007F700000
00007F800000
00007F800000
00006F800000
00004FA00000
00001EF51000
000007FFFFB0
0000006CEFB0
ENDCHAR
STARTCHAR bar
ENCODING 124
SWIDTH 259 0
DWIDTH 8 0
BBX 3 32 3 -8
BITMAP
CF20
CF20
CF20
CF20
CF20
CF20
CF20
CF20
CF20
CF20
CF20
CF20
CF20
CF20
CF20
CF20
CF20
CF20
CF20
CF20
CF20
CF20
CF20
CF20
CF20
CF20
CF20
CF20
CF20
CF20
CF20
CF20
ENDCHAR
STARTCHAR braceright
ENCODING 125
SWIDTH 386 0
DWIDTH 12 0
BBX 11 25 1 -2
BITMAP
6FFD81000000
6FFFFC000000
0013CF600000
00005FA00000
00003FB00000
00002FC00000
00002FC00000
00002FC00000
00001FD00000
00000EE00000
00000AF20000
000001DB3000
0000002DFF60
000001DC3000
000009F20000
00000EE00000
00001FD00000
00002FC00000
00002FC00000
00002FC00000
00003FB00000
00005FA00000
0003CF600000
6FFFFC000000
6FFD91000000
ENDCHAR
STARTCHAR asciitilde
ENCODING 126
SWIDTH 634 0
DWIDTH 20 0
BBX 16 3 2 9
BITMAP
17CEFDC97421026A
8FFFFFFFFFFFFFFD
783112369BDEFDA3
ENDCHAR
STARTCHAR nonbreakingspace
ENCODING 160
SWIDTH 375 0
DWIDTH 12 0
BBX 1 1 0 0
BITMAP
00
ENDCHAR
STARTCHAR exclamdown
ENCODING 161
SWIDTH 274 0
DWIDTH 9 0
BBX 3 22 3 0
BITMAP
CF90
CF90
CF90
0000
0000
0000
4F10
5F20
5F20
6F30
7F40
7F40
8F50
9F60
9F60
AF70
BF80
BF80
CF90
CF90
CF90
CF90
ENDCHAR
STARTCHAR cent
ENCODING 162
SWIDTH 736 0
DWIDTH 24 0
BBX 21 25 1 -2
BITMAP
00000000000EC000000000
00000000000EC000000000
00000000000EC000000000
000000048BDFFEDB851000
000017EFFFFFFFFFFFE930
0003DFFC742EC1236AEFF0
003EFC30000EC0000005B0
01DFA000000EC000000000
08FC0000000EC000000000
0DF40000000EC000000000
3FE00000000EC000000000
5FC00000000EC000000000
6FB00000000EC000000000
5FC00000000EC000000000
3FE00000000EC000000000
0EF40000000EC000000000
08FC0000000EC000000000
01EF9000000EC000000000
003EFC30000EC0000004B0
0003DFFC742EC12369EFF0
000018EFFFFFFFFFFFE930
000000049BDFFEDC951000
00000000000EC000000000
00000000000EC000000000
00000000000EC000000000
ENDCHAR
STARTCHAR sterling
ENCODING 163
SWIDTH 792 0
DWIDTH 25 0
BBX 23 22 1 0
BITMAP
00000000016ADEFEEC962000
000000007EFFFFFFFFFFF300
00000009FFA531001258C200
0000005FE400000000000000
000000DF6000000000000000
000002FE0000000000000000
000005FA0000000000000000
000006F80000000000000000
000007F80000000000000000
000007F70000000000000000
1FFFFFFFFFFFFFFFFC000000
1FFFFFFFFFFFFFFFFC000000
000007F70000000000000000
000007F70000000000000000
000007F70000000000000000
000007F70000000000000000
000009F50000000000000000
00001EF10000000000000000
0001BF900000000000000000
026EFFEFEDCA853210135960
1FFFFFFFFFFFFFFFFFFFFF70
1EB7410012468ACDEFEC9510
ENDCHAR
STARTCHAR currency
ENCODING 164
SWIDTH 560 0
DWIDTH 18 0
BBX 14 16 2 3
BITMAP
11000000000010
BC1000000002DA
7FC16CEEC62DF6
08FEFFFFFFFF70
00CFD4115DFC00
04FC100001DF30
09F30000003F80
0BD00000000EA0
0BD00000000DA0
09F20000002F80
03FA000000CF30
00CFB4115CFC00
09FEFFFFFFEF70
8FC16CEEB41DF7
AC1000000001D9
01000000000010
ENDCHAR
STARTCHAR yen
ENCODING 165
SWIDTH 811 0
DWIDTH 26 0
BBX 22 22 2 0
BITMAP
AFA0000000000000000BF9
1CF7000000000000008FB0
02EF50000000000005FD10
003FE300000000003FE300
0005FD1000000002EF5000
00008FC00000001CF70000
00000AF9000000AFA00000
000001CF700008FC000000
0000002EF4005FD1000000
2FFFFFFFFE33EFFFFFFFF1
2FFFFFFFFFDDFFFFFFFFF1
000000000AFF9000000000
0000000000FE0000000000
2FFFFFFFFFFFFFFFFFFFF1
2FFFFFFFFFFFFFFFFFFFF1
0000000000FE0000000000
0000000000FE0000000000
0000000000FE0000000000
0000000000FE0000000000
0000000000FE0000000000
0000000000FE0000000000
0000000000FE0000000000
ENDCHAR
STARTCHAR brokenbar
ENCODING 166
SWIDTH 259 0
DWIDTH 8 0
BBX 3 28 3 -6
BITMAP
CF20
CF20
CF20
CF20
CF20
CF20
CF20
CF20
CF20
CF20
CF20
CF20
0000
0000
0000
0000
CF20
CF20
CF20
CF20
CF20
CF20
CF20
CF20
CF20
CF20
CF20
CF20
ENDCHAR
STARTCHAR section
ENCODING 167
SWIDTH 500 0
DWIDTH 16 0
BBX 14 22 1 0
BITMAP
00017CEFDA5100
003EFFFFFFF900
00DFA310149800
01FE0000000000
00FD0000000000
009F8000000000
001BFB30000000
004DDBFC500000
05F9003AFE7000
0DE000002AFD20
1FD00000007FC0
0CF60000000DF1
02DF9200000ED0
0017EF9201AF50
000006CFBDD500
00000004BFB100
0000000008F900
0000000000DF00
0000000000EF10
03B731014BFD00
03FFFFFFFFE300
0038CEFDC81000
ENDCHAR
STARTCHAR dieresis
ENCODING 168
SWIDTH 527 0
DWIDTH 17 0
BBX 9 2 4 18
BITMAP
DF70008FB0
DF70008FB0
ENDCHAR
STARTCHAR copyright
ENCODING 169
SWIDTH 770 0
DWIDTH 25 0
BBX 23 21 1 0
BITMAP
000000049DEFEB8200000000
000004DD7310249EA2000000
00009E6000000002AE400000
000AE3000000000007F50000
007F30005BEFEC82008E2000
02F7001BE72026EE000CB000
09E100BE300000190004F400
0E9005F7000000000000D900
3F500AF10000000000009D00
5F300DD00000000000007F00
6F100EC00000000000006F10
5F300DD00000000000007F00
3F400AF10000000000009D00
0E9005F7000000000000D900
09E100BE300000190004F400
02F7001BE72026EE000CB000
007F30005BEFEC83008F2000
000AE3000000000006F50000
00009E60000000019E500000
000005DD7310249EA2000000
000000049DEFEB8200000000
ENDCHAR
STARTCHAR ordfeminine
ENCODING 170
SWIDTH 497 0
DWIDTH 16 0
BBX 14 14 1 8
BITMAP
0159CEFEDB7100
0DF9410126CE40
09200000001DD0
000000000009F2
000158ABDEEFF2
04BFC9643218F2
7FA200000008F2
ED0000000008F2
ED000000004DF2
7F9310137CFEF2
04ADEFFEC828F2
00000000000000
00000000000000
8FFFFFFFFFFFF2
ENDCHAR
STARTCHAR guillemotleft
ENCODING 171
SWIDTH 440 0
DWIDTH 14 0
BBX 12 11 1 5
BITMAP
0000A60002C3
000AFA001CF6
009FB001CF80
08FC100BF900
6FD200AFB000
BF5000EF1000
6FD100AFB000
08FC100BF900
009FB001CF80
000AFA001CF6
0000A60002C3
ENDCHAR
STARTCHAR logicalnot
ENCODING 172
SWIDTH 634 0
DWIDTH 20 0
BBX 16 7 2 7
BITMAP
5FFFFFFFFFFFFFF9
5FFFFFFFFFFFFFF9
00000000000001F9
00000000000001F9
00000000000001F9
00000000000001F9
00000000000001F9
ENDCHAR
STARTCHAR uni00AD
ENCODING 173
SWIDTH 540 0
DWIDTH 17 0
BBX 13 2 2 10
BITMAP
7FFFFFFFFFFFB0
7FFFFFFFFFFFB0
ENDCHAR
STARTCHAR registered
ENCODING 174
SWIDTH 600 0
DWIDTH 19 0
BBX 17 16 1 6
BITMAP
000005ADFEB6000000
0002CC62015BD40000
003E700000006E4000
01D808FFFEA206E200
07D008E002CD00AA00
0D6008E0007F104F10
2F2008E003CD000E50
4F0008FFFFC2000C60
4F0008E009C0000C60
2F2008E001E6000E50
0D6008E0008E103F10
07C008E0001E80AA00
01D70000000005E200
003E700000006E4000
0002CC62015BD40000
000005ADFEB6000000
ENDCHAR
STARTCHAR macron
ENCODING 175
SWIDTH 527 0
DWIDTH 17 0
BBX 9 2 4 18
BITMAP
DFFFFFFFB0
DFFFFFFFB0
ENDCHAR
STARTCHAR degree
ENCODING 176
SWIDTH 373 0
DWIDTH 12 0
BBX 8 8 2 14
BITMAP
02AEE910
1EA22BD1
9E1001F8
DA0000CC
DA0000BC
9E1001E8
1EA22BD1
02AEE910
ENDCHAR
STARTCHAR plusminus
ENCODING 177
SWIDTH 634 0
DWIDTH 20 0
BBX 16 18 2 1
BITMAP
0000000AF0000000
0000000AF0000000
0000000AF0000000
0000000AF0000000
0000000AF0000000
0000000AF0000000
5FFFFFFFFFFFFFF9
5FFFFFFFFFFFFFF9
0000000AF0000000
0000000AF0000000
0000000AF0000000
0000000AF0000000
0000000AF0000000
0000000AF0000000
0000000000000000
0000000000000000
5FFFFFFFFFFFFFF9
5FFFFFFFFFFFFFF9
ENDCHAR
STARTCHAR twosuperior
ENCODING 178
SWIDTH 511 0
DWIDTH 16 0
BBX 14 14 1 8
BITMAP
159CEEFEC94000
BFC6311259FB10
94000000003EB0
000000000009F3
000000000008F5
00000000000DF2
0000000000AF80
000000001BF900
00000005EE6000
000002AFC20000
00007EF7000000
004DFB20000000
2AFE6000000000
DFFFFFFFFFFFF9
ENDCHAR
STARTCHAR threesuperior
ENCODING 179
SWIDTH 512 0
DWIDTH 16 0
BBX 14 14 1 8
BITMAP
159CEFEDC94000
9F94100249FB10
73000000005F90
00000000001FB0
00000000008F70
000001258DE800
0000AFFFFA3000
000001136AFB20
00000000003ED0
000000000009F4
000000000009F3
91000000004FC0
DE9410025AFC20
26ADEFEDC94000
ENDCHAR
STARTCHAR acute
ENCODING 180
SWIDTH 527 0
DWIDTH 17 0
BBX 8 5 6 18
BITMAP
00000296
00018FFC
007EFE71
3DFD6100
2C500000
ENDCHAR
STARTCHAR micro
ENCODING 181
SWIDTH 705 0
DWIDTH 23 0
BBX 19 21 1 -6
BITMAP
0000EF10000000007F70
0002FD0000000000AF40
0005F90000000000DF10
0008F60000000001FE00
000BF30000000004FB00
000DF10000000007F800
001FC0000000000AF500
004F90000000000DF200
007F60000000001FE000
00AF4000000000AFC000
00DF9000000008FF9000
01FFF3000001AFAF9000
04FBEE62027EF64F9000
07F74FFFFFFE401FC000
0AF403BEEC71000DF100
0DF10000000000000000
1FD00000000000000000
4FA00000000000000000
7F700000000000000000
AF500000000000000000
DF200000000000000000
ENDCHAR
STARTCHAR paragraph
ENCODING 182
SWIDTH 585 0
DWIDTH 19 0
BBX 13 22 2 0
BITMAP
0005ADEFFFFFE0
02CFFFFF8008E0
1DFFFFFF8008E0
8FFFFFFF8008E0
DFFFFFFF8008E0
FFFFFFFF8008E0
FFFFFFFF8008E0
DFFFFFFF8008E0
8FFFFFFF8008E0
1DFFFFFF8008E0
02CFFFFF8008E0
0005ADFF8008E0
0000000E8008E0
0000000E8008E0
0000000E8008E0
0000000E8008E0
0000000E8008E0
0000000E8008E0
0000000E8008E0
0000000E8008E0
0000000E8008E0
0000000E8008E0
ENDCHAR
STARTCHAR periodcentered
ENCODING 183
SWIDTH 185 0
DWIDTH 6 0
BBX 4 3 1 9
BITMAP
6FF5
6FF5
6FF5
ENDCHAR
STARTCHAR cedilla
ENCODING 184
SWIDTH 527 0
DWIDTH 17 0
BBX 8 6 4 -6
BITMAP
0002F400
0008E000
000DFEC4
000102DE
2B4103DE
2FFFFEA3
ENDCHAR
STARTCHAR onesuperior
ENCODING 185
SWIDTH 261 0
DWIDTH 8 0
BBX 6 14 0 8
BITMAP
004DF7
2BB7F7
8405F7
0005F7
0005F7
0005F7
0005F7
0005F7
0005F7
0005F7
0005F7
0005F7
0005F7
0005F7
ENDCHAR
STARTCHAR ordmasculine
ENCODING 186
SWIDTH 520 0
DWIDTH 17 0
BBX 15 14 1 8
BITMAP
00049DEFEC820000
02CE7310149F8000
1DC100000004F900
9F30000000007F30
EC00000000002F80
FB00000000001FA0
EC00000000002F80
9F20000000007F30
1EC100000004E900
02CE7310149F8000
00049DEFEC820000
0000000000000000
0000000000000000
4FFFFFFFFFFFFE00
ENDCHAR
STARTCHAR guillemotright
ENCODING 187
SWIDTH 440 0
DWIDTH 14 0
BBX 12 11 1 5
BITMAP
2C20005B1000
5FD2008FB000
06FD100AFA00
008FC100BF90
0009FB001CF8
0000EF1003FC
0009FB001CF8
008FC100BF90
06FD100AFA00
5FD2008FB000
2C20005B1000
ENDCHAR
STARTCHAR onequarter
ENCODING 188
SWIDTH 857 0
DWIDTH 27 0
BBX 26 22 0 0
BITMAP
002BFB0000000000000AF60000
18D4FB0000000000007F900000
5700FB000000000004FC000000
0000FB00000000002EE2000000
0000FB0000000000CF40000000
0000FB0000000009F700000000
0000FB000000006FB000000000
0000FB00000003ED1000000000
0000FB0000001DF30000000000
0000FB000000BF600000000000
0000FB000007F9000000000000
00000000004FC0000002DFC000
0000000002EE2000003EDEC000
000000000CF4000004ED2EC000
000000009F7000005EC10EC000
00000006FB000006FB100EC000
0000003FD100007FA0000EC000
000001DF300008F900000EC000
00000BF600002FFFFFFFFFFFFD
00007F900000000000000EC000
0004FC000000000000000EC000
002EE2000000000000000EC000
ENDCHAR
STARTCHAR onehalf
ENCODING 189
SWIDTH 937 0
DWIDTH 30 0
BBX 28 22 0 0
BITMAP
002BFB0000000000000AF6000000
18D4FB0000000000007F90000000
5700FB000000000004FC00000000
0000FB00000000002EE200000000
0000FB0000000000CF4000000000
0000FB0000000009F70000000000
0000FB000000006FB00000000000
0000FB00000003ED100000000000
0000FB0000001DF3000000000000
0000FB000000BF60000000000000
0000FB000007F900049CEFDC8200
00000000004FC0007FC52014BF50
0000000002EE2000650000000CF1
000000000CF400000000000008F5
000000009F700000000000000BF3
00000006FB000000000000006FC0
0000003FD100000000000007FC10
000001DF30000000000001AFA100
00000BF60000000000006EF70000
00007F9000000000002BFC300000
0004FC000000000007FF80000000
002EE200000000008FFFFFFFFFF6
ENDCHAR
STARTCHAR threequarters
ENCODING 190
SWIDTH 978 0
DWIDTH 31 0
BBX 29 22 1 0
BITMAP
2FFFFFEC94000000000001CF300000
2B631014BF70000000000AF6000000
000000000DE0000000006FA0000000
000000000DD000000003FC10000000
00000125BD300000001DE200000000
0000EFFE9100000000BF5000000000
00000136CE60000008F80000000000
000000000AF300005FB00000000000
0000000006F60002EE100000000000
540000000AF3001CF4000000000000
6FA41014AF8000AF70000000000000
05ADEFEC930006FA0000003EFA0000
0000000000003FD1000004EDFA0000
000000000001DE2000005FB2FA0000
00000000000BF5000006FA01FA0000
00000000008F8000008F9001FA0000
0000000005FB000009F80001FA0000
000000002EE10000AF600001FA0000
00000001CF400004FFFFFFFFFFFFB0
0000000AF700000000000001FA0000
0000006FA000000000000001FA0000
000003FD1000000000000001FA0000
ENDCHAR
STARTCHAR questiondown
ENCODING 191
SWIDTH 568 0
DWIDTH 18 0
BBX 15 22 2 0
BITMAP
000000002FF40000
000000002FF40000
000000002FF40000
0000000000000000
0000000000000000
0000000000000000
000000000BF40000
000000000BF40000
000000002CF40000
0000017CFFF40000
00018EFEA5200000
004EFC5000000000
06FE600000000000
2FF3000000000000
8F80000000000000
BF40000000000000
BF50000000000000
8FA0000000000000
3FF7000000000740
08FFC6310148EF40
007EFFFFFFFFE700
00016BDEFDB71000
ENDCHAR
STARTCHAR Agrave
ENCODING 192
SWIDTH 812 0
DWIDTH 26 0
BBX 26 29 0 0
BITMAP
00000000C50000000000000000
00000005FFC400000000000000
000000004BFFB3000000000000
00000000003AFF900000000000
00000000000029900000000000
00000000000000000000000000
00000000000000000000000000
000000000006FF600000000000
00000000000DFFE10000000000
00000000006FBAF70000000000
0000000000DF32FE1000000000
0000000006FA009F7000000000
000000001EF2002FE100000000
000000007F900008F700000000
00000001EF200001EE10000000
00000007F90000008F80000000
0000001EE10000001EE1000000
0000007F8000000007F8000000
000001EE1000000001EE100000
000008F700000000006F800000
00001EE100000000000DE10000
00008FFFFFFFFFFFFFFFF90000
0001EFFFFFFFFFFFFFFFFF2000
0008F7000000000000007F9000
001EE1000000000000001EF200
009F800000000000000007F900
02FE100000000000000001EF20
09F80000000000000000007FA0
2FE10000000000000000001EF2
ENDCHAR
STARTCHAR Aacute
ENCODING 193
SWIDTH 812 0
DWIDTH 26 0
BBX 26 29 0 0
BITMAP
00000000000000005C10000000
000000000000003BFF60000000
0000000000002AFFB400000000
000000000008FFA30000000000
00000000000892000000000000
00000000000000000000000000
00000000000000000000000000
000000000006FF600000000000
00000000000DFFE10000000000
00000000006FBAF70000000000
0000000000DF32FE1000000000
0000000006FA009F7000000000
000000001EF2002FE100000000
000000007F900008F700000000
00000001EF200001EE10000000
00000007F90000008F80000000
0000001EE10000001EE1000000
0000007F8000000007F8000000
000001EE1000000001EE100000
000008F700000000006F800000
00001EE100000000000DE10000
00008FFFFFFFFFFFFFFFF90000
0001EFFFFFFFFFFFFFFFFF2000
0008F7000000000000007F9000
001EE1000000000000001EF200
009F800000000000000007F900
02FE100000000000000001EF20
09F80000000000000000007FA0
2FE10000000000000000001EF2
ENDCHAR
STARTCHAR Acircumflex
ENCODING 194
SWIDTH 812 0
DWIDTH 26 0
BBX 26 29 0 0
BITMAP
000000000001AA200000000000
00000000006EFFE60000000000
000000002BFD55DFB200000000
00000007EE600006DF70000000
0000000A8100000017A0000000
00000000000000000000000000
00000000000000000000000000
000000000006FF600000000000
00000000000DFFE10000000000
00000000006FBAF70000000000
0000000000DF32FE1000000000
0000000006FA009F7000000000
000000001EF2002FE100000000
000000007F900008F700000000
00000001EF200001EE10000000
00000007F90000008F80000000
0000001EE10000001EE1000000
0000007F8000000007F8000000
000001EE1000000001EE100000
000008F700000000006F800000
00001EE100000000000DE10000
00008FFFFFFFFFFFFFFFF90000
0001EFFFFFFFFFFFFFFFFF2000
0008F7000000000000007F9000
001EE1000000000000001EF200
009F800000000000000007F900
02FE100000000000000001EF20
09F80000000000000000007FA0
2FE10000000000000000001EF2
ENDCHAR
STARTCHAR Atilde
ENCODING 195
SWIDTH 812 0
DWIDTH 26 0
BBX 26 27 0 0
BITMAP
000000003CFDA6313F70000000
00000001EFFFFFFFFF20000000
00000006F5126ADFD500000000
00000000000000000000000000
00000000000000000000000000
000000000006FF600000000000
00000000000DFFE10000000000
00000000006FBAF70000000000
0000000000DF32FE1000000000
0000000006FA009F7000000000
000000001EF2002FE100000000
000000007F900008F700000000
00000001EF200001EE10000000
00000007F90000008F80000000
0000001EE10000001EE1000000
0000007F8000000007F8000000
000001EE1000000001EE100000
000008F700000000006F800000
00001EE100000000000DE10000
00008FFFFFFFFFFFFFFFF90000
0001EFFFFFFFFFFFFFFFFF2000
0008F7000000000000007F9000
001EE1000000000000001EF200
009F800000000000000007F900
02FE100000000000000001EF20
09F80000000000000000007FA0
2FE10000000000000000001EF2
ENDCHAR
STARTCHAR Adieresis
ENCODING 196
SWIDTH 812 0
DWIDTH 26 0
BBX 26 26 0 0
BITMAP
000000004FF1000FF500000000
000000004FF1000FF500000000
00000000000000000000000000
00000000000000000000000000
000000000006FF600000000000
00000000000DFFE10000000000
00000000006FBAF70000000000
0000000000DF32FE1000000000
0000000006FA009F7000000000
000000001EF2002FE100000000
000000007F900008F700000000
00000001EF200001EE10000000
00000007F90000008F80000000
0000001EE10000001EE1000000
0000007F8000000007F8000000
000001EE1000000001EE100000
000008F700000000006F800000
00001EE100000000000DE10000
00008FFFFFFFFFFFFFFFF90000
0001EFFFFFFFFFFFFFFFFF2000
0008F7000000000000007F9000
001EE1000000000000001EF200
009F800000000000000007F900
02FE100000000000000001EF20
09F80000000000000000007FA0
2FE10000000000000000001EF2
ENDCHAR
STARTCHAR Aring
ENCODING 197
SWIDTH 812 0
DWIDTH 26 0
BBX 26 29 0 0
BITMAP
00000000006CEEC60000000000
0000000008F6115F9000000000
000000000FA00009F100000000
000000000FA00009F100000000
0000000008F6115F9000000000
00000000006CEEC60000000000
00000000000000000000000000
000000000006FF600000000000
00000000000DFFE10000000000
00000000006FBAF70000000000
0000000000DF32FE1000000000
0000000006FA009F7000000000
000000001EF2002FE100000000
000000007F900008F700000000
00000001EF200001EE10000000
00000007F90000008F80000000
0000001EE10000001EE1000000
0000007F8000000007F8000000
000001EE1000000001EE100000
000008F700000000006F800000
00001EE100000000000DE10000
00008FFFFFFFFFFFFFFFF90000
0001EFFFFFFFFFFFFFFFFF2000
0008F7000000000000007F9000
001EE1000000000000001EF200
009F800000000000000007F900
02FE100000000000000001EF20
09F80000000000000000007FA0
2FE10000000000000000001EF2
ENDCHAR
STARTCHAR AE
ENCODING 198
SWIDTH 1172 0
DWIDTH 38 0
BBX 36 22 0 0
BITMAP
00000000000000CFFFFFFFFFFFFFFFFFFFD0
00000000000007FFFFFFFFFFFFFFFFFFFFD0
0000000000002FF30FF20000000000000000
000000000000CF800FF20000000000000000
000000000007FC000FF20000000000000000
00000000002EF3000FF20000000000000000
0000000000BF70000FF20000000000000000
0000000006FC00000FF20000000000000000
000000002EF300000FF20000000000000000
00000000BF7000000FFFFFFFFFFFFFFFFF10
00000006FC0000000FFFFFFFFFFFFFFFFF10
0000002EF20000000FF20000000000000000
000000BF700000000FF20000000000000000
000006FC000000000FF20000000000000000
00002EFFFFFFFFFFFFF20000000000000000
0000BFFFFFFFFFFFFFF20000000000000000
0006FE10000000000FF20000000000000000
001EF500000000000FF20000000000000000
00AFB000000000000FF20000000000000000
05FF2000000000000FF20000000000000000
1EF70000000000000FFFFFFFFFFFFFFFFFF2
AFD00000000000000FFFFFFFFFFFFFFFFFF2
ENDCHAR
STARTCHAR Ccedilla
ENCODING 199
SWIDTH 869 0
DWIDTH 28 0
BBX 24 28 2 -6
BITMAP
0000000158BDEFEEDA851000
0000029EFFFFFFFFFFFFFB61
00008FFFB85211012469DFF9
001BFF820000000000000388
00BFD3000000000000000000
06FD20000000000000000000
0EF400000000000000000000
5FC000000000000000000000
9F7000000000000000000000
CF4000000000000000000000
DF3000000000000000000000
DF2000000000000000000000
CF4000000000000000000000
9F7000000000000000000000
5FC000000000000000000000
0EF400000000000000000000
06FD20000000000000000000
00BFD2000000000000000000
001BFF820000000000000288
00008FFFB74210012469DFF9
0000029EFFFFFFFFFFFFFC61
0000000158BDFFFEDB851000
000000000001F50000000000
000000000007FEC600000000
00000000000101AF40000000
000000000000005F60000000
00000000096202BF30000000
000000000BFFFEB400000000
ENDCHAR
STARTCHAR Egrave
ENCODING 200
SWIDTH 754 0
DWIDTH 24 0
BBX 19 29 3 0
BITMAP
00008810000000000000
0000EFE7000000000000
000029EFD50000000000
00000017EFC200000000
0000000016C100000000
00000000000000000000
00000000000000000000
6FFFFFFFFFFFFFFFFF80
6FFFFFFFFFFFFFFFFF80
6FB00000000000000000
6FB00000000000000000
6FB00000000000000000
6FB00000000000000000
6FB00000000000000000
6FB00000000000000000
6FB00000000000000000
6FFFFFFFFFFFFFFFFB00
6FFFFFFFFFFFFFFFFB00
6FB00000000000000000
6FB00000000000000000
6FB00000000000000000
6FB00000000000000000
6FB00000000000000000
6FB00000000000000000
6FB00000000000000000
6FB00000000000000000
6FB00000000000000000
6FFFFFFFFFFFFFFFFFB0
6FFFFFFFFFFFFFFFFFB0
ENDCHAR
STARTCHAR Eacute
ENCODING 201
SWIDTH 754 0
DWIDTH 24 0
BBX 19 29 3 0
BITMAP
0000000000002A500000
000000000018FFB00000
0000000017EFD7100000
00000004DFD600000000
00000003C50000000000
00000000000000000000
00000000000000000000
6FFFFFFFFFFFFFFFFF80
6FFFFFFFFFFFFFFFFF80
6FB00000000000000000
6FB00000000000000000
6FB00000000000000000
6FB00000000000000000
6FB00000000000000000
6FB00000000000000000
6FB00000000000000000
6FFFFFFFFFFFFFFFFB00
6FFFFFFFFFFFFFFFFB00
6FB00000000000000000
6FB00000000000000000
6FB00000000000000000
6FB00000000000000000
6FB00000000000000000
6FB00000000000000000
6FB00000000000000000
6FB00000000000000000
6FB00000000000000000
6FFFFFFFFFFFFFFFFFB0
6FFFFFFFFFFFFFFFFFB0
ENDCHAR
STARTCHAR Ecircumflex
ENCODING 202
SWIDTH 754 0
DWIDTH 24 0
BBX 19 29 3 0
BITMAP
000000006C4000000000
0000002CFFFA10000000
000007FF83AFE5000000
0003CF920003BFB20000
0005B300000004C20000
00000000000000000000
00000000000000000000
6FFFFFFFFFFFFFFFFF80
6FFFFFFFFFFFFFFFFF80
6FB00000000000000000
6FB00000000000000000
6FB00000000000000000
6FB00000000000000000
6FB00000000000000000
6FB00000000000000000
6FB00000000000000000
6FFFFFFFFFFFFFFFFB00
6FFFFFFFFFFFFFFFFB00
6FB00000000000000000
6FB00000000000000000
6FB00000000000000000
6FB00000000000000000
6FB00000000000000000
6FB00000000000000000
6FB00000000000000000
6FB00000000000000000
6FB00000000000000000
6FFFFFFFFFFFFFFFFFB0
6FFFFFFFFFFFFFFFFFB0
ENDCHAR
STARTCHAR Edieresis
ENCODING 203
SWIDTH 754 0
DWIDTH 24 0
BBX 19 26 3 0
BITMAP
00000EF60009FA000000
00000EF60009FA000000
00000000000000000000
00000000000000000000
6FFFFFFFFFFFFFFFFF80
6FFFFFFFFFFFFFFFFF80
6FB00000000000000000
6FB00000000000000000
6FB00000000000000000
6FB00000000000000000
6FB00000000000000000
6FB00000000000000000
6FB00000000000000000
6FFFFFFFFFFFFFFFFB00
6FFFFFFFFFFFFFFFFB00
6FB00000000000000000
6FB00000000000000000
6FB00000000000000000
6FB00000000000000000
6FB00000000000000000
6FB00000000000000000
6FB00000000000000000
6FB00000000000000000
6FB00000000000000000
6FFFFFFFFFFFFFFFFFB0
6FFFFFFFFFFFFFFFFFB0
ENDCHAR
STARTCHAR Igrave
ENCODING 204
SWIDTH 287 0
DWIDTH 9 0
BBX 8 29 -1 0
BITMAP
5A200000
CFF81000
17EFE710
0006DFD4
000005C3
00000000
00000000
00006F80
00006F80
00006F80
00006F80
00006F80
00006F80
00006F80
00006F80
00006F80
00006F80
00006F80
00006F80
00006F80
00006F80
00006F80
00006F80
00006F80
00006F80
00006F80
00006F80
00006F80
00006F80
ENDCHAR
STARTCHAR Iacute
ENCODING 205
SWIDTH 287 0
DWIDTH 9 0
BBX 8 29 2 0
BITMAP
00000188
00007EFE
005DFE82
2CFE7100
1C610000
00000000
00000000
06F80000
06F80000
06F80000
06F80000
06F80000
06F80000
06F80000
06F80000
06F80000
06F80000
06F80000
06F80000
06F80000
06F80000
06F80000
06F80000
06F80000
06F80000
06F80000
06F80000
06F80000
06F80000
ENDCHAR
STARTCHAR Icircumflex
ENCODING 206
SWIDTH 287 0
DWIDTH 9 0
BBX 13 29 -2 0
BITMAP
000004D6000000
0001AFFFB20000
005EFA38FF7000
2BFB30002AFC30
2C400000003B50
00000000000000
00000000000000
000006F8000000
000006F8000000
000006F8000000
000006F8000000
000006F8000000
000006F8000000
000006F8000000
000006F8000000
000006F8000000
000006F8000000
000006F8000000
000006F8000000
000006F8000000
000006F8000000
000006F8000000
000006F8000000
000006F8000000
000006F8000000
000006F8000000
000006F8000000
000006F8000000
000006F8000000
ENDCHAR
STARTCHAR Idieresis
ENCODING 207
SWIDTH 287 0
DWIDTH 9 0
BBX 9 26 0 0
BITMAP
BF90006FD0
BF90006FD0
0000000000
0000000000
0006F80000
0006F80000
0006F80000
0006F80000
0006F80000
0006F80000
0006F80000
0006F80000
0006F80000
0006F80000
0006F80000
0006F80000
0006F80000
0006F80000
0006F80000
0006F80000
0006F80000
0006F80000
0006F80000
0006F80000
0006F80000
0006F80000
ENDCHAR
STARTCHAR Eth
ENCODING 208
SWIDTH 910 0
DWIDTH 29 0
BBX 27 22 0 0
BITMAP
0006FFFFFFFFFEEDCB8510000000
0006FFFFFFFFFFFFFFFFFA300000
0006F80000000112469DFFF90000
0006F8000000000000003BFFA000
0006F800000000000000007FF600
0006F8000000000000000008FE10
0006F8000000000000000000DF60
0006F80000000000000000008FA0
0006F80000000000000000003FD0
0006F80000000000000000001FE0
8FFFFFFFFFFFFF50000000000FF0
8FFFFFFFFFFFFF50000000000FF0
0006F80000000000000000001FE0
0006F80000000000000000003FD0
0006F80000000000000000007FA0
0006F8000000000000000000CF60
0006F8000000000000000006FE10
0006F800000000000000004EF600
0006F80000000000000018FFA000
0006F80000000011357AFFF90000
0006FFFFFFFFFFFFFFFFFA300000
0006FFFFFFFFFEEDCB8510000000
ENDCHAR
STARTCHAR Ntilde
ENCODING 209
SWIDTH 936 0
DWIDTH 30 0
BBX 24 27 3 0
BITMAP
00000004DFDA6214F6000000
0000002FFFFFFFFFF2000000
0000007F4137ADFD40000000
000000000000000000000000
000000000000000000000000
6FF4000000000000000009F5
6FFE400000000000000009F5
6FEFE30000000000000009F5
6F88FE3000000000000009F5
6F809FE200000000000009F5
6F8009FD20000000000009F5
6F8000AFD2000000000009F5
6F80000AFD100000000009F5
6F800000BFC10000000009F5
6F8000001BFC1000000009F5
6F80000001CFC100000009F5
6F800000001CFB00000009F5
6F8000000001CFB0000009F5
6F80000000001DFA000009F5
6F800000000002DF900009F5
6F8000000000002DF90009F5
6F80000000000002EF8009F5
6F800000000000003EF809F5
6F8000000000000003EF79F5
6F80000000000000003EFDF5
6F800000000000000004FFF5
6F8000000000000000004FF5
ENDCHAR
STARTCHAR Ograve
ENCODING 210
SWIDTH 983 0
DWIDTH 31 0
BBX 28 29 2 0
BITMAP
000000003B300000000000000000
000000009FFA2000000000000000
0000000006DFF910000000000000
000000000005CFE6000000000000
00000000000004B5000000000000
0000000000000000000000000000
0000000000000000000000000000
0000000159BDEFEDCA7300000000
000003AFFFFFFFFFFFFFD7000000
00019FFFB7421011358DFFD40000
001CFE710000000000003BFF5000
00CFD200000000000000007FF400
07FD10000000000000000007FD10
1EF400000000000000000000CF80
5FC0000000000000000000004FD0
9F70000000000000000000000EF2
CF40000000000000000000000CF4
DF30000000000000000000000AF5
DF30000000000000000000000AF5
CF40000000000000000000000CF4
AF70000000000000000000000EF2
6FB0000000000000000000004FD0
1EF400000000000000000000CF80
07FD10000000000000000007FD10
00CFC200000000000000007FF400
001CFE710000000000003BFF6000
00019FFFA7421011358DFFD40000
000003AFFFFFFFFFFFFFD7100000
0000000169BDEFEECA7300000000
ENDCHAR
STARTCHAR Oacute
ENCODING 211
SWIDTH 983 0
DWIDTH 31 0
BBX 28 29 2 0
BITMAP
000000000000000007A000000000
0000000000000005DFF200000000
00000000000004CFFA3000000000
000000000001BFE9200000000000
000000000000B810000000000000
0000000000000000000000000000
0000000000000000000000000000
0000000159BDEFEDCA7300000000
000003AFFFFFFFFFFFFFD7000000
00019FFFB7421011358DFFD40000
001CFE710000000000003BFF5000
00CFD200000000000000007FF400
07FD10000000000000000007FD10
1EF400000000000000000000CF80
5FC0000000000000000000004FD0
9F70000000000000000000000EF2
CF40000000000000000000000CF4
DF30000000000000000000000AF5
DF30000000000000000000000AF5
CF40000000000000000000000CF4
AF70000000000000000000000EF2
6FB0000000000000000000004FD0
1EF400000000000000000000CF80
07FD10000000000000000007FD10
00CFC200000000000000007FF400
001CFE710000000000003BFF6000
00019FFFA7421011358DFFD40000
000003AFFFFFFFFFFFFFD7100000
0000000169BDEFEECA7300000000
ENDCHAR
STARTCHAR Ocircumflex
ENCODING 212
SWIDTH 983 0
DWIDTH 31 0
BBX 28 29 2 0
BITMAP
0000000000003C80000000000000
000000000008FFFD400000000000
0000000004DFB47EF91000000000
000000019FC400018EE500000000
00000001C6000000029700000000
0000000000000000000000000000
0000000000000000000000000000
0000000159BDEFEDCA7300000000
000003AFFFFFFFFFFFFFD7000000
00019FFFB7421011358DFFD40000
001CFE710000000000003BFF5000
00CFD200000000000000007FF400
07FD10000000000000000007FD10
1EF400000000000000000000CF80
5FC0000000000000000000004FD0
9F70000000000000000000000EF2
CF40000000000000000000000CF4
DF30000000000000000000000AF5
DF30000000000000000000000AF5
CF40000000000000000000000CF4
AF70000000000000000000000EF2
6FB0000000000000000000004FD0
1EF400000000000000000000CF80
07FD10000000000000000007FD10
00CFC200000000000000007FF400
001CFE710000000000003BFF6000
00019FFFA7421011358DFFD40000
000003AFFFFFFFFFFFFFD7100000
0000000169BDEFEECA7300000000
ENDCHAR
STARTCHAR Otilde
ENCODING 213
SWIDTH 983 0
DWIDTH 31 0
BBX 28 27 2 0
BITMAP
0000000006DED95217F400000000
000000004FFFFFFFFFD000000000
000000009E3137BEFC2000000000
0000000000000000000000000000
0000000000000000000000000000
0000000159BDEFEDCA7300000000
000003AFFFFFFFFFFFFFD7000000
00019FFFB7421011358DFFD40000
001CFE710000000000003BFF5000
00CFD200000000000000007FF400
07FD10000000000000000007FD10
1EF400000000000000000000CF80
5FC0000000000000000000004FD0
9F70000000000000000000000EF2
CF40000000000000000000000CF4
DF30000000000000000000000AF5
DF30000000000000000000000AF5
CF40000000000000000000000CF4
AF70000000000000000000000EF2
6FB0000000000000000000004FD0
1EF400000000000000000000CF80
07FD10000000000000000007FD10
00CFC200000000000000007FF400
001CFE710000000000003BFF6000
00019FFFA7421011358DFFD40000
000003AFFFFFFFFFFFFFD7100000
0000000169BDEFEECA7300000000
ENDCHAR
STARTCHAR Odieresis
ENCODING 214
SWIDTH 983 0
DWIDTH 31 0
BBX 28 26 2 0
BITMAP
0000000008FC0004FF1000000000
0000000008FC0004FF1000000000
0000000000000000000000000000
0000000000000000000000000000
0000000159BDEFEDCA7300000000
000003AFFFFFFFFFFFFFD7000000
00019FFFB7421011358DFFD40000
001CFE710000000000003BFF5000
00CFD200000000000000007FF400
07FD10000000000000000007FD10
1EF400000000000000000000CF80
5FC0000000000000000000004FD0
9F70000000000000000000000EF2
CF40000000000000000000000CF4
DF30000000000000000000000AF5
DF30000000000000000000000AF5
CF40000000000000000000000CF4
AF70000000000000000000000EF2
6FB0000000000000000000004FD0
1EF400000000000000000000CF80
07FD10000000000000000007FD10
00CFC200000000000000007FF400
001CFE710000000000003BFF6000
00019FFFA7421011358DFFD40000
000003AFFFFFFFFFFFFFD7100000
0000000169BDEFEECA7300000000
ENDCHAR
STARTCHAR multiply
ENCODING 215
SWIDTH 634 0
DWIDTH 20 0
BBX 14 13 3 4
BITMAP
1A4000000002B2
2EF40000002DF6
03EF400002DF60
003EF4002DF600
0003EF52DF6000
00003EFEF60000
000005FF900000
00002DFEF50000
0002EF52EF5000
002EF5002EF500
03EF500002DF60
2EF50000002DF5
0A4000000002C3
ENDCHAR
STARTCHAR Oslash
ENCODING 216
SWIDTH 983 0
DWIDTH 31 0
BBX 28 26 2 -2
BITMAP
0000000000000000000001DE2000
000000000000000000000BF40000
0000000159BDEFEDCA638F700000
000003AFFFFFFFFFFFFFFD100000
00019FFFB7421011259FFFE40000
001CFE7100000000009F7BFF6000
00CFD2000000000005F9006FF500
07FD1000000000002EC10006FE10
1EF4000000000000CE200000BF70
6FC0000000000009F60000004FD0
9F7000000000005F900000000EF2
CF400000000002ED100000000BF4
DF30000000000CE3000000000AF5
DF20000000009F60000000000AF5
CF3000000005FA00000000000CF4
9F600000002ED100000000000EF2
6FB0000000CF3000000000004FD0
1EF3000009F6000000000000CF80
08FC10005FA0000000000007FD10
01CFC202ED1000000000007FF400
002DFE7CF300000000003BFF6000
0001AFFFD7421011358DFFD40000
000006FFFFFFFFFFFFFFD7100000
00001DE458BDEFEECA7300000000
0000BF5000000000000000000000
0008F70000000000000000000000
ENDCHAR
STARTCHAR Ugrave
ENCODING 217
SWIDTH 891 0
DWIDTH 29 0
BBX 23 29 3 0
BITMAP
000000971000000000000000
000001FFD600000000000000
00000029FFD5000000000000
0000000028EFB10000000000
000000000017B00000000000
000000000000000000000000
000000000000000000000000
9F600000000000000000DF10
9F600000000000000000DF10
9F600000000000000000DF10
9F600000000000000000DF10
9F600000000000000000DF10
9F600000000000000000DF10
9F600000000000000000DF10
9F600000000000000000DF10
9F600000000000000000DF10
9F600000000000000000DF10
9F600000000000000000DF10
9F600000000000000000DF10
9F600000000000000000DF10
9F600000000000000000DF10
9F600000000000000000DF10
8F700000000000000000EF00
5FC00000000000000005FD00
1EF8000000000000002EF700
06FFA2000000000005EFD100
007FFFB631101258DFFD2000
0003BFFFFFFFFFFFFE810000
0000027ACEEFEDB950000000
ENDCHAR
STARTCHAR Uacute
ENCODING 218
SWIDTH 891 0
DWIDTH 29 0
BBX 23 29 3 0
BITMAP
000000000000003B40000000
00000000000029FF90000000
000000000018FFD600000000
0000000005EFC50000000000
0000000004B4000000000000
000000000000000000000000
000000000000000000000000
9F600000000000000000DF10
9F600000000000000000DF10
9F600000000000000000DF10
9F600000000000000000DF10
9F600000000000000000DF10
9F600000000000000000DF10
9F600000000000000000DF10
9F600000000000000000DF10
9F600000000000000000DF10
9F600000000000000000DF10
9F600000000000000000DF10
9F600000000000000000DF10
9F600000000000000000DF10
9F600000000000000000DF10
9F600000000000000000DF10
8F700000000000000000EF00
5FC00000000000000005FD00
1EF8000000000000002EF700
06FFA2000000000005EFD100
007FFFB631101258DFFD2000
0003BFFFFFFFFFFFFE810000
0000027ACEEFEDB950000000
ENDCHAR
STARTCHAR Ucircumflex
ENCODING 219
SWIDTH 891 0
DWIDTH 29 0
BBX 23 29 3 0
BITMAP
00000000007C300000000000
000000003CFFF91000000000
00000019FE73BFD400000000
000004DF910004CFA1000000
000006A200000005C1000000
000000000000000000000000
000000000000000000000000
9F600000000000000000DF10
9F600000000000000000DF10
9F600000000000000000DF10
9F600000000000000000DF10
9F600000000000000000DF10
9F600000000000000000DF10
9F600000000000000000DF10
9F600000000000000000DF10
9F600000000000000000DF10
9F600000000000000000DF10
9F600000000000000000DF10
9F600000000000000000DF10
9F600000000000000000DF10
9F600000000000000000DF10
9F600000000000000000DF10
8F700000000000000000EF00
5FC00000000000000005FD00
1EF8000000000000002EF700
06FFA2000000000005EFD100
007FFFB631101258DFFD2000
0003BFFFFFFFFFFFFE810000
0000027ACEEFEDB950000000
ENDCHAR
STARTCHAR Udieresis
ENCODING 220
SWIDTH 891 0
DWIDTH 29 0
BBX 23 26 3 0
BITMAP
0000000FF4000BF800000000
0000000FF4000BF800000000
000000000000000000000000
000000000000000000000000
9F600000000000000000DF10
9F600000000000000000DF10
9F600000000000000000DF10
9F600000000000000000DF10
9F600000000000000000DF10
9F600000000000000000DF10
9F600000000000000000DF10
9F600000000000000000DF10
9F600000000000000000DF10
9F600000000000000000DF10
9F600000000000000000DF10
9F600000000000000000DF10
9F600000000000000000DF10
9F600000000000000000DF10
9F600000000000000000DF10
8F700000000000000000EF00
5FC00000000000000005FD00
1EF8000000000000002EF700
06FFA2000000000005EFD100
007FFFB631101258DFFD2000
0003BFFFFFFFFFFFFE810000
0000027ACEEFEDB950000000
ENDCHAR
STARTCHAR Yacute
ENCODING 221
SWIDTH 763 0
DWIDTH 24 0
BBX 23 29 1 0
BITMAP
000000000000003B30000000
0000000000002AFF90000000
000000000018FFD600000000
0000000005EFC50000000000
0000000005B4000000000000
000000000000000000000000
000000000000000000000000
7FC10000000000000007FC10
0AFA000000000000004FE200
01CF70000000000002EF4000
002EF400000000000CF70000
0004FE20000000009FA00000
00007FC000000006FD100000
00000AF90000003FE2000000
000001DF600001DF50000000
0000002EF3000BF800000000
00000005FD108FB000000000
000000008FB5FD1000000000
000000000BFFE30000000000
0000000001DF600000000000
0000000000CF300000000000
0000000000CF300000000000
0000000000CF300000000000
0000000000CF300000000000
0000000000CF300000000000
0000000000CF300000000000
0000000000CF300000000000
0000000000CF300000000000
0000000000CF300000000000
ENDCHAR
STARTCHAR Thorn
ENCODING 222
SWIDTH 787 0
DWIDTH 25 0
BBX 21 22 3 0
BITMAP
6F80000000000000000000
6F80000000000000000000
6F80000000000000000000
6F80000000000000000000
6FFFFFFFFFFFEDB7300000
6FFFFFFFFFFFFFFFFB2000
6F8000000001235AFFD100
6F800000000000002DF900
6F8000000000000003FE00
6F8000000000000000DF30
6F8000000000000000CF40
6F8000000000000000DF30
6F8000000000000003FE00
6F800000000000001CF900
6F80000000000249EFD100
6FFFFFFFFFFFFFFFFB2000
6FFFFFFFFFFFEDB7300000
6F80000000000000000000
6F80000000000000000000
6F80000000000000000000
6F80000000000000000000
6F80000000000000000000
ENDCHAR
STARTCHAR germandbls
ENCODING 223
SWIDTH 863 0
DWIDTH 28 0
BBX 23 22 3 0
BITMAP
0000048BDEFEECA730000000
0005DFFFFFFFFFFFFC400000
00AFFD8421001369EFF80000
0AFE50000000000018FF4000
5FE2000000000000008FB000
BF60000000000000003FD000
EF10000000000000005FB000
FE0000000000000003DF4000
FE00000000001246BFF60000
FE00000FFFFFFFFFE9200000
FE00000FFFFFFFFFFD920000
FE00000000001247BFFF8000
FE00000000000000019FF800
FE000000000000000005FF30
FE0000000000000000009F90
FE0000000000000000005FB0
FE0000000000000000007F90
FE000000000000000001DF60
FE00000000000000002CFD00
FE000DA7532101236BFFD200
FE000FFFFFFFFFFFFFF91000
FE000258ACDEFFEDA6100000
ENDCHAR
STARTCHAR agrave
ENCODING 224
SWIDTH 888 0
DWIDTH 28 0
BBX 23 29 2 0
BITMAP
0000000B6000000000000000
0000004FFC40000000000000
00000004BFFB300000000000
0000000003AFFA0000000000
000000000002990000000000
000000000000000000000000
000000000000000000000000
00000158BDEFFEDA84000000
0027CFFFFFFFFFFFFFD60000
00FFFC86310011358CFFB100
00C7200000000000003BFB00
00000000000000000000AF50
000000000000000000002FB0
000000000000000000000FD0
000000000000000000000EF0
0000000000013579ABCDEFF0
000000158BEFFFFFFFFFFFF0
00006BFFFFFDB98654211EF0
005DFFEA7410000000000EF0
07FFB5000000000000000EF0
5FE500000000000000000EF0
CF6000000000000000000EF0
FF0000000000000000000EF0
FF1000000000000000000EF0
DF7000000000000000018FF0
7FF6000000000000049EFFF0
0BFFD7421012358BEFFD6EF0
008FFFFFFFFFFFFFE9400EF0
00016ADEFFEDB96300000EF0
ENDCHAR
STARTCHAR aacute
ENCODING 225
SWIDTH 888 0
DWIDTH 28 0
BBX 23 29 2 0
BITMAP
0000000000000004C1000000
00000000000003BFF6000000
000000000002AFFC50000000
00000000007FFB4000000000
00000000007A300000000000
000000000000000000000000
000000000000000000000000
00000158BDEFFEDA84000000
0027CFFFFFFFFFFFFFD60000
00FFFC86310011358CFFB100
00C7200000000000003BFB00
00000000000000000000AF50
000000000000000000002FB0
000000000000000000000FD0
000000000000000000000EF0
0000000000013579ABCDEFF0
000000158BEFFFFFFFFFFFF0
00006BFFFFFDB98654211EF0
005DFFEA7410000000000EF0
07FFB5000000000000000EF0
5FE500000000000000000EF0
CF6000000000000000000EF0
FF0000000000000000000EF0
FF1000000000000000000EF0
DF7000000000000000018FF0
7FF6000000000000049EFFF0
0BFFD7421012358BEFFD6EF0
008FFFFFFFFFFFFFE9400EF0
00016ADEFFEDB96300000EF0
ENDCHAR
STARTCHAR acircumflex
ENCODING 226
SWIDTH 888 0
DWIDTH 28 0
BBX 23 29 2 0
BITMAP
000000000019B20000000000
0000000005EFFE7000000000
00000002AFD64CFC30000000
0000006EE700006DF8000000
00000098100000007B000000
000000000000000000000000
000000000000000000000000
00000158BDEFFEDA84000000
0027CFFFFFFFFFFFFFD60000
00FFFC86310011358CFFB100
00C7200000000000003BFB00
00000000000000000000AF50
000000000000000000002FB0
000000000000000000000FD0
000000000000000000000EF0
0000000000013579ABCDEFF0
000000158BEFFFFFFFFFFFF0
00006BFFFFFDB98654211EF0
005DFFEA7410000000000EF0
07FFB5000000000000000EF0
5FE500000000000000000EF0
CF6000000000000000000EF0
FF0000000000000000000EF0
FF1000000000000000000EF0
DF7000000000000000018FF0
7FF6000000000000049EFFF0
0BFFD7421012358BEFFD6EF0
008FFFFFFFFFFFFFE9400EF0
00016ADEFFEDB96300000EF0
ENDCHAR
STARTCHAR atilde
ENCODING 227
SWIDTH 888 0
DWIDTH 28 0
BBX 23 27 2 0
BITMAP
00000003CFDA6313F8000000
0000001EFFFFFFFFF3000000
0000005F6126ADFD50000000
000000000000000000000000
000000000000000000000000
00000158BDEFFEDA84000000
0027CFFFFFFFFFFFFFD60000
00FFFC86310011358CFFB100
00C7200000000000003BFB00
00000000000000000000AF50
000000000000000000002FB0
000000000000000000000FD0
000000000000000000000EF0
0000000000013579ABCDEFF0
000000158BEFFFFFFFFFFFF0
00006BFFFFFDB98654211EF0
005DFFEA7410000000000EF0
07FFB5000000000000000EF0
5FE500000000000000000EF0
CF6000000000000000000EF0
FF0000000000000000000EF0
FF1000000000000000000EF0
DF7000000000000000018FF0
7FF6000000000000049EFFF0
0BFFD7421012358BEFFD6EF0
008FFFFFFFFFFFFFE9400EF0
00016ADEFFEDB96300000EF0
ENDCHAR
STARTCHAR adieresis
ENCODING 228
SWIDTH 888 0
DWIDTH 28 0
BBX 23 26 2 0
BITMAP
00000003FF1000EF50000000
00000003FF1000EF50000000
000000000000000000000000
000000000000000000000000
00000158BDEFFEDA84000000
0027CFFFFFFFFFFFFFD60000
00FFFC86310011358CFFB100
00C7200000000000003BFB00
00000000000000000000AF50
000000000000000000002FB0
000000000000000000000FD0
000000000000000000000EF0
0000000000013579ABCDEFF0
000000158BEFFFFFFFFFFFF0
00006BFFFFFDB98654211EF0
005DFFEA7410000000000EF0
07FFB5000000000000000EF0
5FE500000000000000000EF0
CF6000000000000000000EF0
FF0000000000000000000EF0
FF1000000000000000000EF0
DF7000000000000000018FF0
7FF6000000000000049EFFF0
0BFFD7421012358BEFFD6EF0
008FFFFFFFFFFFFFE9400EF0
00016ADEFFEDB96300000EF0
ENDCHAR
STARTCHAR aring
ENCODING 229
SWIDTH 888 0
DWIDTH 28 0
BBX 23 29 2 0
BITMAP
0000000006CEEC7000000000
000000008F6115EA00000000
00000000EA00009F20000000
00000000EA00009F10000000
000000008F6115EA00000000
0000000006CEEC7000000000
000000000000000000000000
00000158BDEFFEDA84000000
0027CFFFFFFFFFFFFFD60000
00FFFC86310011358CFFB100
00C7200000000000003BFB00
00000000000000000000AF50
000000000000000000002FB0
000000000000000000000FD0
000000000000000000000EF0
0000000000013579ABCDEFF0
000000158BEFFFFFFFFFFFF0
00006BFFFFFDB98654211EF0
005DFFEA7410000000000EF0
07FFB5000000000000000EF0
5FE500000000000000000EF0
CF6000000000000000000EF0
FF0000000000000000000EF0
FF1000000000000000000EF0
DF7000000000000000018FF0
7FF6000000000000049EFFF0
0BFFD7421012358BEFFD6EF0
008FFFFFFFFFFFFFE9400EF0
00016ADEFFEDB96300000EF0
ENDCHAR
STARTCHAR ae
ENCODING 230
SWIDTH 1551 0
DWIDTH 50 0
BBX 46 22 2 0
BITMAP
00000158BDEFFEDB84000000000027ADEFEDB840000000
0027CFFFFFFFFFFFFFE71000004CFFFFFFFFFFFD600000
00FFFC86310011358CFFC2001AFFE952101247CFFC2000
00C7200000000000003BFC11CFE6100000000003CFE200
00000000000000000000AF7CFC2000000000000009FC00
000000000000000000002FFFD10000000000000000AF70
000000000000000000000FFF4000000000000000001EE0
000000000000000000000EFB00000000000000000009F4
0000000000013579ABCDEFF500000000000000000004F8
000000158BEFFFFFFFFFFFF100000000000000000002FB
00006BFFFFFEBA8654211FFFFFFFFFFFFFFFFFFFFFFFFC
005DFFEB7410000000000FFFFFFFFFFFFFFFFFFFFFFFFD
07FFC5100000000000000EF10000000000000000000000
5FF600000000000000000BF40000000000000000000000
CF60000000000000000007FA0000000000000000000000
FF00000000000000000001EF2000000000000000000000
FF10000000000000000003DFC100000000000000000000
DF7000000000000000029FFFFC20000000000000000000
7FF600000000000015BFFF93CFE8100000000000004A20
0BFFD7421011358BFFFE820019FFFB7521101247AEFF20
008FFFFFFFFFFFFFFB610000003AFFFFFFFFFFFFFE9300
00016ADEFFEDCA74100000000000169CDEFFEDA8400000
ENDCHAR
STARTCHAR ccedilla
ENCODING 231
SWIDTH 869 0
DWIDTH 28 0
BBX 24 28 2 -6
BITMAP
0000000158BDEFEEDA851000
0000029EFFFFFFFFFFFFFB61
00008FFFB85211012469DFF9
001BFF820000000000000388
00BFD3000000000000000000
06FD20000000000000000000
0EF400000000000000000000
5FC000000000000000000000
9F7000000000000000000000
CF4000000000000000000000
DF3000000000000000000000
DF2000000000000000000000
CF4000000000000000000000
9F7000000000000000000000
5FC000000000000000000000
0EF400000000000000000000
06FD20000000000000000000
00BFD2000000000000000000
001BFF820000000000000288
00008FFFB74210012469DFF9
0000029EFFFFFFFFFFFFFC61
0000000158BDFFFEDB851000
000000000001F50000000000
000000000007FEC600000000
00000000000101AF40000000
000000000000005F60000000
00000000096202BF30000000
000000000BFFFEB400000000
ENDCHAR
STARTCHAR egrave
ENCODING 232
SWIDTH 910 0
DWIDTH 29 0
BBX 25 29 2 0
BITMAP
00000005A20000000000000000
0000000BFF9100000000000000
000000017EFE71000000000000
00000000006DFE400000000000
0000000000005C300000000000
00000000000000000000000000
00000000000000000000000000
000000026ACEFEDC8500000000
000003AFFFFFFFFFFFE7100000
00008FFE963101237BFFD30000
000BFF8100000000003BFE3000
00AFE3000000000000007FD100
05FE200000000000000008F900
0DF6000000000000000000DF20
4FD00000000000000000007F60
9F700000000000000000002FA0
BF300000000000000000000FD0
DFFFFFFFFFFFFFFFFFFFFFFFE0
DFFFFFFFFFFFFFFFFFFFFFFFF0
BF300000000000000000000000
9F600000000000000000000000
4FC00000000000000000000000
0EF40000000000000000000000
05FD1000000000000000000000
00AFD300000000000000000000
000BFF92000000000000039300
00007FFFC85211012469EFF400
0000029EFFFFFFFFFFFFFA4000
0000000158BDEFFEDB84100000
ENDCHAR
STARTCHAR eacute
ENCODING 233
SWIDTH 910 0
DWIDTH 29 0
BBX 25 29 2 0
BITMAP
00000000000000018800000000
000000000000007EFE00000000
0000000000005DFE9200000000
00000000002CFE810000000000
00000000000C71000000000000
00000000000000000000000000
00000000000000000000000000
000000026ACEFEDC8500000000
000003AFFFFFFFFFFFE7100000
00008FFE963101237BFFD30000
000BFF8100000000003BFE3000
00AFE3000000000000007FD100
05FE200000000000000008F900
0DF6000000000000000000DF20
4FD00000000000000000007F60
9F700000000000000000002FA0
BF300000000000000000000FD0
DFFFFFFFFFFFFFFFFFFFFFFFE0
DFFFFFFFFFFFFFFFFFFFFFFFF0
BF300000000000000000000000
9F600000000000000000000000
4FC00000000000000000000000
0EF40000000000000000000000
05FD1000000000000000000000
00AFD300000000000000000000
000BFF92000000000000039300
00007FFFC85211012469EFF400
0000029EFFFFFFFFFFFFFA4000
0000000158BDEFFEDB84100000
ENDCHAR
STARTCHAR ecircumflex
ENCODING 234
SWIDTH 910 0
DWIDTH 29 0
BBX 25 29 2 0
BITMAP
000000000004C7000000000000
00000000019FFFC30000000000
000000005EFA38FF8000000000
0000001BFB300029FD30000000
0000002C400000003B50000000
00000000000000000000000000
00000000000000000000000000
000000026ACEFEDC8500000000
000003AFFFFFFFFFFFE7100000
00008FFE963101237BFFD30000
000BFF8100000000003BFE3000
00AFE3000000000000007FD100
05FE200000000000000008F900
0DF6000000000000000000DF20
4FD00000000000000000007F60
9F700000000000000000002FA0
BF300000000000000000000FD0
DFFFFFFFFFFFFFFFFFFFFFFFE0
DFFFFFFFFFFFFFFFFFFFFFFFF0
BF300000000000000000000000
9F600000000000000000000000
4FC00000000000000000000000
0EF40000000000000000000000
05FD1000000000000000000000
00AFD300000000000000000000
000BFF92000000000000039300
00007FFFC85211012469EFF400
0000029EFFFFFFFFFFFFFA4000
0000000158BDEFFEDB84100000
ENDCHAR
STARTCHAR edieresis
ENCODING 235
SWIDTH 910 0
DWIDTH 29 0
BBX 25 26 2 0
BITMAP
00000000AFA0006FE000000000
00000000AFA0006FE000000000
00000000000000000000000000
00000000000000000000000000
000000026ACEFEDC8500000000
000003AFFFFFFFFFFFE7100000
00008FFE963101237BFFD30000
000BFF8100000000003BFE3000
00AFE3000000000000007FD100
05FE200000000000000008F900
0DF6000000000000000000DF20
4FD00000000000000000007F60
9F700000000000000000002FA0
BF300000000000000000000FD0
DFFFFFFFFFFFFFFFFFFFFFFFE0
DFFFFFFFFFFFFFFFFFFFFFFFF0
BF300000000000000000000000
9F600000000000000000000000
4FC00000000000000000000000
0EF40000000000000000000000
05FD1000000000000000000000
00AFD300000000000000000000
000BFF92000000000000039300
00007FFFC85211012469EFF400
0000029EFFFFFFFFFFFFFA4000
0000000158BDEFFEDB84100000
ENDCHAR
STARTCHAR igrave
ENCODING 236
SWIDTH 287 0
DWIDTH 9 0
BBX 8 29 -1 0
BITMAP
5A200000
BFF91000
17EFE710
0006DFE4
000005C3
00000000
00000000
00006F80
00006F80
00006F80
00006F80
00006F80
00006F80
00006F80
00006F80
00006F80
00006F80
00006F80
00006F80
00006F80
00006F80
00006F80
00006F80
00006F80
00006F80
00006F80
00006F80
00006F80
00006F80
ENDCHAR
STARTCHAR iacute
ENCODING 237
SWIDTH 287 0
DWIDTH 9 0
BBX 8 29 2 0
BITMAP
00000188
00007EFE
005DFE92
2CFE8100
0C710000
00000000
00000000
06F80000
06F80000
06F80000
06F80000
06F80000
06F80000
06F80000
06F80000
06F80000
06F80000
06F80000
06F80000
06F80000
06F80000
06F80000
06F80000
06F80000
06F80000
06F80000
06F80000
06F80000
06F80000
ENDCHAR
STARTCHAR icircumflex
ENCODING 238
SWIDTH 287 0
DWIDTH 9 0
BBX 13 29 -2 0
BITMAP
000004C7000000
00019FFFC30000
005EFA38FF8000
1BFB300029FD30
2C400000003B50
00000000000000
00000000000000
000006F8000000
000006F8000000
000006F8000000
000006F8000000
000006F8000000
000006F8000000
000006F8000000
000006F8000000
000006F8000000
000006F8000000
000006F8000000
000006F8000000
000006F8000000
000006F8000000
000006F8000000
000006F8000000
000006F8000000
000006F8000000
000006F8000000
000006F8000000
000006F8000000
000006F8000000
ENDCHAR
STARTCHAR idieresis
ENCODING 239
SWIDTH 287 0
DWIDTH 9 0
BBX 9 26 0 0
BITMAP
AFA0006FE0
AFA0006FE0
0000000000
0000000000
0006F80000
0006F80000
0006F80000
0006F80000
0006F80000
0006F80000
0006F80000
0006F80000
0006F80000
0006F80000
0006F80000
0006F80000
0006F80000
0006F80000
0006F80000
0006F80000
0006F80000
0006F80000
0006F80000
0006F80000
0006F80000
0006F80000
ENDCHAR
STARTCHAR eth
ENCODING 240
SWIDTH 910 0
DWIDTH 29 0
BBX 27 22 0 0
BITMAP
0006FFFFFFFFFEEDCB8510000000
0006FFFFFFFFFFFFFFFFFA300000
0006F80000000112469DFFF90000
0006F8000000000000003BFFA000
0006F800000000000000007FF600
0006F8000000000000000008FE10
0006F8000000000000000000DF60
0006F80000000000000000008FA0
0006F80000000000000000003FD0
0006F80000000000000000001FE0
8FFFFFFFFFFFFF50000000000FF0
8FFFFFFFFFFFFF50000000000FF0
0006F80000000000000000001FE0
0006F80000000000000000003FD0
0006F80000000000000000007FA0
0006F8000000000000000000CF60
0006F8000000000000000006FE10
0006F800000000000000004EF600
0006F80000000000000018FFA000
0006F80000000011357AFFF90000
0006FFFFFFFFFFFFFFFFFA300000
0006FFFFFFFFFEEDCB8510000000
ENDCHAR
STARTCHAR ntilde
ENCODING 241
SWIDTH 933 0
DWIDTH 30 0
BBX 24 27 3 0
BITMAP
00000008EEC85119F1000000
0000006FFFFFFFFFB0000000
000000CD2148CEFB10000000
000000000000000000000000
000000000000000000000000
6F800000016ADEFEDB710000
6F800006CFFFFFFFFFFF7000
6F8006DFFE95210125AFF900
6F84DFFA400000000003EF50
6FEFFA300000000000006FD0
6FFD40000000000000000EF2
6FC100000000000000000BF4
6F8000000000000000000AF5
6F80000000000000000009F5
6F80000000000000000009F5
6F80000000000000000009F5
6F80000000000000000009F5
6F80000000000000000009F5
6F80000000000000000009F5
6F80000000000000000009F5
6F80000000000000000009F5
6F80000000000000000009F5
6F80000000000000000009F5
6F80000000000000000009F5
6F80000000000000000009F5
6F80000000000000000009F5
6F80000000000000000009F5
ENDCHAR
STARTCHAR ograve
ENCODING 242
SWIDTH 983 0
DWIDTH 31 0
BBX 28 29 2 0
BITMAP
000000003B300000000000000000
000000009FFA2000000000000000
0000000006DFF910000000000000
000000000005CFE6000000000000
00000000000004B5000000000000
0000000000000000000000000000
0000000000000000000000000000
0000000159BDEFEDCA7300000000
000003AFFFFFFFFFFFFFD7000000
00019FFFB7421011358DFFD40000
001CFE710000000000003BFF5000
00CFD200000000000000007FF400
07FD10000000000000000007FD10
1EF400000000000000000000CF80
5FC0000000000000000000004FD0
9F70000000000000000000000EF2
CF40000000000000000000000CF4
DF30000000000000000000000AF5
DF30000000000000000000000AF5
CF40000000000000000000000CF4
AF70000000000000000000000EF2
6FB0000000000000000000004FD0
1EF400000000000000000000CF80
07FD10000000000000000007FD10
00CFC200000000000000007FF400
001CFE710000000000003BFF6000
00019FFFA7421011358DFFD40000
000003AFFFFFFFFFFFFFD7100000
0000000169BDEFEECA7300000000
ENDCHAR
STARTCHAR oacute
ENCODING 243
SWIDTH 983 0
DWIDTH 31 0
BBX 28 29 2 0
BITMAP
000000000000000007A000000000
0000000000000005DFF200000000
00000000000004CFFA3000000000
000000000001BFE9200000000000
000000000000B810000000000000
0000000000000000000000000000
0000000000000000000000000000
0000000159BDEFEDCA7300000000
000003AFFFFFFFFFFFFFD7000000
00019FFFB7421011358DFFD40000
001CFE710000000000003BFF5000
00CFD200000000000000007FF400
07FD10000000000000000007FD10
1EF400000000000000000000CF80
5FC0000000000000000000004FD0
9F70000000000000000000000EF2
CF40000000000000000000000CF4
DF30000000000000000000000AF5
DF30000000000000000000000AF5
CF40000000000000000000000CF4
AF70000000000000000000000EF2
6FB0000000000000000000004FD0
1EF400000000000000000000CF80
07FD10000000000000000007FD10
00CFC200000000000000007FF400
001CFE710000000000003BFF6000
00019FFFA7421011358DFFD40000
000003AFFFFFFFFFFFFFD7100000
0000000169BDEFEECA7300000000
ENDCHAR
STARTCHAR ocircumflex
ENCODING 244
SWIDTH 983 0
DWIDTH 31 0
BBX 28 29 2 0
BITMAP
0000000000003C80000000000000
000000000008FFFD400000000000
0000000004DFB47EF91000000000
000000019FC400018EE500000000
00000001C6000000029700000000
0000000000000000000000000000
0000000000000000000000000000
0000000159BDEFEDCA7300000000
000003AFFFFFFFFFFFFFD7000000
00019FFFB7421011358DFFD40000
001CFE710000000000003BFF5000
00CFD200000000000000007FF400
07FD10000000000000000007FD10
1EF400000000000000000000CF80
5FC0000000000000000000004FD0
9F70000000000000000000000EF2
CF40000000000000000000000CF4
DF30000000000000000000000AF5
DF30000000000000000000000AF5
CF40000000000000000000000CF4
AF70000000000000000000000EF2
6FB0000000000000000000004FD0
1EF400000000000000000000CF80
07FD10000000000000000007FD10
00CFC200000000000000007FF400
001CFE710000000000003BFF6000
00019FFFA7421011358DFFD40000
000003AFFFFFFFFFFFFFD7100000
0000000169BDEFEECA7300000000
ENDCHAR
STARTCHAR otilde
ENCODING 245
SWIDTH 983 0
DWIDTH 31 0
BBX 28 27 2 0
BITMAP
0000000006DED95217F400000000
000000004FFFFFFFFFD000000000
000000009E3137BEFC2000000000
0000000000000000000000000000
0000000000000000000000000000
0000000159BDEFEDCA7300000000
000003AFFFFFFFFFFFFFD7000000
00019FFFB7421011358DFFD40000
001CFE710000000000003BFF5000
00CFD200000000000000007FF400
07FD10000000000000000007FD10
1EF400000000000000000000CF80
5FC0000000000000000000004FD0
9F70000000000000000000000EF2
CF40000000000000000000000CF4
DF30000000000000000000000AF5
DF30000000000000000000000AF5
CF40000000000000000000000CF4
AF70000000000000000000000EF2
6FB0000000000000000000004FD0
1EF400000000000000000000CF80
07FD10000000000000000007FD10
00CFC200000000000000007FF400
001CFE710000000000003BFF6000
00019FFFA7421011358DFFD40000
000003AFFFFFFFFFFFFFD7100000
0000000169BDEFEECA7300000000
ENDCHAR
STARTCHAR odieresis
ENCODING 246
SWIDTH 983 0
DWIDTH 31 0
BBX 28 26 2 0
BITMAP
0000000008FC0004FF1000000000
0000000008FC0004FF1000000000
0000000000000000000000000000
0000000000000000000000000000
0000000159BDEFEDCA7300000000
000003AFFFFFFFFFFFFFD7000000
00019FFFB7421011358DFFD40000
001CFE710000000000003BFF5000
00CFD200000000000000007FF400
07FD10000000000000000007FD10
1EF400000000000000000000CF80
5FC0000000000000000000004FD0
9F70000000000000000000000EF2
CF40000000000000000000000CF4
DF30000000000000000000000AF5
DF30000000000000000000000AF5
CF40000000000000000000000CF4
AF70000000000000000000000EF2
6FB0000000000000000000004FD0
1EF400000000000000000000CF80
07FD10000000000000000007FD10
00CFC200000000000000007FF400
001CFE710000000000003BFF6000
00019FFFA7421011358DFFD40000
000003AFFFFFFFFFFFFFD7100000
0000000169BDEFEECA7300000000
ENDCHAR
STARTCHAR divide
ENCODING 247
SWIDTH 634 0
DWIDTH 20 0
BBX 16 14 2 4
BITMAP
0000000DF3000000
0000000DF3000000
0000000DF3000000
0000000000000000
0000000000000000
0000000000000000
5FFFFFFFFFFFFFF9
5FFFFFFFFFFFFFF9
0000000000000000
0000000000000000
0000000000000000
0000000DF3000000
0000000DF3000000
0000000DF3000000
ENDCHAR
STARTCHAR oslash
ENCODING 248
SWIDTH 983 0
DWIDTH 31 0
BBX 28 26 2 -2
BITMAP
0000000000000000000001DE2000
000000000000000000000BF40000
0000000159BDEFEDCA638F700000
000003AFFFFFFFFFFFFFFD100000
00019FFFB7421011259FFFE40000
001CFE7100000000009F7BFF6000
00CFD2000000000005F9006FF500
07FD1000000000002EC10006FE10
1EF4000000000000CE200000BF70
6FC0000000000009F60000004FD0
9F7000000000005F900000000EF2
CF400000000002ED100000000BF4
DF30000000000CE3000000000AF5
DF20000000009F60000000000AF5
CF3000000005FA00000000000CF4
9F600000002ED100000000000EF2
6FB0000000CF3000000000004FD0
1EF3000009F6000000000000CF80
08FC10005FA0000000000007FD10
01CFC202ED1000000000007FF400
002DFE7CF300000000003BFF6000
0001AFFFD7421011358DFFD40000
000006FFFFFFFFFFFFFFD7100000
00001DE458BDEFEECA7300000000
0000BF5000000000000000000000
0008F70000000000000000000000
ENDCHAR
STARTCHAR ugrave
ENCODING 249
SWIDTH 931 0
DWIDTH 30 0
BBX 24 29 3 0
BITMAP
0000002C4000000000000000
0000008FFB30000000000000
00000005CFF9200000000000
0000000004BFE70000000000
000000000003A60000000000
000000000000000000000000
000000000000000000000000
7F8000000000000000000CF3
7F8000000000000000000CF3
7F8000000000000000000CF3
7F8000000000000000000CF3
7F8000000000000000000CF3
7F8000000000000000000CF3
7F8000000000000000000CF3
7F8000000000000000000CF3
7F8000000000000000000CF3
7F8000000000000000000CF3
7F8000000000000000000CF3
7F8000000000000000000CF3
7F8000000000000000000CF3
7F8000000000000000000CF3
7F8000000000000000000CF3
6F9000000000000000002EF3
4FC00000000000000006EFF3
0EF300000000000003BFFEF3
07FD200000000015BFFB2CF3
00BFE84200136AEFFC500CF3
0008FFFFFFFFFFFB50000CF3
000027BDEFECA51000000CF3
ENDCHAR
STARTCHAR uacute
ENCODING 250
SWIDTH 931 0
DWIDTH 30 0
BBX 24 29 3 0
BITMAP
0000000000000006B0000000
00000000000005DFF3000000
000000000003BFFA30000000
0000000000AFF92000000000
0000000000A8200000000000
000000000000000000000000
000000000000000000000000
7F8000000000000000000CF3
7F8000000000000000000CF3
7F8000000000000000000CF3
7F8000000000000000000CF3
7F8000000000000000000CF3
7F8000000000000000000CF3
7F8000000000000000000CF3
7F8000000000000000000CF3
7F8000000000000000000CF3
7F8000000000000000000CF3
7F8000000000000000000CF3
7F8000000000000000000CF3
7F8000000000000000000CF3
7F8000000000000000000CF3
7F8000000000000000000CF3
6F9000000000000000002EF3
4FC00000000000000006EFF3
0EF300000000000003BFFEF3
07FD200000000015BFFB2CF3
00BFE84200136AEFFC500CF3
0008FFFFFFFFFFFB50000CF3
000027BDEFECA51000000CF3
ENDCHAR
STARTCHAR ucircumflex
ENCODING 251
SWIDTH 931 0
DWIDTH 30 0
BBX 24 29 3 0
BITMAP
00000000002B910000000000
0000000007FFFD4000000000
00000003CFC46EFA10000000
0000008FD500017EE5000000
000000B60000000198000000
000000000000000000000000
000000000000000000000000
7F8000000000000000000CF3
7F8000000000000000000CF3
7F8000000000000000000CF3
7F8000000000000000000CF3
7F8000000000000000000CF3
7F8000000000000000000CF3
7F8000000000000000000CF3
7F8000000000000000000CF3
7F8000000000000000000CF3
7F8000000000000000000CF3
7F8000000000000000000CF3
7F8000000000000000000CF3
7F8000000000000000000CF3
7F8000000000000000000CF3
7F8000000000000000000CF3
6F9000000000000000002EF3
4FC00000000000000006EFF3
0EF300000000000003BFFEF3
07FD200000000015BFFB2CF3
00BFE84200136AEFFC500CF3
0008FFFFFFFFFFFB50000CF3
000027BDEFECA51000000CF3
ENDCHAR
STARTCHAR udieresis
ENCODING 252
SWIDTH 931 0
DWIDTH 30 0
BBX 24 26 3 0
BITMAP
00000007FD0002FF20000000
00000007FD0002FF20000000
000000000000000000000000
000000000000000000000000
7F8000000000000000000CF3
7F8000000000000000000CF3
7F8000000000000000000CF3
7F8000000000000000000CF3
7F8000000000000000000CF3
7F8000000000000000000CF3
7F8000000000000000000CF3
7F8000000000000000000CF3
7F8000000000000000000CF3
7F8000000000000000000CF3
7F8000000000000000000CF3
7F8000000000000000000CF3
7F8000000000000000000CF3
7F8000000000000000000CF3
7F8000000000000000000CF3
6F9000000000000000002EF3
4FC00000000000000006EFF3
0EF300000000000003BFFEF3
07FD200000000015BFFB2CF3
00BFE84200136AEFFC500CF3
0008FFFFFFFFFFFB50000CF3
000027BDEFECA51000000CF3
ENDCHAR
STARTCHAR yacute
ENCODING 253
SWIDTH 911 0
DWIDTH 29 0
BBX 24 29 2 0
BITMAP
0000000000000003B2000000
00000000000002AFF8000000
0000000000019FFC50000000
00000000006EFB4000000000
00000000006A300000000000
000000000000000000000000
000000000000000000000000
2FD0000000000000000007F8
2FD0000000000000000007F8
2FD0000000000000000007F8
2FD0000000000000000007F8
2FD0000000000000000007F8
2FD0000000000000000007F8
1FE0000000000000000007F8
0EF200000000000000001DF8
0BF60000000000000000AFF8
06FC0000000000000009FFF8
01EF70000000000001BFD8F8
006FF800000000005DFD27F8
0008FFE84210137DFFA107F8
00005DFFFFFFFFFFC40007F8
00000049CEFFEB83000009F7
000000000000000000000DF4
000000000000000000007FE0
00000000000000000006FF70
2B6100000000000004BFF900
2FFFB85321011359DFFF7000
04AFFFFFFFFFFFFFFF920000
000148ACEEFFEDB851000000
ENDCHAR
STARTCHAR thorn
ENCODING 254
SWIDTH 787 0
DWIDTH 25 0
BBX 21 22 3 0
BITMAP
6F80000000000000000000
6F80000000000000000000
6F80000000000000000000
6F80000000000000000000
6FFFFFFFFFFFEDB7300000
6FFFFFFFFFFFFFFFFB2000
6F8000000001235AFFD100
6F800000000000002DF900
6F8000000000000003FE00
6F8000000000000000DF30
6F8000000000000000CF40
6F8000000000000000DF30
6F8000000000000003FE00
6F800000000000001CF900
6F80000000000249EFD100
6FFFFFFFFFFFFFFFFB2000
6FFFFFFFFFFFEDB7300000
6F80000000000000000000
6F80000000000000000000
6F80000000000000000000
6F80000000000000000000
6F80000000000000000000
ENDCHAR
STARTCHAR ydieresis
ENCODING 255
SWIDTH 911 0
DWIDTH 29 0
BBX 24 26 2 0
BITMAP
00000002FF3000CF70000000
00000002FF3000CF70000000
000000000000000000000000
000000000000000000000000
2FD0000000000000000007F8
2FD0000000000000000007F8
2FD0000000000000000007F8
2FD0000000000000000007F8
2FD0000000000000000007F8
2FD0000000000000000007F8
1FE0000000000000000007F8
0EF200000000000000001DF8
0BF60000000000000000AFF8
06FC0000000000000009FFF8
01EF70000000000001BFD8F8
006FF800000000005DFD27F8
0008FFE84210137DFFA107F8
00005DFFFFFFFFFFC40007F8
00000049CEFFEB83000009F7
000000000000000000000DF4
000000000000000000007FE0
00000000000000000006FF70
2B6100000000000004BFF900
2FFFB85321011359DFFF7000
04AFFFFFFFFFFFFFFF920000
000148ACEEFFEDB851000000
ENDCHAR
STARTCHAR Amacron
ENCODING 256
SWIDTH 812 0
DWIDTH 26 0
BBX 26 26 0 0
BITMAP
000000004FFFFFFFF500000000
000000004FFFFFFFF500000000
00000000000000000000000000
00000000000000000000000000
000000000006FF600000000000
00000000000DFFE10000000000
00000000006FBAF70000000000
0000000000DF32FE1000000000
0000000006FA009F7000000000
000000001EF2002FE100000000
000000007F900008F700000000
00000001EF200001EE10000000
00000007F90000008F80000000
0000001EE10000001EE1000000
0000007F8000000007F8000000
000001EE1000000001EE100000
000008F700000000006F800000
00001EE100000000000DE10000
00008FFFFFFFFFFFFFFFF90000
0001EFFFFFFFFFFFFFFFFF2000
0008F7000000000000007F9000
001EE1000000000000001EF200
009F800000000000000007F900
02FE100000000000000001EF20
09F80000000000000000007FA0
2FE10000000000000000001EF2
ENDCHAR
STARTCHAR amacron
ENCODING 257
SWIDTH 888 0
DWIDTH 28 0
BBX 23 26 2 0
BITMAP
00000003FFFFFFFF50000000
00000003FFFFFFFF50000000
000000000000000000000000
000000000000000000000000
00000158BDEFFEDA84000000
0027CFFFFFFFFFFFFFD60000
00FFFC86310011358CFFB100
00C7200000000000003BFB00
00000000000000000000AF50
000000000000000000002FB0
000000000000000000000FD0
000000000000000000000EF0
0000000000013579ABCDEFF0
000000158BEFFFFFFFFFFFF0
00006BFFFFFDB98654211EF0
005DFFEA7410000000000EF0
07FFB5000000000000000EF0
5FE500000000000000000EF0
CF6000000000000000000EF0
FF0000000000000000000EF0
FF1000000000000000000EF0
DF7000000000000000018FF0
7FF6000000000000049EFFF0
0BFFD7421012358BEFFD6EF0
008FFFFFFFFFFFFFE9400EF0
00016ADEFFEDB96300000EF0
ENDCHAR
STARTCHAR Abreve
ENCODING 258
SWIDTH 812 0
DWIDTH 26 0
BBX 26 28 0 0
BITMAP
00000003FB000000AF40000000
00000000CFB3003AFC00000000
000000002DFFFFFFE200000000
00000000018DEFD81000000000
00000000000000000000000000
00000000000000000000000000
000000000006FF600000000000
00000000000DFFE10000000000
00000000006FBAF70000000000
0000000000DF32FE1000000000
0000000006FA009F7000000000
000000001EF2002FE100000000
000000007F900008F700000000
00000001EF200001EE10000000
00000007F90000008F80000000
0000001EE10000001EE1000000
0000007F8000000007F8000000
000001EE1000000001EE100000
000008F700000000006F800000
00001EE100000000000DE10000
00008FFFFFFFFFFFFFFFF90000
0001EFFFFFFFFFFFFFFFFF2000
0008F7000000000000007F9000
001EE1000000000000001EF200
009F800000000000000007F900
02FE100000000000000001EF20
09F80000000000000000007FA0
2FE10000000000000000001EF2
ENDCHAR
STARTCHAR abreve
ENCODING 259
SWIDTH 888 0
DWIDTH 28 0
BBX 23 28 2 0
BITMAP
0000002FB0000009F5000000
0000000BFB4103AFD0000000
00000002DFFFFFFE30000000
0000000017CEFD8100000000
000000000000000000000000
000000000000000000000000
00000158BDEFFEDA84000000
0027CFFFFFFFFFFFFFD60000
00FFFC86310011358CFFB100
00C7200000000000003BFB00
00000000000000000000AF50
000000000000000000002FB0
000000000000000000000FD0
000000000000000000000EF0
0000000000013579ABCDEFF0
000000158BEFFFFFFFFFFFF0
00006BFFFFFDB98654211EF0
005DFFEA7410000000000EF0
07FFB5000000000000000EF0
5FE500000000000000000EF0
CF6000000000000000000EF0
FF0000000000000000000EF0
FF1000000000000000000EF0
DF7000000000000000018FF0
7FF6000000000000049EFFF0
0BFFD7421012358BEFFD6EF0
008FFFFFFFFFFFFFE9400EF0
00016ADEFFEDB96300000EF0
ENDCHAR
STARTCHAR Aogonek
ENCODING 260
SWIDTH 812 0
DWIDTH 26 0
BBX 28 28 0 -6
BITMAP
000000000006FF60000000000000
00000000000DFFE1000000000000
00000000006FBAF7000000000000
0000000000DF32FE100000000000
0000000006FA009F700000000000
000000001EF2002FE10000000000
000000007F900008F70000000000
00000001EF200001EE1000000000
00000007F90000008F8000000000
0000001EE10000001EE100000000
0000007F8000000007F800000000
000001EE1000000001EE10000000
000008F700000000006F80000000
00001EE100000000000DE1000000
00008FFFFFFFFFFFFFFFF9000000
0001EFFFFFFFFFFFFFFFFF200000
0008F7000000000000007F900000
001EE1000000000000001EF20000
009F800000000000000007F90000
02FE100000000000000001EF2000
09F80000000000000000007FA000
2FE10000000000000000001EF200
00000000000000000000008F8100
0000000000000000000009F50000
000000000000000000002FA00000
000000000000000000005F700000
000000000000000000002EC30276
0000000000000000000004BEFFF7
ENDCHAR
STARTCHAR aogonek
ENCODING 261
SWIDTH 888 0
DWIDTH 28 0
BBX 26 28 2 -6
BITMAP
00000158BDEFFEDA8400000000
0027CFFFFFFFFFFFFFD6000000
00FFFC86310011358CFFB10000
00C7200000000000003BFB0000
00000000000000000000AF5000
000000000000000000002FB000
000000000000000000000FD000
000000000000000000000EF000
0000000000013579ABCDEFF000
000000158BEFFFFFFFFFFFF000
00006BFFFFFDB98654211EF000
005DFFEA7410000000000EF000
07FFB5000000000000000EF000
5FE500000000000000000EF000
CF6000000000000000000EF000
FF0000000000000000000EF000
FF1000000000000000000EF000
DF7000000000000000019FF000
7FF600000000000014AFFFF000
0BFFD7421012358BFFFD6EF000
008FFFFFFFFFFFFFE9400EF000
00016ADEFFEDB96300000EF000
00000000000000000001BE5000
0000000000000000000CE20000
0000000000000000006F700000
0000000000000000008F400000
0000000000000000005FA20294
00000000000000000005CEFFF4
ENDCHAR
STARTCHAR Cacute
ENCODING 262
SWIDTH 869 0
DWIDTH 28 0
BBX 24 29 2 0
BITMAP
000000000000000018800000
0000000000000007EFE00000
00000000000005DFE8200000
000000000002CFE710000000
000000000001C61000000000
000000000000000000000000
000000000000000000000000
0000000158BDEFEEDA851000
0000029EFFFFFFFFFFFFFB61
00008FFFB85211012469DFF9
001BFF820000000000000388
00BFD3000000000000000000
06FD20000000000000000000
0EF400000000000000000000
5FC000000000000000000000
9F7000000000000000000000
CF4000000000000000000000
DF3000000000000000000000
DF2000000000000000000000
CF4000000000000000000000
9F7000000000000000000000
5FC000000000000000000000
0EF400000000000000000000
06FD20000000000000000000
00BFD2000000000000000000
001BFF820000000000000288
00008FFFB74210012469DFF9
0000029FFFFFFFFFFFFFFC61
0000000159BDEFFEDB851000
ENDCHAR
STARTCHAR cacute
ENCODING 263
SWIDTH 869 0
DWIDTH 28 0
BBX 24 29 2 0
BITMAP
000000000000000018800000
0000000000000007EFE00000
00000000000005DFE9200000
000000000002CFE810000000
000000000000C71000000000
000000000000000000000000
000000000000000000000000
0000000158BDEFEEDA851000
0000029EFFFFFFFFFFFFFB61
00008FFFB85211012469DFF9
001BFF820000000000000388
00BFD3000000000000000000
06FD20000000000000000000
0EF400000000000000000000
5FC000000000000000000000
9F7000000000000000000000
CF4000000000000000000000
DF3000000000000000000000
DF2000000000000000000000
CF4000000000000000000000
9F7000000000000000000000
5FC000000000000000000000
0EF400000000000000000000
06FD20000000000000000000
00BFD2000000000000000000
001BFF820000000000000288
00008FFFB74210012469DFF9
0000029FFFFFFFFFFFFFFC61
0000000159BDEFFEDB851000
ENDCHAR
STARTCHAR Ccircumflex
ENCODING 264
SWIDTH 869 0
DWIDTH 28 0
BBX 24 29 2 0
BITMAP
0000000000004D6000000000
00000000001AFFFB20000000
0000000005EFA38FF7000000
00000002BFB30002AFC30000
00000002C400000003B50000
000000000000000000000000
000000000000000000000000
0000000158BDEFEEDA851000
0000029EFFFFFFFFFFFFFB61
00008FFFB85211012469DFF9
001BFF820000000000000388
00BFD3000000000000000000
06FD20000000000000000000
0EF400000000000000000000
5FC000000000000000000000
9F7000000000000000000000
CF4000000000000000000000
DF3000000000000000000000
DF2000000000000000000000
CF4000000000000000000000
9F7000000000000000000000
5FC000000000000000000000
0EF400000000000000000000
06FD20000000000000000000
00BFD2000000000000000000
001BFF820000000000000288
00008FFFB74210012469DFF9
0000029FFFFFFFFFFFFFFC61
0000000159BDEFFEDB851000
ENDCHAR
STARTCHAR ccircumflex
ENCODING 265
SWIDTH 869 0
DWIDTH 28 0
BBX 24 29 2 0
BITMAP
0000000000004C7000000000
000000000019FFFC30000000
0000000005EFA38FF8000000
00000001BFB300029FD30000
00000002C400000003B50000
000000000000000000000000
000000000000000000000000
0000000158BDEFEEDA851000
0000029EFFFFFFFFFFFFFB61
00008FFFB85211012469DFF9
001BFF820000000000000388
00BFD3000000000000000000
06FD20000000000000000000
0EF400000000000000000000
5FC000000000000000000000
9F7000000000000000000000
CF4000000000000000000000
DF3000000000000000000000
DF2000000000000000000000
CF4000000000000000000000
9F7000000000000000000000
5FC000000000000000000000
0EF400000000000000000000
06FD20000000000000000000
00BFD2000000000000000000
001BFF820000000000000288
00008FFFB74210012469DFF9
0000029FFFFFFFFFFFFFFC61
0000000159BDEFFEDB851000
ENDCHAR
STARTCHAR Cdotaccent
ENCODING 266
SWIDTH 869 0
DWIDTH 28 0
BBX 24 26 2 0
BITMAP
0000000000009FC000000000
0000000000009FC000000000
000000000000000000000000
000000000000000000000000
0000000158BDEFEEDA851000
0000029EFFFFFFFFFFFFFB61
00008FFFB85211012469DFF9
001BFF820000000000000388
00BFD3000000000000000000
06FD20000000000000000000
0EF400000000000000000000
5FC000000000000000000000
9F7000000000000000000000
CF4000000000000000000000
DF3000000000000000000000
DF2000000000000000000000
CF4000000000000000000000
9F7000000000000000000000
5FC000000000000000000000
0EF400000000000000000000
06FD20000000000000000000
00BFD2000000000000000000
001BFF820000000000000288
00008FFFB74210012469DFF9
0000029FFFFFFFFFFFFFFC61
0000000159BDEFFEDB851000
ENDCHAR
STARTCHAR cdotaccent
ENCODING 267
SWIDTH 869 0
DWIDTH 28 0
BBX 24 26 2 0
BITMAP
0000000000009FC000000000
0000000000009FC000000000
000000000000000000000000
000000000000000000000000
0000000158BDEFEEDA851000
0000029EFFFFFFFFFFFFFB61
00008FFFB85211012469DFF9
001BFF820000000000000388
00BFD3000000000000000000
06FD20000000000000000000
0EF400000000000000000000
5FC000000000000000000000
9F7000000000000000000000
CF4000000000000000000000
DF3000000000000000000000
DF2000000000000000000000
CF4000000000000000000000
9F7000000000000000000000
5FC000000000000000000000
0EF400000000000000000000
06FD20000000000000000000
00BFD2000000000000000000
001BFF820000000000000288
00008FFFB74210012469DFF9
0000029FFFFFFFFFFFFFFC61
0000000159BDEFFEDB851000
ENDCHAR
STARTCHAR Ccaron
ENCODING 268
SWIDTH 869 0
DWIDTH 28 0
BBX 24 29 2 0
BITMAP
00000002C400000003B40000
00000002BFB300029FC30000
0000000006EFA38FF7000000
00000000001AFFFC20000000
0000000000005D6000000000
000000000000000000000000
000000000000000000000000
0000000158BDEFEEDA851000
0000029EFFFFFFFFFFFFFB61
00008FFFB85211012469DFF9
001BFF820000000000000388
00BFD3000000000000000000
06FD20000000000000000000
0EF400000000000000000000
5FC000000000000000000000
9F7000000000000000000000
CF4000000000000000000000
DF3000000000000000000000
DF2000000000000000000000
CF4000000000000000000000
9F7000000000000000000000
5FC000000000000000000000
0EF400000000000000000000
06FD20000000000000000000
00BFD2000000000000000000
001BFF820000000000000288
00008FFFB74210012469DFF9
0000029FFFFFFFFFFFFFFC61
0000000159BDEFFEDB851000
ENDCHAR
STARTCHAR ccaron
ENCODING 269
SWIDTH 869 0
DWIDTH 28 0
BBX 24 29 2 0
BITMAP
00000002C400000002A50000
00000002BFB300029FD30000
0000000005EFA38EF8000000
00000000001AFFFC30000000
0000000000004C7000000000
000000000000000000000000
000000000000000000000000
0000000158BDEFEEDA851000
0000029EFFFFFFFFFFFFFB61
00008FFFB85211012469DFF9
001BFF820000000000000388
00BFD3000000000000000000
06FD20000000000000000000
0EF400000000000000000000
5FC000000000000000000000
9F7000000000000000000000
CF4000000000000000000000
DF3000000000000000000000
DF2000000000000000000000
CF4000000000000000000000
9F7000000000000000000000
5FC000000000000000000000
0EF400000000000000000000
06FD20000000000000000000
00BFD2000000000000000000
001BFF820000000000000288
00008FFFB74210012469DFF9
0000029FFFFFFFFFFFFFFC61
0000000159BDEFFEDB851000
ENDCHAR
STARTCHAR Dcaron
ENCODING 270
SWIDTH 910 0
DWIDTH 29 0
BBX 24 29 3 0
BITMAP
0007A200000005C100000000
0004DF810004CFA100000000
000019FE73BFD40000000000
0000004DFFF9100000000000
000000008C30000000000000
000000000000000000000000
000000000000000000000000
6FFFFFFFFFFFEECA72000000
6FFFFFFFFFFFFFFFFFC40000
6F80000000001236AEFF9000
6F80000000000000007EFA00
6F800000000000000003EF60
6F8000000000000000005FE1
6F8000000000000000000CF6
6F80000000000000000007FA
6F80000000000000000003FD
6F80000000000000000001FF
6F80000000000000000000FF
6F80000000000000000000FF
6F80000000000000000001FE
6F80000000000000000003FD
6F80000000000000000007FA
6F8000000000000000000CF5
6F8000000000000000006FE1
6F800000000000000004EF70
6F80000000000000007FFA00
6F800000000011359EFFA000
6FFFFFFFFFFFFFFFFFC50000
6FFFFFFFFFFFEDCA73000000
ENDCHAR
STARTCHAR dcaron
ENCODING 271
SWIDTH 910 0
DWIDTH 29 0
BBX 24 29 3 0
BITMAP
0006A200000005C100000000
0004DF810004CFA100000000
000019FE73AFD50000000000
0000003CFFF9100000000000
000000007C40000000000000
000000000000000000000000
000000000000000000000000
6FFFFFFFFFFFEECA72000000
6FFFFFFFFFFFFFFFFFC40000
6F80000000001236AEFF9000
6F80000000000000007EFA00
6F800000000000000003EF60
6F8000000000000000005FE1
6F8000000000000000000CF6
6F80000000000000000007FA
6F80000000000000000003FD
6F80000000000000000001FF
6F80000000000000000000FF
6F80000000000000000000FF
6F80000000000000000001FE
6F80000000000000000003FD
6F80000000000000000007FA
6F8000000000000000000CF5
6F8000000000000000006FE1
6F800000000000000004EF70
6F80000000000000007FFA00
6F800000000011359EFFA000
6FFFFFFFFFFFFFFFFFC50000
6FFFFFFFFFFFEDCA73000000
ENDCHAR
STARTCHAR Dcroat
ENCODING 272
SWIDTH 910 0
DWIDTH 29 0
BBX 27 22 0 0
BITMAP
0006FFFFFFFFFEEDCB8510000000
0006FFFFFFFFFFFFFFFFFA300000
0006F80000000112469DFFF90000
0006F8000000000000003BFFA000
0006F800000000000000007FF600
0006F8000000000000000008FE10
0006F8000000000000000000DF60
0006F80000000000000000008FA0
0006F80000000000000000003FD0
0006F80000000000000000001FE0
8FFFFFFFFFFFFF50000000000FF0
8FFFFFFFFFFFFF50000000000FF0
0006F80000000000000000001FE0
0006F80000000000000000003FD0
0006F80000000000000000007FA0
0006F8000000000000000000CF60
0006F8000000000000000006FE10
0006F800000000000000004EF600
0006F80000000000000018FFA000
0006F80000000011357AFFF90000
0006FFFFFFFFFFFFFFFFFA300000
0006FFFFFFFFFEEDCB8510000000
ENDCHAR
STARTCHAR dcroat
ENCODING 273
SWIDTH 910 0
DWIDTH 29 0
BBX 27 22 0 0
BITMAP
0006FFFFFFFFFEEDCB8510000000
0006FFFFFFFFFFFFFFFFFA300000
0006F80000000112469DFFF90000
0006F8000000000000003BFFA000
0006F800000000000000007FF600
0006F8000000000000000008FE10
0006F8000000000000000000DF60
0006F80000000000000000008FA0
0006F80000000000000000003FD0
0006F80000000000000000001FE0
8FFFFFFFFFFFFF50000000000FF0
8FFFFFFFFFFFFF50000000000FF0
0006F80000000000000000001FE0
0006F80000000000000000003FD0
0006F80000000000000000007FA0
0006F8000000000000000000CF60
0006F8000000000000000006FE10
0006F800000000000000004EF600
0006F80000000000000018FFA000
0006F80000000011357AFFF90000
0006FFFFFFFFFFFFFFFFFA300000
0006FFFFFFFFFEEDCB8510000000
ENDCHAR
STARTCHAR Emacron
ENCODING 274
SWIDTH 754 0
DWIDTH 24 0
BBX 19 26 3 0
BITMAP
00000EFFFFFFFA000000
00000EFFFFFFFA000000
00000000000000000000
00000000000000000000
6FFFFFFFFFFFFFFFFF80
6FFFFFFFFFFFFFFFFF80
6FB00000000000000000
6FB00000000000000000
6FB00000000000000000
6FB00000000000000000
6FB00000000000000000
6FB00000000000000000
6FB00000000000000000
6FFFFFFFFFFFFFFFFB00
6FFFFFFFFFFFFFFFFB00
6FB00000000000000000
6FB00000000000000000
6FB00000000000000000
6FB00000000000000000
6FB00000000000000000
6FB00000000000000000
6FB00000000000000000
6FB00000000000000000
6FB00000000000000000
6FFFFFFFFFFFFFFFFFB0
6FFFFFFFFFFFFFFFFFB0
ENDCHAR
STARTCHAR emacron
ENCODING 275
SWIDTH 910 0
DWIDTH 29 0
BBX 25 26 2 0
BITMAP
00000000AFFFFFFFE000000000
00000000AFFFFFFFE000000000
00000000000000000000000000
00000000000000000000000000
000000026ACEFEDC8500000000
000003AFFFFFFFFFFFE7100000
00008FFE963101237BFFD30000
000BFF8100000000003BFE3000
00AFE3000000000000007FD100
05FE200000000000000008F900
0DF6000000000000000000DF20
4FD00000000000000000007F60
9F700000000000000000002FA0
BF300000000000000000000FD0
DFFFFFFFFFFFFFFFFFFFFFFFE0
DFFFFFFFFFFFFFFFFFFFFFFFF0
BF300000000000000000000000
9F600000000000000000000000
4FC00000000000000000000000
0EF40000000000000000000000
05FD1000000000000000000000
00AFD300000000000000000000
000BFF92000000000000039300
00007FFFC85211012469EFF400
0000029EFFFFFFFFFFFFFA4000
0000000158BDEFFEDB84100000
ENDCHAR
STARTCHAR Ebreve
ENCODING 276
SWIDTH 754 0
DWIDTH 24 0
BBX 19 28 3 0
BITMAP
0000DE2000005F900000
00006FD51027EF300000
00000AFFFFFFF6000000
0000005BEFEA30000000
00000000000000000000
00000000000000000000
6FFFFFFFFFFFFFFFFF80
6FFFFFFFFFFFFFFFFF80
6FB00000000000000000
6FB00000000000000000
6FB00000000000000000
6FB00000000000000000
6FB00000000000000000
6FB00000000000000000
6FB00000000000000000
6FFFFFFFFFFFFFFFFB00
6FFFFFFFFFFFFFFFFB00
6FB00000000000000000
6FB00000000000000000
6FB00000000000000000
6FB00000000000000000
6FB00000000000000000
6FB00000000000000000
6FB00000000000000000
6FB00000000000000000
6FB00000000000000000
6FFFFFFFFFFFFFFFFFB0
6FFFFFFFFFFFFFFFFFB0
ENDCHAR
STARTCHAR ebreve
ENCODING 277
SWIDTH 910 0
DWIDTH 29 0
BBX 25 28 2 0
BITMAP
00000009F5000002ED00000000
00000003FE72015DF600000000
000000007FFFFFFFA000000000
0000000003AEFEB50000000000
00000000000000000000000000
00000000000000000000000000
000000026ACEFEDC8500000000
000003AFFFFFFFFFFFE7100000
00008FFE963101237BFFD30000
000BFF8100000000003BFE3000
00AFE3000000000000007FD100
05FE200000000000000008F900
0DF6000000000000000000DF20
4FD00000000000000000007F60
9F700000000000000000002FA0
BF300000000000000000000FD0
DFFFFFFFFFFFFFFFFFFFFFFFE0
DFFFFFFFFFFFFFFFFFFFFFFFF0
BF300000000000000000000000
9F600000000000000000000000
4FC00000000000000000000000
0EF40000000000000000000000
05FD1000000000000000000000
00AFD300000000000000000000
000BFF92000000000000039300
00007FFFC85211012469EFF400
0000029EFFFFFFFFFFFFFA4000
0000000158BDEFFEDB84100000
ENDCHAR
STARTCHAR Edotaccent
ENCODING 278
SWIDTH 754 0
DWIDTH 24 0
BBX 19 26 3 0
BITMAP
00000000CF9000000000
00000000CF9000000000
00000000000000000000
00000000000000000000
6FFFFFFFFFFFFFFFFF80
6FFFFFFFFFFFFFFFFF80
6FB00000000000000000
6FB00000000000000000
6FB00000000000000000
6FB00000000000000000
6FB00000000000000000
6FB00000000000000000
6FB00000000000000000
6FFFFFFFFFFFFFFFFB00
6FFFFFFFFFFFFFFFFB00
6FB00000000000000000
6FB00000000000000000
6FB00000000000000000
6FB00000000000000000
6FB00000000000000000
6FB00000000000000000
6FB00000000000000000
6FB00000000000000000
6FB00000000000000000
6FFFFFFFFFFFFFFFFFB0
6FFFFFFFFFFFFFFFFFB0
ENDCHAR
STARTCHAR edotaccent
ENCODING 279
SWIDTH 910 0
DWIDTH 29 0
BBX 25 26 2 0
BITMAP
000000000009FC000000000000
000000000009FC000000000000
00000000000000000000000000
00000000000000000000000000
000000026ACEFEDC8500000000
000003AFFFFFFFFFFFE7100000
00008FFE963101237BFFD30000
000BFF8100000000003BFE3000
00AFE3000000000000007FD100
05FE200000000000000008F900
0DF6000000000000000000DF20
4FD00000000000000000007F60
9F700000000000000000002FA0
BF300000000000000000000FD0
DFFFFFFFFFFFFFFFFFFFFFFFE0
DFFFFFFFFFFFFFFFFFFFFFFFF0
BF300000000000000000000000
9F600000000000000000000000
4FC00000000000000000000000
0EF40000000000000000000000
05FD1000000000000000000000
00AFD300000000000000000000
000BFF92000000000000039300
00007FFFC85211012469EFF400
0000029EFFFFFFFFFFFFFA4000
0000000158BDEFFEDB84100000
ENDCHAR
STARTCHAR Eogonek
ENCODING 280
SWIDTH 754 0
DWIDTH 24 0
BBX 19 28 3 -6
BITMAP
6FFFFFFFFFFFFFFFFF80
6FFFFFFFFFFFFFFFFF80
6FB00000000000000000
6FB00000000000000000
6FB00000000000000000
6FB00000000000000000
6FB00000000000000000
6FB00000000000000000
6FB00000000000000000
6FFFFFFFFFFFFFFFFB00
6FFFFFFFFFFFFFFFFB00
6FB00000000000000000
6FB00000000000000000
6FB00000000000000000
6FB00000000000000000
6FB00000000000000000
6FB00000000000000000
6FB00000000000000000
6FB00000000000000000
6FB00000000000000000
6FFFFFFFFFFFFFFFFFB0
6FFFFFFFFFFFFFFFFFB0
00000000000006ED6200
0000000000006FB10000
000000000000EE100000
000000000001FB000000
000000000000DE411590
0000000000002ADFFFB0
ENDCHAR
STARTCHAR eogonek
ENCODING 281
SWIDTH 910 0
DWIDTH 29 0
BBX 25 27 2 -5
BITMAP
000000026ACEFEDC8500000000
000003AFFFFFFFFFFFE7100000
00008FFE963101237BFFD30000
000BFF8100000000003BFE3000
00AFE3000000000000007FD100
05FE200000000000000008F900
0DF6000000000000000000DF20
4FD00000000000000000007F60
9F700000000000000000002FA0
BF300000000000000000000FD0
DFFFFFFFFFFFFFFFFFFFFFFFE0
DFFFFFFFFFFFFFFFFFFFFFFFF0
BF300000000000000000000000
9F600000000000000000000000
4FC00000000000000000000000
0EF40000000000000000000000
05FD1000000000000000000000
00AFD300000000000000000000
000BFF92000000000000039300
00007FFFC85211012469EFF400
0000029EFFFFFFFFFFFFFE7000
0000000158BDEFFEDB8EE30000
0000000000000000009F400000
000000000000000001FB000000
000000000000000003F9000000
000000000000000000DE401680
0000000000000000002AEFFF90
ENDCHAR
STARTCHAR Ecaron
ENCODING 282
SWIDTH 754 0
DWIDTH 24 0
BBX 19 29 3 0
BITMAP
0005B300000004C20000
0003DF920003BFB20000
000008FE83AFE6000000
0000003CFFFA10000000
000000006D4000000000
00000000000000000000
00000000000000000000
6FFFFFFFFFFFFFFFFF80
6FFFFFFFFFFFFFFFFF80
6FB00000000000000000
6FB00000000000000000
6FB00000000000000000
6FB00000000000000000
6FB00000000000000000
6FB00000000000000000
6FB00000000000000000
6FFFFFFFFFFFFFFFFB00
6FFFFFFFFFFFFFFFFB00
6FB00000000000000000
6FB00000000000000000
6FB00000000000000000
6FB00000000000000000
6FB00000000000000000
6FB00000000000000000
6FB00000000000000000
6FB00000000000000000
6FB00000000000000000
6FFFFFFFFFFFFFFFFFB0
6FFFFFFFFFFFFFFFFFB0
ENDCHAR
STARTCHAR ecaron
ENCODING 283
SWIDTH 910 0
DWIDTH 29 0
BBX 25 29 2 0
BITMAP
0000002C400000002A50000000
0000002BFB300029FD30000000
000000005EFA38EF8000000000
0000000001AFFFC30000000000
000000000004C7000000000000
00000000000000000000000000
00000000000000000000000000
000000026ACEFEDC8500000000
000003AFFFFFFFFFFFE7100000
00008FFE963101237BFFD30000
000BFF8100000000003BFE3000
00AFE3000000000000007FD100
05FE200000000000000008F900
0DF6000000000000000000DF20
4FD00000000000000000007F60
9F700000000000000000002FA0
BF300000000000000000000FD0
DFFFFFFFFFFFFFFFFFFFFFFFE0
DFFFFFFFFFFFFFFFFFFFFFFFF0
BF300000000000000000000000
9F600000000000000000000000
4FC00000000000000000000000
0EF40000000000000000000000
05FD1000000000000000000000
00AFD300000000000000000000
000BFF92000000000000039300
00007FFFC85211012469EFF400
0000029EFFFFFFFFFFFFFA4000
0000000158BDEFFEDB84100000
ENDCHAR
STARTCHAR Gcircumflex
ENCODING 284
SWIDTH 910 0
DWIDTH 29 0
BBX 25 29 2 0
BITMAP
0000000000002B910000000000
000000000007FFFD4000000000
0000000003CFC46EFA10000000
000000008FD500018EE5000000
00000000B60000000198000000
00000000000000000000000000
00000000000000000000000000
0000000047ACEFFEDC96200000
0000028EFFFFFFFFFFFFFD8300
00007EFFD85321012358CFFF00
000AFFA3000000000000016C00
00AFE400000000000000000000
06FE3000000000000000000000
0EF50000000000000000000000
5FC00000000000000000000000
9F700000000000000000000000
CF400000000000000000000000
DF300000000000000000000000
DF300000000003FFFFFFFFFF80
CF400000000003FFFFFFFFFF80
9F800000000000000000007F80
5FD00000000000000000007F80
1EF60000000000000000007F80
06FE3000000000000000007F80
00AFE500000000000000007F80
000AFFB4000000000000007F80
00007EFFD963210012468BEF80
0000029EFFFFFFFFFFFFFFEA30
0000000047ADEEFEEDB9630000
ENDCHAR
STARTCHAR gcircumflex
ENCODING 285
SWIDTH 910 0
DWIDTH 29 0
BBX 25 29 2 0
BITMAP
0000000000002B910000000000
000000000007FFFD4000000000
0000000003CFC46EFA10000000
000000008FD500018EE5000000
00000000B60000000198000000
00000000000000000000000000
00000000000000000000000000
0000000047ACEFFEDC96200000
0000028EFFFFFFFFFFFFFD8300
00007EFFD85321012358CFFF00
000AFFA3000000000000016C00
00AFE400000000000000000000
06FE3000000000000000000000
0EF50000000000000000000000
5FC00000000000000000000000
9F700000000000000000000000
CF400000000000000000000000
DF300000000000000000000000
DF300000000003FFFFFFFFFF80
CF400000000003FFFFFFFFFF80
9F800000000000000000007F80
5FD00000000000000000007F80
1EF60000000000000000007F80
06FE3000000000000000007F80
00AFE500000000000000007F80
000AFFB4000000000000007F80
00007EFFD963210012468BEF80
0000029EFFFFFFFFFFFFFFEA30
0000000047ADEEFEEDB9630000
ENDCHAR
STARTCHAR Gbreve
ENCODING 286
SWIDTH 910 0
DWIDTH 29 0
BBX 25 28 2 0
BITMAP
000000006F8000001CF1000000
000000001EF92014CFA0000000
0000000004EFFFFFFC10000000
000000000029DFEC7000000000
00000000000000000000000000
00000000000000000000000000
0000000047ACEFFEDC96200000
0000028EFFFFFFFFFFFFFD8300
00007EFFD85321012358CFFF00
000AFFA3000000000000016C00
00AFE400000000000000000000
06FE3000000000000000000000
0EF50000000000000000000000
5FC00000000000000000000000
9F700000000000000000000000
CF400000000000000000000000
DF300000000000000000000000
DF300000000003FFFFFFFFFF80
CF400000000003FFFFFFFFFF80
9F800000000000000000007F80
5FD00000000000000000007F80
1EF60000000000000000007F80
06FE3000000000000000007F80
00AFE500000000000000007F80
000AFFB4000000000000007F80
00007EFFD963210012468BEF80
0000029EFFFFFFFFFFFFFFEA30
0000000047ADEEFEEDB9630000
ENDCHAR
STARTCHAR gbreve
ENCODING 287
SWIDTH 910 0
DWIDTH 29 0
BBX 25 28 2 0
BITMAP
000000006F8000001CF1000000
000000001EF92014CFA0000000
0000000004EFFFFFFC10000000
000000000029DFEC7000000000
00000000000000000000000000
00000000000000000000000000
0000000047ACEFFEDC96200000
0000028EFFFFFFFFFFFFFD8300
00007EFFD85321012358CFFF00
000AFFA3000000000000016C00
00AFE400000000000000000000
06FE3000000000000000000000
0EF50000000000000000000000
5FC00000000000000000000000
9F700000000000000000000000
CF400000000000000000000000
DF300000000000000000000000
DF300000000003FFFFFFFFFF80
CF400000000003FFFFFFFFFF80
9F800000000000000000007F80
5FD00000000000000000007F80
1EF60000000000000000007F80
06FE3000000000000000007F80
00AFE500000000000000007F80
000AFFB4000000000000007F80
00007EFFD963210012468BEF80
0000029EFFFFFFFFFFFFFFEA30
0000000047ADEEFEEDB9630000
ENDCHAR
STARTCHAR Gdotaccent
ENCODING 288
SWIDTH 910 0
DWIDTH 29 0
BBX 25 26 2 0
BITMAP
0000000000006FF10000000000
0000000000006FF10000000000
00000000000000000000000000
00000000000000000000000000
0000000047ACEFFEDC96200000
0000028EFFFFFFFFFFFFFD8300
00007EFFD85321012358CFFF00
000AFFA3000000000000016C00
00AFE400000000000000000000
06FE3000000000000000000000
0EF50000000000000000000000
5FC00000000000000000000000
9F700000000000000000000000
CF400000000000000000000000
DF300000000000000000000000
DF300000000003FFFFFFFFFF80
CF400000000003FFFFFFFFFF80
9F800000000000000000007F80
5FD00000000000000000007F80
1EF60000000000000000007F80
06FE3000000000000000007F80
00AFE500000000000000007F80
000AFFB4000000000000007F80
00007EFFD963210012468BEF80
0000029EFFFFFFFFFFFFFFEA30
0000000047ADEEFEEDB9630000
ENDCHAR
STARTCHAR gdotaccent
ENCODING 289
SWIDTH 910 0
DWIDTH 29 0
BBX 25 26 2 0
BITMAP
0000000000006FF10000000000
0000000000006FF10000000000
00000000000000000000000000
00000000000000000000000000
0000000047ACEFFEDC96200000
0000028EFFFFFFFFFFFFFD8300
00007EFFD85321012358CFFF00
000AFFA3000000000000016C00
00AFE400000000000000000000
06FE3000000000000000000000
0EF50000000000000000000000
5FC00000000000000000000000
9F700000000000000000000000
CF400000000000000000000000
DF300000000000000000000000
DF300000000003FFFFFFFFFF80
CF400000000003FFFFFFFFFF80
9F800000000000000000007F80
5FD00000000000000000007F80
1EF60000000000000000007F80
06FE3000000000000000007F80
00AFE500000000000000007F80
000AFFB4000000000000007F80
00007EFFD963210012468BEF80
0000029EFFFFFFFFFFFFFFEA30
0000000047ADEEFEEDB9630000
ENDCHAR
STARTCHAR Gcommaaccent
ENCODING 290
SWIDTH 910 0
DWIDTH 29 0
BBX 25 28 2 -6
BITMAP
0000000047ACEFFEDC96200000
0000028EFFFFFFFFFFFFFD8300
00007EFFD85321012358CFFF00
000AFFA3000000000000016C00
00AFE400000000000000000000
06FE3000000000000000000000
0EF50000000000000000000000
5FC00000000000000000000000
9F700000000000000000000000
CF400000000000000000000000
DF300000000000000000000000
DF300000000003FFFFFFFFFF80
CF400000000003FFFFFFFFFF80
9F800000000000000000007F80
5FD00000000000000000007F80
1EF60000000000000000007F80
06FE3000000000000000007F80
00AFE500000000000000007F80
000AFFB4000000000000007F80
00007EFFD963210012468BEF80
0000029EFFFFFFFFFFFFFFEA30
0000000047ADEEFEEDB9630000
00000000000000000000000000
00000000000000000000000000
0000000000000CF60000000000
0000000000000EF10000000000
0000000000001FB00000000000
0000000000004F600000000000
ENDCHAR
STARTCHAR gcommaaccent
ENCODING 291
SWIDTH 910 0
DWIDTH 29 0
BBX 25 28 2 -6
BITMAP
0000000047ACEFFEDC96200000
0000028EFFFFFFFFFFFFFD8300
00007EFFD85321012358CFFF00
000AFFA3000000000000016C00
00AFE400000000000000000000
06FE3000000000000000000000
0EF50000000000000000000000
5FC00000000000000000000000
9F700000000000000000000000
CF400000000000000000000000
DF300000000000000000000000
DF300000000003FFFFFFFFFF80
CF400000000003FFFFFFFFFF80
9F800000000000000000007F80
5FD00000000000000000007F80
1EF60000000000000000007F80
06FE3000000000000000007F80
00AFE500000000000000007F80
000AFFB4000000000000007F80
00007EFFD963210012468BEF80
0000029EFFFFFFFFFFFFFFEA30
0000000047ADEEFEEDB9630000
00000000000000000000000000
00000000000000000000000000
0000000000000CF60000000000
0000000000000EF10000000000
0000000000001FB00000000000
0000000000004F600000000000
ENDCHAR
STARTCHAR Hcircumflex
ENCODING 292
SWIDTH 949 0
DWIDTH 30 0
BBX 24 29 3 0
BITMAP
000000000018C30000000000
0000000004DFFF8000000000
000000019FE74BFD40000000
0000005EE810005CF9100000
00000079200000006C000000
000000000000000000000000
000000000000000000000000
6F80000000000000000003FB
6F80000000000000000003FB
6F80000000000000000003FB
6F80000000000000000003FB
6F80000000000000000003FB
6F80000000000000000003FB
6F80000000000000000003FB
6F80000000000000000003FB
6F80000000000000000003FB
6FFFFFFFFFFFFFFFFFFFFFFB
6FFFFFFFFFFFFFFFFFFFFFFB
6F80000000000000000003FB
6F80000000000000000003FB
6F80000000000000000003FB
6F80000000000000000003FB
6F80000000000000000003FB
6F80000000000000000003FB
6F80000000000000000003FB
6F80000000000000000003FB
6F80000000000000000003FB
6F80000000000000000003FB
6F80000000000000000003FB
ENDCHAR
STARTCHAR hcircumflex
ENCODING 293
SWIDTH 949 0
DWIDTH 30 0
BBX 24 29 3 0
BITMAP
000000000018C30000000000
0000000004DFFF8000000000
000000019FE74BFD40000000
0000005EE810005CF9100000
00000079200000006C000000
000000000000000000000000
000000000000000000000000
6F80000000000000000003FB
6F80000000000000000003FB
6F80000000000000000003FB
6F80000000000000000003FB
6F80000000000000000003FB
6F80000000000000000003FB
6F80000000000000000003FB
6F80000000000000000003FB
6F80000000000000000003FB
6FFFFFFFFFFFFFFFFFFFFFFB
6FFFFFFFFFFFFFFFFFFFFFFB
6F80000000000000000003FB
6F80000000000000000003FB
6F80000000000000000003FB
6F80000000000000000003FB
6F80000000000000000003FB
6F80000000000000000003FB
6F80000000000000000003FB
6F80000000000000000003FB
6F80000000000000000003FB
6F80000000000000000003FB
6F80000000000000000003FB
ENDCHAR
STARTCHAR Hbar
ENCODING 294
SWIDTH 949 0
DWIDTH 30 0
BBX 30 22 0 0
BITMAP
0006F80000000000000000003FB000
0006F80000000000000000003FB000
0006F80000000000000000003FB000
0006F80000000000000000003FB000
2FFFFFFFFFFFFFFFFFFFFFFFFFFFF8
2FFFFFFFFFFFFFFFFFFFFFFFFFFFF8
0006F80000000000000000003FB000
0006F80000000000000000003FB000
0006F80000000000000000003FB000
0006FFFFFFFFFFFFFFFFFFFFFFB000
0006FFFFFFFFFFFFFFFFFFFFFFB000
0006F80000000000000000003FB000
0006F80000000000000000003FB000
0006F80000000000000000003FB000
0006F80000000000000000003FB000
0006F80000000000000000003FB000
0006F80000000000000000003FB000
0006F80000000000000000003FB000
0006F80000000000000000003FB000
0006F80000000000000000003FB000
0006F80000000000000000003FB000
0006F80000000000000000003FB000
ENDCHAR
STARTCHAR hbar
ENCODING 295
SWIDTH 949 0
DWIDTH 30 0
BBX 30 22 0 0
BITMAP
0006F80000000000000000003FB000
0006F80000000000000000003FB000
0006F80000000000000000003FB000
0006F80000000000000000003FB000
2FFFFFFFFFFFFFFFFFFFFFFFFFFFF8
2FFFFFFFFFFFFFFFFFFFFFFFFFFFF8
0006F80000000000000000003FB000
0006F80000000000000000003FB000
0006F80000000000000000003FB000
0006FFFFFFFFFFFFFFFFFFFFFFB000
0006FFFFFFFFFFFFFFFFFFFFFFB000
0006F80000000000000000003FB000
0006F80000000000000000003FB000
0006F80000000000000000003FB000
0006F80000000000000000003FB000
0006F80000000000000000003FB000
0006F80000000000000000003FB000
0006F80000000000000000003FB000
0006F80000000000000000003FB000
0006F80000000000000000003FB000
0006F80000000000000000003FB000
0006F80000000000000000003FB000
ENDCHAR
STARTCHAR Itilde
ENCODING 296
SWIDTH 287 0
DWIDTH 9 0
BBX 12 27 -1 0
BITMAP
08EEC84119F1
7FFFFFFFFFB0
CC1148CEFB10
000000000000
000000000000
00006F800000
00006F800000
00006F800000
00006F800000
00006F800000
00006F800000
00006F800000
00006F800000
00006F800000
00006F800000
00006F800000
00006F800000
00006F800000
00006F800000
00006F800000
00006F800000
00006F800000
00006F800000
00006F800000
00006F800000
00006F800000
00006F800000
ENDCHAR
STARTCHAR itilde
ENCODING 297
SWIDTH 287 0
DWIDTH 9 0
BBX 12 27 -1 0
BITMAP
08EEC85119F1
6FFFFFFFFFB0
CD2148CEFB10
000000000000
000000000000
00006F800000
00006F800000
00006F800000
00006F800000
00006F800000
00006F800000
00006F800000
00006F800000
00006F800000
00006F800000
00006F800000
00006F800000
00006F800000
00006F800000
00006F800000
00006F800000
00006F800000
00006F800000
00006F800000
00006F800000
00006F800000
00006F800000
ENDCHAR
STARTCHAR Imacron
ENCODING 298
SWIDTH 287 0
DWIDTH 9 0
BBX 9 26 0 0
BITMAP
BFFFFFFFD0
BFFFFFFFD0
0000000000
0000000000
0006F80000
0006F80000
0006F80000
0006F80000
0006F80000
0006F80000
0006F80000
0006F80000
0006F80000
0006F80000
0006F80000
0006F80000
0006F80000
0006F80000
0006F80000
0006F80000
0006F80000
0006F80000
0006F80000
0006F80000
0006F80000
0006F80000
ENDCHAR
STARTCHAR imacron
ENCODING 299
SWIDTH 287 0
DWIDTH 9 0
BBX 9 26 0 0
BITMAP
AFFFFFFFE0
AFFFFFFFE0
0000000000
0000000000
0006F80000
0006F80000
0006F80000
0006F80000
0006F80000
0006F80000
0006F80000
0006F80000
0006F80000
0006F80000
0006F80000
0006F80000
0006F80000
0006F80000
0006F80000
0006F80000
0006F80000
0006F80000
0006F80000
0006F80000
0006F80000
0006F80000
ENDCHAR
STARTCHAR Ibreve
ENCODING 300
SWIDTH 287 0
DWIDTH 9 0
BBX 11 28 -1 0
BITMAP
AF4000002EC0
3FE72016DF60
07FFFFFFF900
004AEFEB5000
000000000000
000000000000
00006F800000
00006F800000
00006F800000
00006F800000
00006F800000
00006F800000
00006F800000
00006F800000
00006F800000
00006F800000
00006F800000
00006F800000
00006F800000
00006F800000
00006F800000
00006F800000
00006F800000
00006F800000
00006F800000
00006F800000
00006F800000
00006F800000
ENDCHAR
STARTCHAR ibreve
ENCODING 301
SWIDTH 287 0
DWIDTH 9 0
BBX 11 28 -1 0
BITMAP
9F5000002ED0
3FE72015DF60
07FFFFFFFA00
003AEFEB5000
000000000000
000000000000
00006F800000
00006F800000
00006F800000
00006F800000
00006F800000
00006F800000
00006F800000
00006F800000
00006F800000
00006F800000
00006F800000
00006F800000
00006F800000
00006F800000
00006F800000
00006F800000
00006F800000
00006F800000
00006F800000
00006F800000
00006F800000
00006F800000
ENDCHAR
STARTCHAR Iogonek
ENCODING 302
SWIDTH 287 0
DWIDTH 9 0
BBX 8 28 0 -6
BITMAP
0006F800
0006F800
0006F800
0006F800
0006F800
0006F800
0006F800
0006F800
0006F800
0006F800
0006F800
0006F800
0006F800
0006F800
0006F800
0006F800
0006F800
0006F800
0006F800
0006F800
0006F800
0006F800
007F6000
08F70000
1FC00000
3F900000
1ED30167
03AEFFF9
ENDCHAR
STARTCHAR iogonek
ENCODING 303
SWIDTH 287 0
DWIDTH 9 0
BBX 8 28 0 -6
BITMAP
0006F800
0006F800
0006F800
0006F800
0006F800
0006F800
0006F800
0006F800
0006F800
0006F800
0006F800
0006F800
0006F800
0006F800
0006F800
0006F800
0006F800
0006F800
0006F800
0006F800
0006F800
0006F800
007F6000
08F70000
1FC00000
3F900000
1ED30167
03AEFFF9
ENDCHAR
STARTCHAR Idotaccent
ENCODING 304
SWIDTH 287 0
DWIDTH 9 0
BBX 3 26 3 0
BITMAP
9FC0
9FC0
0000
0000
6F80
6F80
6F80
6F80
6F80
6F80
6F80
6F80
6F80
6F80
6F80
6F80
6F80
6F80
6F80
6F80
6F80
6F80
6F80
6F80
6F80
6F80
ENDCHAR
STARTCHAR dotlessi
ENCODING 305
SWIDTH 287 0
DWIDTH 9 0
BBX 3 22 3 0
BITMAP
6F80
6F80
6F80
6F80
6F80
6F80
6F80
6F80
6F80
6F80
6F80
6F80
6F80
6F80
6F80
6F80
6F80
6F80
6F80
6F80
6F80
6F80
ENDCHAR
STARTCHAR IJ
ENCODING 306
SWIDTH 877 0
DWIDTH 28 0
BBX 22 22 3 0
BITMAP
6F800000000000000006F9
6F800000000000000006F9
6F800000000000000006F9
6F800000000000000006F9
6F800000000000000006F9
6F800000000000000006F9
6F800000000000000006F9
6F800000000000000006F9
6F800000000000000006F9
6F800000000000000006F9
6F800000000000000006F9
6F800000000000000006F9
6F800000000000000006F9
6F800000000000000006F9
6F800000000000000006F9
6F800000000000000007F8
6F80000000000000000AF6
6F80000000000000003FF2
6F8000000000000003DF90
6F8000BA742100149FFC10
6F8000CFFFFFFFFFFFA100
6F8000158BDEFFEB820000
ENDCHAR
STARTCHAR ij
ENCODING 307
SWIDTH 877 0
DWIDTH 28 0
BBX 22 22 3 0
BITMAP
6F800000000000000006F9
6F800000000000000006F9
6F800000000000000006F9
6F800000000000000006F9
6F800000000000000006F9
6F800000000000000006F9
6F800000000000000006F9
6F800000000000000006F9
6F800000000000000006F9
6F800000000000000006F9
6F800000000000000006F9
6F800000000000000006F9
6F800000000000000006F9
6F800000000000000006F9
6F800000000000000006F9
6F800000000000000007F8
6F80000000000000000AF6
6F80000000000000003FF2
6F8000000000000003DF90
6F8000BA742100149FFC10
6F8000CFFFFFFFFFFFA100
6F8000158BDEFFEB820000
ENDCHAR
STARTCHAR Jcircumflex
ENCODING 308
SWIDTH 590 0
DWIDTH 19 0
BBX 21 29 0 0
BITMAP
00000000000006D5000000
000000000002BFFFA10000
00000000007EF93AFE6000
000000003CFA20003BFB20
000000004B300000004C20
0000000000000000000000
0000000000000000000000
00000000000008F6000000
00000000000008F6000000
00000000000008F6000000
00000000000008F6000000
00000000000008F6000000
00000000000008F6000000
00000000000008F6000000
00000000000008F6000000
00000000000008F6000000
00000000000008F6000000
00000000000008F6000000
00000000000008F6000000
00000000000008F6000000
00000000000008F6000000
00000000000009F6000000
0000000000000AF5000000
0000000000000DF3000000
0000000000005FE0000000
000000000004EF60000000
D964210014AFFA00000000
FFFFFFFFFFFF8000000000
269BDEFEDB720000000000
ENDCHAR
STARTCHAR jcircumflex
ENCODING 309
SWIDTH 590 0
DWIDTH 19 0
BBX 21 29 0 0
BITMAP
00000000000006D5000000
000000000002BFFFA10000
00000000007EF93AFE6000
000000003CFA20003BFB20
000000004B300000004C20
0000000000000000000000
0000000000000000000000
00000000000008F6000000
00000000000008F6000000
00000000000008F6000000
00000000000008F6000000
00000000000008F6000000
00000000000008F6000000
00000000000008F6000000
00000000000008F6000000
00000000000008F6000000
00000000000008F6000000
00000000000008F6000000
00000000000008F6000000
00000000000008F6000000
00000000000008F6000000
00000000000009F6000000
0000000000000AF5000000
0000000000000DF3000000
0000000000005FE0000000
000000000004EF60000000
D964210014AFFA00000000
FFFFFFFFFFFF8000000000
269BDEFEDB720000000000
ENDCHAR
STARTCHAR Kcommaaccent
ENCODING 310
SWIDTH 806 0
DWIDTH 26 0
BBX 22 28 3 -6
BITMAP
6F9000000000000005DF80
6F90000000000001AFD300
6F9000000000005EF80000
6F90000000002BFD300000
6F9000000006EF80000000
6F90000002BFD300000000
6F9000007FF81000000000
6F90003CFD400000000000
6F9008FF91000000000000
6F94DFD400000000000000
6FDFFD1000000000000000
6F96EFC200000000000000
6F902CFE60000000000000
6F90007FFB200000000000
6F900003CFE60000000000
6F90000008FFA100000000
6F900000003DFE50000000
6F90000000019FF9100000
6F900000000004DFD40000
6F9000000000001AFF9100
6F900000000000005EFD30
6F9000000000000001BFF8
0000000000000000000000
0000000000000000000000
000000001FF20000000000
000000003FC00000000000
000000005F700000000000
000000008F200000000000
ENDCHAR
STARTCHAR kcommaaccent
ENCODING 311
SWIDTH 867 0
DWIDTH 28 0
BBX 23 28 3 -6
BITMAP
6F80000000000000000AF500
6F80000000000000000DF200
6F80000000000000004FD000
6F8000000000000000BF7000
6F8000000000000005FE1000
6F800000000000003EF50000
6F80000000000004EF700000
6F8000000000019FF7000000
6F80000000017EFC30000000
6F80001247BFFD6000000000
6FFFFFFFFFFB400000000000
6FFFFFFFFFFFD93000000000
6F800012357BFFFC50000000
6F800000000016CFFB200000
6F80000000000005DFE30000
6F800000000000001BFE2000
6F8000000000000000BFC000
6F80000000000000001DF700
6F800000000000000004FE00
6F800000000000000000DF40
6F8000000000000000008F80
6F8000000000000000005FA0
000000000000000000000000
000000000000000000000000
0000000001FF200000000000
0000000003FC000000000000
0000000005F7000000000000
0000000008F2000000000000
ENDCHAR
STARTCHAR kgreenlandic
ENCODING 312
SWIDTH 867 0
DWIDTH 28 0
BBX 23 22 3 0
BITMAP
6F80000000000000000AF500
6F80000000000000000DF200
6F80000000000000004FD000
6F8000000000000000BF7000
6F8000000000000005FE1000
6F800000000000003EF50000
6F80000000000004EF700000
6F8000000000019FF7000000
6F80000000017EFC30000000
6F80001247BFFD6000000000
6FFFFFFFFFFB400000000000
6FFFFFFFFFFFD93000000000
6F800012357BFFFC50000000
6F800000000016CFFB200000
6F80000000000005DFE30000
6F800000000000001BFE2000
6F8000000000000000BFC000
6F80000000000000001DF700
6F800000000000000004FE00
6F800000000000000000DF40
6F8000000000000000008F80
6F8000000000000000005FA0
ENDCHAR
STARTCHAR Lacute
ENCODING 313
SWIDTH 701 0
DWIDTH 22 0
BBX 20 29 2 0
BITMAP
00000188000000000000
00007EFE000000000000
005DFE92000000000000
2CFE8100000000000000
0C710000000000000000
00000000000000000000
00000000000000000000
06F80000000000000000
06F80000000000000000
06F80000000000000000
06F80000000000000000
06F80000000000000000
06F80000000000000000
06F80000000000000000
06F80000000000000000
06F80000000000000000
06F80000000000000000
06F80000000000000000
06F80000000000000000
06F80000000000000000
06F80000000000000000
06F80000000000000000
06F80000000000000000
06F80000000000000000
06F80000000000000000
06F80000000000000000
06F80000000000000000
06FFFFFFFFFFFFFFFFF4
06FFFFFFFFFFFFFFFFF4
ENDCHAR
STARTCHAR lacute
ENCODING 314
SWIDTH 709 0
DWIDTH 23 0
BBX 21 29 2 0
BITMAP
0000018800000000000000
00007EFE00000000000000
005DFE9200000000000000
2CFE810000000000000000
0C71000000000000000000
0000000000000000000000
0000000000000000000000
06F8000000000000000000
06F8000000000000000000
06F8000000000000000000
06F8000000000000000000
06F8000000000000000000
06F8000000000000000000
06F8000000000000000000
06F8000000000000000000
06F8000000000000000000
06F8000000000000000000
06F8000000000000000000
06F8000000000000000000
06F8000000000000000000
06F8000000000000000000
06F9000000000000000000
05F9000000000000000000
04FB000000000000000000
02FE100000000000000000
00CFA00000000000000000
004FFD7421000000000000
0005EFFFFFFFFFFFFFFF60
000016ACEFFFFFFFFFFF60
ENDCHAR
STARTCHAR Lcommaaccent
ENCODING 315
SWIDTH 701 0
DWIDTH 22 0
BBX 19 28 3 -6
BITMAP
6F800000000000000000
6F800000000000000000
6F800000000000000000
6F800000000000000000
6F800000000000000000
6F800000000000000000
6F800000000000000000
6F800000000000000000
6F800000000000000000
6F800000000000000000
6F800000000000000000
6F800000000000000000
6F800000000000000000
6F800000000000000000
6F800000000000000000
6F800000000000000000
6F800000000000000000
6F800000000000000000
6F800000000000000000
6F800000000000000000
6FFFFFFFFFFFFFFFFF40
6FFFFFFFFFFFFFFFFF40
00000000000000000000
00000000000000000000
000000005FC000000000
000000007F8000000000
00000000AF3000000000
00000000CD0000000000
ENDCHAR
STARTCHAR lcommaaccent
ENCODING 316
SWIDTH 709 0
DWIDTH 23 0
BBX 20 28 3 -6
BITMAP
6F800000000000000000
6F800000000000000000
6F800000000000000000
6F800000000000000000
6F800000000000000000
6F800000000000000000
6F800000000000000000
6F800000000000000000
6F800000000000000000
6F800000000000000000
6F800000000000000000
6F800000000000000000
6F800000000000000000
6F800000000000000000
6F900000000000000000
5F900000000000000000
4FB00000000000000000
2FE10000000000000000
0CFA0000000000000000
04FFD742100000000000
005EFFFFFFFFFFFFFFF6
00016ACEFFFFFFFFFFF6
00000000000000000000
00000000000000000000
000000000AF700000000
000000000CF300000000
000000000FD000000000
000000002F8000000000
ENDCHAR
STARTCHAR Lcaron
ENCODING 317
SWIDTH 701 0
DWIDTH 22 0
BBX 19 22 3 0
BITMAP
6F8000000004FE000000
6F8000000006FA000000
6F8000000009F5000000
6F800000000CF1000000
6F800000000EC0000000
6F800000002F80000000
6F800000000000000000
6F800000000000000000
6F800000000000000000
6F800000000000000000
6F800000000000000000
6F800000000000000000
6F800000000000000000
6F800000000000000000
6F800000000000000000
6F800000000000000000
6F800000000000000000
6F800000000000000000
6F800000000000000000
6F800000000000000000
6FFFFFFFFFFFFFFFFF40
6FFFFFFFFFFFFFFFFF40
ENDCHAR
STARTCHAR lcaron
ENCODING 318
SWIDTH 709 0
DWIDTH 23 0
BBX 20 22 3 0
BITMAP
6F8000000003FE000000
6F8000000006FA000000
6F8000000009F6000000
6F800000000BF2000000
6F800000000EC0000000
6F800000001F80000000
6F800000000000000000
6F800000000000000000
6F800000000000000000
6F800000000000000000
6F800000000000000000
6F800000000000000000
6F800000000000000000
6F800000000000000000
6F900000000000000000
5F900000000000000000
4FB00000000000000000
2FE10000000000000000
0CFA0000000000000000
04FFD742100000000000
005EFFFFFFFFFFFFFFF6
00016ACEFFFFFFFFFFF6
ENDCHAR
STARTCHAR Ldot
ENCODING 319
SWIDTH 701 0
DWIDTH 22 0
BBX 19 22 3 0
BITMAP
6F800000000000000000
6F800000000000000000
6F800000000000000000
6F800000000000000000
6F800000000000000000
6F800000000000000000
6F800000000000000000
6F800000000000000000
6F800000000000000000
6F800000000000000000
6F8000000009FF200000
6F8000000009FF200000
6F8000000009FF200000
6F800000000000000000
6F800000000000000000
6F800000000000000000
6F800000000000000000
6F800000000000000000
6F800000000000000000
6F800000000000000000
6FFFFFFFFFFFFFFFFF40
6FFFFFFFFFFFFFFFFF40
ENDCHAR
STARTCHAR ldotaccent
ENCODING 320
SWIDTH 709 0
DWIDTH 23 0
BBX 20 22 3 0
BITMAP
6F800000000000000000
6F800000000000000000
6F800000000000000000
6F800000000000000000
6F800000000000000000
6F800000000000000000
6F800000000000000000
6F800000000000000000
6F800000000000000000
6F800000000000000000
6F8000000004FF700000
6F8000000004FF700000
6F8000000004FF700000
6F800000000000000000
6F900000000000000000
5F900000000000000000
4FB00000000000000000
2FE10000000000000000
0CFA0000000000000000
04FFD742100000000000
005EFFFFFFFFFFFFFFF6
00016ACEFFFFFFFFFFF6
ENDCHAR
STARTCHAR Lslash
ENCODING 321
SWIDTH 701 0
DWIDTH 22 0
BBX 22 22 0 0
BITMAP
0006F80000000000000000
0006F80000000000000000
0006F80000000000000000
0006F80000000000000000
0006F80000000000000000
0006F80000000000000000
0006F80000000000000000
0006F80000000000000000
0006F80004A90000000000
0006F817DFFA0000000000
0006FEFFE8200000000000
027DFFB500000000000000
9FFFF90000000000000000
7A46F80000000000000000
0006F80000000000000000
0006F80000000000000000
0006F80000000000000000
0006F80000000000000000
0006F80000000000000000
0006F80000000000000000
0006FFFFFFFFFFFFFFFFF4
0006FFFFFFFFFFFFFFFFF4
ENDCHAR
STARTCHAR lslash
ENCODING 322
SWIDTH 709 0
DWIDTH 23 0
BBX 23 22 0 0
BITMAP
0006F8000000000000000000
0006F8000000000000000000
0006F8000000000000000000
0006F8000000000000000000
0006F8000000000000000000
0006F8000000000000000000
0006F8000000000000000000
0006F8000000000000000000
0006F80004A9000000000000
0006F817DFFA000000000000
0006FEFFE820000000000000
027DFFB50000000000000000
9FFFF9000000000000000000
7A46F8000000000000000000
0006F8000000000000000000
0006F9000000000000000000
0005FB000000000000000000
0002FE000000000000000000
0000DF900000000000000000
00005FFC7311000000000000
000006EFFFFFFFFFFFFFFF60
00000016ACEFFFFFFFFFFF60
ENDCHAR
STARTCHAR Nacute
ENCODING 323
SWIDTH 936 0
DWIDTH 30 0
BBX 24 29 3 0
BITMAP
0000000000000005B0000000
00000000000004CFF4000000
000000000003BFFB40000000
00000000009FFA3000000000
000000000099200000000000
000000000000000000000000
000000000000000000000000
6FF4000000000000000009F5
6FFE400000000000000009F5
6FEFE30000000000000009F5
6F88FE3000000000000009F5
6F809FE200000000000009F5
6F8009FD20000000000009F5
6F8000AFD2000000000009F5
6F80000AFD100000000009F5
6F800000BFC10000000009F5
6F8000001BFC1000000009F5
6F80000001CFC100000009F5
6F800000001CFB00000009F5
6F8000000001CFB0000009F5
6F80000000001DFA000009F5
6F800000000002DF900009F5
6F8000000000002DF90009F5
6F80000000000002EF8009F5
6F800000000000003EF809F5
6F8000000000000003EF79F5
6F80000000000000003EFDF5
6F800000000000000004FFF5
6F8000000000000000004FF5
ENDCHAR
STARTCHAR nacute
ENCODING 324
SWIDTH 933 0
DWIDTH 30 0
BBX 24 29 3 0
BITMAP
000000000000001880000000
00000000000007EFE0000000
000000000005DFE920000000
0000000002CFE81000000000
0000000000C7100000000000
000000000000000000000000
000000000000000000000000
6F800000016ADEFEDB710000
6F800006CFFFFFFFFFFF7000
6F8006DFFE95210125AFF900
6F84DFFA400000000003EF50
6FEFFA300000000000006FD0
6FFD40000000000000000EF2
6FC100000000000000000BF4
6F8000000000000000000AF5
6F80000000000000000009F5
6F80000000000000000009F5
6F80000000000000000009F5
6F80000000000000000009F5
6F80000000000000000009F5
6F80000000000000000009F5
6F80000000000000000009F5
6F80000000000000000009F5
6F80000000000000000009F5
6F80000000000000000009F5
6F80000000000000000009F5
6F80000000000000000009F5
6F80000000000000000009F5
6F80000000000000000009F5
ENDCHAR
STARTCHAR Ncommaaccent
ENCODING 325
SWIDTH 936 0
DWIDTH 30 0
BBX 24 28 3 -6
BITMAP
6FF4000000000000000009F5
6FFE400000000000000009F5
6FEFE30000000000000009F5
6F88FE3000000000000009F5
6F809FE200000000000009F5
6F8009FD20000000000009F5
6F8000AFD2000000000009F5
6F80000AFD100000000009F5
6F800000BFC10000000009F5
6F8000001BFC1000000009F5
6F80000001CFC100000009F5
6F800000001CFB00000009F5
6F8000000001CFB0000009F5
6F80000000001DFA000009F5
6F800000000002DF900009F5
6F8000000000002DF90009F5
6F80000000000002EF8009F5
6F800000000000003EF809F5
6F8000000000000003EF79F5
6F80000000000000003EFDF5
6F800000000000000004FFF5
6F8000000000000000004FF5
000000000000000000000000
000000000000000000000000
00000000000EF30000000000
00000000001FE00000000000
00000000004F900000000000
00000000006F400000000000
ENDCHAR
STARTCHAR ncommaaccent
ENCODING 326
SWIDTH 933 0
DWIDTH 30 0
BBX 24 28 3 -6
BITMAP
6F800000016ADEFEDB710000
6F800006CFFFFFFFFFFF7000
6F8006DFFE95210125AFF900
6F84DFFA400000000003EF50
6FEFFA300000000000006FD0
6FFD40000000000000000EF2
6FC100000000000000000BF4
6F8000000000000000000AF5
6F80000000000000000009F5
6F80000000000000000009F5
6F80000000000000000009F5
6F80000000000000000009F5
6F80000000000000000009F5
6F80000000000000000009F5
6F80000000000000000009F5
6F80000000000000000009F5
6F80000000000000000009F5
6F80000000000000000009F5
6F80000000000000000009F5
6F80000000000000000009F5
6F80000000000000000009F5
6F80000000000000000009F5
000000000000000000000000
000000000000000000000000
00000000000FF30000000000
00000000002FD00000000000
00000000005F800000000000
00000000007F300000000000
ENDCHAR
STARTCHAR Ncaron
ENCODING 327
SWIDTH 936 0
DWIDTH 30 0
BBX 24 29 3 0
BITMAP
000000A70000000189000000
0000008FD600006EE7000000
00000003CFC45DFB20000000
0000000006EFFE6000000000
00000000002BA10000000000
000000000000000000000000
000000000000000000000000
6FF4000000000000000009F5
6FFE400000000000000009F5
6FEFE30000000000000009F5
6F88FE3000000000000009F5
6F809FE200000000000009F5
6F8009FD20000000000009F5
6F8000AFD2000000000009F5
6F80000AFD100000000009F5
6F800000BFC10000000009F5
6F8000001BFC1000000009F5
6F80000001CFC100000009F5
6F800000001CFB00000009F5
6F8000000001CFB0000009F5
6F80000000001DFA000009F5
6F800000000002DF900009F5
6F8000000000002DF90009F5
6F80000000000002EF8009F5
6F800000000000003EF809F5
6F8000000000000003EF79F5
6F80000000000000003EFDF5
6F800000000000000004FFF5
6F8000000000000000004FF5
ENDCHAR
STARTCHAR ncaron
ENCODING 328
SWIDTH 933 0
DWIDTH 30 0
BBX 24 29 3 0
BITMAP
000002C400000002A5000000
000002BFB300029FD3000000
00000005EFA38EF800000000
000000001AFFFC3000000000
00000000004C700000000000
000000000000000000000000
000000000000000000000000
6F800000016ADEFEDB710000
6F800006CFFFFFFFFFFF7000
6F8006DFFE95210125AFF900
6F84DFFA400000000003EF50
6FEFFA300000000000006FD0
6FFD40000000000000000EF2
6FC100000000000000000BF4
6F8000000000000000000AF5
6F80000000000000000009F5
6F80000000000000000009F5
6F80000000000000000009F5
6F80000000000000000009F5
6F80000000000000000009F5
6F80000000000000000009F5
6F80000000000000000009F5
6F80000000000000000009F5
6F80000000000000000009F5
6F80000000000000000009F5
6F80000000000000000009F5
6F80000000000000000009F5
6F80000000000000000009F5
6F80000000000000000009F5
ENDCHAR
STARTCHAR napostrophe
ENCODING 329
SWIDTH 1025 0
DWIDTH 33 0
BBX 30 22 0 0
BITMAP
0FF3006F800000026ADEFEDA710000
3FD0006F800006CFFFFFFFFFFE7000
5F90006F8006DFFE95210125AFF900
8F50006F84DFFA400000000004EF50
BF10006FEFFA200000000000006FC0
DB00006FFD40000000000000000EF1
0000006FB100000000000000000BF4
0000006F8000000000000000000AF5
0000006F8000000000000000000AF5
0000006F8000000000000000000AF5
0000006F8000000000000000000AF5
0000006F8000000000000000000AF5
0000006F8000000000000000000AF5
0000006F8000000000000000000AF5
0000006F8000000000000000000AF5
0000006F8000000000000000000AF5
0000006F8000000000000000000AF5
0000006F8000000000000000000AF5
0000006F8000000000000000000AF5
0000006F8000000000000000000AF5
0000006F8000000000000000000AF5
0000006F8000000000000000000AF5
ENDCHAR
STARTCHAR Eng
ENCODING 330
SWIDTH 936 0
DWIDTH 30 0
BBX 24 22 3 0
BITMAP
6FF6000000000000000009F5
6FFFA10000000000000009F5
6FBCFD2000000000000009F5
6F81AFE500000000000009F5
6F8006FF80000000000009F5
6F80003DFB100000000009F5
6F800001BFE40000000009F5
6F80000008FF7000000009F5
6F800000005EFA10000009F5
6F8000000002CFD3000009F5
6F80000000001AFE500009F5
6F8000000000006FF90009F5
6F80000000000003DFC209F5
6F800000000000001BFE49F5
6F80000000000000008FFDF5
6F800000000000000005EFF4
6F8000000000000000002EF3
6F8000000000000000004FE0
6F800000000000000002DF80
6F8000000A963100137EFD10
6F8000000CFFFFFFFFFFB200
6F8000000159CEFFEC940000
ENDCHAR
STARTCHAR eng
ENCODING 331
SWIDTH 933 0
DWIDTH 30 0
BBX 24 22 3 0
BITMAP
6F800000016ADEFEDB710000
6F800006CFFFFFFFFFFF8000
6F8006DFFE952101259FFA00
6F84DFFA400000000003EF60
6FEFFA300000000000005FD0
6FFD40000000000000000EF2
6FC100000000000000000BF4
6F8000000000000000000AF5
6F80000000000000000009F5
6F80000000000000000009F5
6F80000000000000000009F5
6F80000000000000000009F5
6F80000000000000000009F5
6F80000000000000000009F5
6F80000000000000000009F5
6F8000000000000000000AF4
6F8000000000000000000CF3
6F8000000000000000003FE0
6F800000000000000001CF90
6F80000006B74210127DFD10
6F80000007FFFFFFFFFFC200
6F8000000048BDEFEDA50000
ENDCHAR
STARTCHAR Omacron
ENCODING 332
SWIDTH 983 0
DWIDTH 31 0
BBX 28 26 2 0
BITMAP
0000000008FFFFFFFF1000000000
0000000008FFFFFFFF1000000000
0000000000000000000000000000
0000000000000000000000000000
0000000159BDEFEDCA7300000000
000003AFFFFFFFFFFFFFD7000000
00019FFFB7421011358DFFD40000
001CFE710000000000003BFF5000
00CFD200000000000000007FF400
07FD10000000000000000007FD10
1EF400000000000000000000CF80
5FC0000000000000000000004FD0
9F70000000000000000000000EF2
CF40000000000000000000000CF4
DF30000000000000000000000AF5
DF30000000000000000000000AF5
CF40000000000000000000000CF4
AF70000000000000000000000EF2
6FB0000000000000000000004FD0
1EF400000000000000000000CF80
07FD10000000000000000007FD10
00CFC200000000000000007FF400
001CFE710000000000003BFF6000
00019FFFA7421011358DFFD40000
000003AFFFFFFFFFFFFFD7100000
0000000169BDEFEECA7300000000
ENDCHAR
STARTCHAR omacron
ENCODING 333
SWIDTH 983 0
DWIDTH 31 0
BBX 28 26 2 0
BITMAP
0000000008FFFFFFFF1000000000
0000000008FFFFFFFF1000000000
0000000000000000000000000000
0000000000000000000000000000
0000000159BDEFEDCA7300000000
000003AFFFFFFFFFFFFFD7000000
00019FFFB7421011358DFFD40000
001CFE710000000000003BFF5000
00CFD200000000000000007FF400
07FD10000000000000000007FD10
1EF400000000000000000000CF80
5FC0000000000000000000004FD0
9F70000000000000000000000EF2
CF40000000000000000000000CF4
DF30000000000000000000000AF5
DF30000000000000000000000AF5
CF40000000000000000000000CF4
AF70000000000000000000000EF2
6FB0000000000000000000004FD0
1EF400000000000000000000CF80
07FD10000000000000000007FD10
00CFC200000000000000007FF400
001CFE710000000000003BFF6000
00019FFFA7421011358DFFD40000
000003AFFFFFFFFFFFFFD7100000
0000000169BDEFEECA7300000000
ENDCHAR
STARTCHAR Obreve
ENCODING 334
SWIDTH 983 0
DWIDTH 31 0
BBX 28 28 2 0
BITMAP
000000007F7000001DE100000000
000000001EF82014CF9000000000
0000000005EFFFFFFC1000000000
000000000029DFEC600000000000
0000000000000000000000000000
0000000000000000000000000000
0000000159BDEFEDCA7300000000
000003AFFFFFFFFFFFFFD7000000
00019FFFB7421011358DFFD40000
001CFE710000000000003BFF5000
00CFD200000000000000007FF400
07FD10000000000000000007FD10
1EF400000000000000000000CF80
5FC0000000000000000000004FD0
9F70000000000000000000000EF2
CF40000000000000000000000CF4
DF30000000000000000000000AF5
DF30000000000000000000000AF5
CF40000000000000000000000CF4
AF70000000000000000000000EF2
6FB0000000000000000000004FD0
1EF400000000000000000000CF80
07FD10000000000000000007FD10
00CFC200000000000000007FF400
001CFE710000000000003BFF6000
00019FFFA7421011358DFFD40000
000003AFFFFFFFFFFFFFD7100000
0000000169BDEFEECA7300000000
ENDCHAR
STARTCHAR obreve
ENCODING 335
SWIDTH 983 0
DWIDTH 31 0
BBX 28 28 2 0
BITMAP
000000007F7000001DE100000000
000000001EF82014CF9000000000
0000000005EFFFFFFC1000000000
000000000029DFEC600000000000
0000000000000000000000000000
0000000000000000000000000000
0000000159BDEFEDCA7300000000
000003AFFFFFFFFFFFFFD7000000
00019FFFB7421011358DFFD40000
001CFE710000000000003BFF5000
00CFD200000000000000007FF400
07FD10000000000000000007FD10
1EF400000000000000000000CF80
5FC0000000000000000000004FD0
9F70000000000000000000000EF2
CF40000000000000000000000CF4
DF30000000000000000000000AF5
DF30000000000000000000000AF5
CF40000000000000000000000CF4
AF70000000000000000000000EF2
6FB0000000000000000000004FD0
1EF400000000000000000000CF80
07FD10000000000000000007FD10
00CFC200000000000000007FF400
001CFE710000000000003BFF6000
00019FFFA7421011358DFFD40000
000003AFFFFFFFFFFFFFD7100000
0000000169BDEFEECA7300000000
ENDCHAR
STARTCHAR Ohungarumlaut
ENCODING 336
SWIDTH 983 0
DWIDTH 31 0
BBX 28 28 2 0
BITMAP
0000000000002B30006A00000000
000000000007EF702BFD20000000
0000000002BFA206EE7000000000
0000000004C4000A910000000000
0000000000000000000000000000
0000000000000000000000000000
0000000159BDEFEDCA7300000000
000003AFFFFFFFFFFFFFD7000000
00019FFFB7421011358DFFD40000
001CFE710000000000003BFF5000
00CFD200000000000000007FF400
07FD10000000000000000007FD10
1EF400000000000000000000CF80
5FC0000000000000000000004FD0
9F70000000000000000000000EF2
CF40000000000000000000000CF4
DF30000000000000000000000AF5
DF30000000000000000000000AF5
CF40000000000000000000000CF4
AF70000000000000000000000EF2
6FB0000000000000000000004FD0
1EF400000000000000000000CF80
07FD10000000000000000007FD10
00CFC200000000000000007FF400
001CFE710000000000003BFF6000
00019FFFA7421011358DFFD40000
000003AFFFFFFFFFFFFFD7100000
0000000169BDEFEECA7300000000
ENDCHAR
STARTCHAR ohungarumlaut
ENCODING 337
SWIDTH 983 0
DWIDTH 31 0
BBX 28 28 2 0
BITMAP
0000000000002B30006A00000000
000000000007EF702BFD20000000
0000000002BFA206EE7000000000
0000000004C4000A910000000000
0000000000000000000000000000
0000000000000000000000000000
0000000159BDEFEDCA7300000000
000003AFFFFFFFFFFFFFD7000000
00019FFFB7421011358DFFD40000
001CFE710000000000003BFF5000
00CFD200000000000000007FF400
07FD10000000000000000007FD10
1EF400000000000000000000CF80
5FC0000000000000000000004FD0
9F70000000000000000000000EF2
CF40000000000000000000000CF4
DF30000000000000000000000AF5
DF30000000000000000000000AF5
CF40000000000000000000000CF4
AF70000000000000000000000EF2
6FB0000000000000000000004FD0
1EF400000000000000000000CF80
07FD10000000000000000007FD10
00CFC200000000000000007FF400
001CFE710000000000003BFF6000
00019FFFA7421011358DFFD40000
000003AFFFFFFFFFFFFFD7100000
0000000169BDEFEECA7300000000
ENDCHAR
STARTCHAR OE
ENCODING 338
SWIDTH 1338 0
DWIDTH 43 0
BBX 39 22 2 0
BITMAP
0000000159BDEFFFFFFFFFFFFFFFFFFFFFFFFF30
000003AFFFFFFFFFFFFFFFFFFFFFFFFFFFFFFF30
00008FFFB74210112246DF600000000000000000
001BFF81000000000000BF600000000000000000
00BFD300000000000000BF600000000000000000
07FD2000000000000000BF600000000000000000
0EF50000000000000000BF600000000000000000
5FC00000000000000000BF600000000000000000
9F700000000000000000BF600000000000000000
CF400000000000000000BFFFFFFFFFFFFFFFF600
DF300000000000000000BFFFFFFFFFFFFFFFF600
DF300000000000000000BF600000000000000000
CF400000000000000000BF600000000000000000
AF700000000000000000BF600000000000000000
6FB00000000000000000BF600000000000000000
1EF40000000000000000BF600000000000000000
07FD1000000000000000BF600000000000000000
00CFC200000000000000BF600000000000000000
001CFE71000000000000BF600000000000000000
0001AFFEA63210012246DF600000000000000000
000004BFFFFFFFFFFFFFFFFFFFFFFFFFFFFFFF60
0000000169CDEFFFFFFFFFFFFFFFFFFFFFFFFF60
ENDCHAR
STARTCHAR oe
ENCODING 339
SWIDTH 1688 0
DWIDTH 54 0
BBX 51 22 2 0
BITMAP
0000000159BDEFFECA74000000000000159CEFEDC96100000000
000003AFFFFFFFFFFFFFD71000000029EFFFFFFFFFFF92000000
00019FFFB7421011358DFFE5000006EFFB73210136AFFE500000
001CFE710000000000003BFF70008FFA2000000000018FF60000
00CFD200000000000000007FF506FF5000000000000004EF4000
07FD10000000000000000007FE3FF500000000000000004FC000
1EF400000000000000000000CFEF9000000000000000000AF500
5FC0000000000000000000004FFF20000000000000000003FA00
9F70000000000000000000000EFB00000000000000000000EE00
CF40000000000000000000000CF700000000000000000000BF10
DF30000000000000000000000AFFFFFFFFFFFFFFFFFFFFFFFF30
DF30000000000000000000000AFFFFFFFFFFFFFFFFFFFFFFFF40
CF40000000000000000000000CF7000000000000000000000000
AF70000000000000000000000EFA000000000000000000000000
6FB0000000000000000000004FFE100000000000000000000000
1EF400000000000000000000CFFF800000000000000000000000
07FD10000000000000000007FE4FF40000000000000000000000
00CFC200000000000000007FF507FF5000000000000000000000
001CFE710000000000003BFF60008FFB30000000000000287000
00019FFFA7421011358DFFD4000005EFFD86321012369DFF8000
000003AFFFFFFFFFFFFFD71000000018EFFFFFFFFFFFFFB61000
0000000169BDEFFECA73000000000000048ADEFFEDB951000000
ENDCHAR
STARTCHAR Racute
ENCODING 340
SWIDTH 833 0
DWIDTH 27 0
BBX 23 29 3 0
BITMAP
0000000000003B2000000000
00000000002AFF8000000000
0000000019FFC50000000000
00000006EFB4000000000000
00000006A300000000000000
000000000000000000000000
000000000000000000000000
6FFFFFFFFFFFEDB940000000
6FFFFFFFFFFFFFFFFC300000
6F80000000012358DFF40000
6F8000000000000009FD0000
6F8000000000000000DF4000
6F80000000000000009F6000
6F80000000000000008F7000
6F80000000000000009F7000
6F8000000000000000DF4000
6F8000000000000008FD0000
6F80000000011248DFF50000
6FFFFFFFFFFFFFFFFD500000
6FFFFFFFFFFFFFFB50000000
6F800000000007FC00000000
6F800000000000AF90000000
6F8000000000001DF6000000
6F80000000000003FF300000
6F800000000000006FD10000
6F8000000000000009FB0000
6F8000000000000001CF8000
6F80000000000000002EF500
6F800000000000000005FE20
ENDCHAR
STARTCHAR racute
ENCODING 341
SWIDTH 609 0
DWIDTH 20 0
BBX 17 29 3 0
BITMAP
000000000017900000
0000000006EFF10000
00000005DFF9200000
000001BFE810000000
000000C71000000000
000000000000000000
000000000000000000
6F80000016ADEFED60
6F800029FFFFFFFF80
6F8008FFD852101330
6F81BFD50000000000
6FADFA100000000000
6FFF60000000000000
6FF600000000000000
6F9000000000000000
6F8000000000000000
6F8000000000000000
6F8000000000000000
6F8000000000000000
6F8000000000000000
6F8000000000000000
6F8000000000000000
6F8000000000000000
6F8000000000000000
6F8000000000000000
6F8000000000000000
6F8000000000000000
6F8000000000000000
6F8000000000000000
ENDCHAR
STARTCHAR Rcommaaccent
ENCODING 342
SWIDTH 833 0
DWIDTH 27 0
BBX 23 28 3 -6
BITMAP
6FFFFFFFFFFFEDB940000000
6FFFFFFFFFFFFFFFFC300000
6F80000000012358DFF40000
6F8000000000000009FD0000
6F8000000000000000DF4000
6F80000000000000009F6000
6F80000000000000008F7000
6F80000000000000009F7000
6F8000000000000000DF4000
6F8000000000000008FD0000
6F80000000011248DFF50000
6FFFFFFFFFFFFFFFFD500000
6FFFFFFFFFFFFFFB50000000
6F800000000007FC00000000
6F800000000000AF90000000
6F8000000000001DF6000000
6F80000000000003FF300000
6F800000000000006FD10000
6F8000000000000009FB0000
6F8000000000000001CF8000
6F80000000000000002EF500
6F800000000000000005FE20
000000000000000000000000
000000000000000000000000
0000000009F8000000000000
000000000BF4000000000000
000000000EE0000000000000
000000001F90000000000000
ENDCHAR
STARTCHAR rcommaaccent
ENCODING 343
SWIDTH 609 0
DWIDTH 20 0
BBX 17 28 3 -6
BITMAP
6F80000016ADEFED60
6F800029FFFFFFFF80
6F8008FFD852101330
6F81BFD50000000000
6FADFA100000000000
6FFF60000000000000
6FF600000000000000
6F9000000000000000
6F8000000000000000
6F8000000000000000
6F8000000000000000
6F8000000000000000
6F8000000000000000
6F8000000000000000
6F8000000000000000
6F8000000000000000
6F8000000000000000
6F8000000000000000
6F8000000000000000
6F8000000000000000
6F8000000000000000
6F8000000000000000
000000000000000000
000000000000000000
4FD000000000000000
6F9000000000000000
9F4000000000000000
BE0000000000000000
ENDCHAR
STARTCHAR Rcaron
ENCODING 344
SWIDTH 833 0
DWIDTH 27 0
BBX 23 29 3 0
BITMAP
00089100000006B000000000
0005EE710005DF9100000000
00001AFE64CFD30000000000
0000004DFFF8000000000000
000000019C30000000000000
000000000000000000000000
000000000000000000000000
6FFFFFFFFFFFEDB940000000
6FFFFFFFFFFFFFFFFC300000
6F80000000012358DFF40000
6F8000000000000009FD0000
6F8000000000000000DF4000
6F80000000000000009F6000
6F80000000000000008F7000
6F80000000000000009F7000
6F8000000000000000DF4000
6F8000000000000008FD0000
6F80000000011248DFF50000
6FFFFFFFFFFFFFFFFD500000
6FFFFFFFFFFFFFFB50000000
6F800000000007FC00000000
6F800000000000AF90000000
6F8000000000001DF6000000
6F80000000000003FF300000
6F800000000000006FD10000
6F8000000000000009FB0000
6F8000000000000001CF8000
6F80000000000000002EF500
6F800000000000000005FE20
ENDCHAR
STARTCHAR rcaron
ENCODING 345
SWIDTH 609 0
DWIDTH 20 0
BBX 17 29 3 0
BITMAP
01C500000002A60000
01AFC300019FD40000
0005DFA37EF8100000
000019FFFC30000000
0000004C7000000000
000000000000000000
000000000000000000
6F80000016ADEFED60
6F800029FFFFFFFF80
6F8008FFD852101330
6F81BFD50000000000
6FADFA100000000000
6FFF60000000000000
6FF600000000000000
6F9000000000000000
6F8000000000000000
6F8000000000000000
6F8000000000000000
6F8000000000000000
6F8000000000000000
6F8000000000000000
6F8000000000000000
6F8000000000000000
6F8000000000000000
6F8000000000000000
6F8000000000000000
6F8000000000000000
6F8000000000000000
6F8000000000000000
ENDCHAR
STARTCHAR Sacute
ENCODING 346
SWIDTH 787 0
DWIDTH 25 0
BBX 21 29 2 0
BITMAP
00000000000002A5000000
0000000000018FFB000000
00000000017EFD71000000
000000004DFD6000000000
000000003C500000000000
0000000000000000000000
0000000000000000000000
000027ACEEFEDA73000000
002BFFFFFFFFFFFFD83000
04FFE95311001369EFE000
1EF910000000000005B000
4FD0000000000000000000
6FA0000000000000000000
3FD0000000000000000000
0BFB200000000000000000
01BFFA4100000000000000
0006DFFFB7300000000000
0000038CFFFEB720000000
00000000159CFFFC710000
000000000000159EFE6000
00000000000000006EF900
000000000000000002DF50
0000000000000000006FA0
0000000000000000005FB0
000000000000000000AF80
4A3000000000000019FF30
4FFD964210011369EFF600
05AFFFFFFFFFFFFFFB3000
000158BDEFFEECA6200000
ENDCHAR
STARTCHAR sacute
ENCODING 347
SWIDTH 787 0
DWIDTH 25 0
BBX 21 29 2 0
BITMAP
00000000000002A5000000
0000000000018FFB000000
00000000017EFD71000000
000000004DFD6000000000
000000003C500000000000
0000000000000000000000
0000000000000000000000
000027ACEEFEDA73000000
002BFFFFFFFFFFFFD83000
04FFE95311001369EFE000
1EF910000000000005B000
4FD0000000000000000000
6FA0000000000000000000
3FD0000000000000000000
0BFB200000000000000000
01BFFA4100000000000000
0006DFFFB7300000000000
0000038CFFFEB720000000
00000000159CFFFC710000
000000000000159EFE6000
00000000000000006EF900
000000000000000002DF50
0000000000000000006FA0
0000000000000000005FB0
000000000000000000AF80
4A3000000000000019FF30
4FFD964210011369EFF600
05AFFFFFFFFFFFFFFB3000
000158BDEFFEECA6200000
ENDCHAR
STARTCHAR Scircumflex
ENCODING 348
SWIDTH 787 0
DWIDTH 25 0
BBX 21 29 2 0
BITMAP
0000000006C40000000000
00000002CFFFA100000000
0000007FF83AFE50000000
00003CF920003BFB200000
00005B300000004C200000
0000000000000000000000
0000000000000000000000
000027ACEEFEDA73000000
002BFFFFFFFFFFFFD83000
04FFE95311001369EFE000
1EF910000000000005B000
4FD0000000000000000000
6FA0000000000000000000
3FD0000000000000000000
0BFB200000000000000000
01BFFA4100000000000000
0006DFFFB7300000000000
0000038CFFFEB720000000
00000000159CFFFC710000
000000000000159EFE6000
00000000000000006EF900
000000000000000002DF50
0000000000000000006FA0
0000000000000000005FB0
000000000000000000AF80
4A3000000000000019FF30
4FFD964210011369EFF600
05AFFFFFFFFFFFFFFB3000
000158BDEFFEECA6200000
ENDCHAR
STARTCHAR scircumflex
ENCODING 349
SWIDTH 787 0
DWIDTH 25 0
BBX 21 29 2 0
BITMAP
0000000006C40000000000
00000002CFFFA100000000
0000007FF83AFE50000000
00003CF920003BFB200000
00005B300000004C200000
0000000000000000000000
0000000000000000000000
000027ACEEFEDA73000000
002BFFFFFFFFFFFFD83000
04FFE95311001369EFE000
1EF910000000000005B000
4FD0000000000000000000
6FA0000000000000000000
3FD0000000000000000000
0BFB200000000000000000
01BFFA4100000000000000
0006DFFFB7300000000000
0000038CFFFEB720000000
00000000159CFFFC710000
000000000000159EFE6000
00000000000000006EF900
000000000000000002DF50
0000000000000000006FA0
0000000000000000005FB0
000000000000000000AF80
4A3000000000000019FF30
4FFD964210011369EFF600
05AFFFFFFFFFFFFFFB3000
000158BDEFFEECA6200000
ENDCHAR
STARTCHAR Scedilla
ENCODING 350
SWIDTH 787 0
DWIDTH 25 0
BBX 21 28 2 -6
BITMAP
000027ACEEFEDA73000000
002BFFFFFFFFFFFFD83000
04FFE95311001369EFE000
1EFA10000000000005B000
4FD0000000000000000000
6FA0000000000000000000
3FD0000000000000000000
0BFB200000000000000000
01BFF94000000000000000
0006DFFEB7300000000000
0000038DFFFEA620000000
00000000159DFFFC610000
00000000000015AEFE6000
00000000000000006EF900
000000000000000002DF40
0000000000000000007FA0
0000000000000000005FB0
000000000000000000AF90
4A3000000000000019FF30
4FFD964210011369EFF600
05BFFFFFFFFFFFFFFC4000
000158BDEFFFECA7200000
0000000005F10000000000
000000000CFEB300000000
000000000103DE10000000
0000000000009F20000000
0000000B5114DD00000000
0000000FFFFDA200000000
ENDCHAR
STARTCHAR scedilla
ENCODING 351
SWIDTH 787 0
DWIDTH 25 0
BBX 21 28 2 -6
BITMAP
000027ACEEFEDA73000000
002BFFFFFFFFFFFFD83000
04FFE95311001369EFE000
1EFA10000000000005B000
4FD0000000000000000000
6FA0000000000000000000
3FD0000000000000000000
0BFB200000000000000000
01BFF94000000000000000
0006DFFEB7300000000000
0000038DFFFEA620000000
00000000159DFFFC610000
00000000000015AEFE6000
00000000000000006EF900
000000000000000002DF40
0000000000000000007FA0
0000000000000000005FB0
000000000000000000AF90
4A3000000000000019FF30
4FFD964210011369EFF600
05BFFFFFFFFFFFFFFC4000
000158BDEFFFECA7200000
0000000005F10000000000
000000000CFEB300000000
000000000103DE10000000
0000000000009F20000000
0000000B5114DD00000000
0000000FFFFDA200000000
ENDCHAR
STARTCHAR Scaron
ENCODING 352
SWIDTH 787 0
DWIDTH 25 0
BBX 21 29 2 0
BITMAP
00005B300000004C200000
00003DF920003BFB200000
0000008FE83AFE60000000
00000003CFFFA100000000
0000000006D40000000000
0000000000000000000000
0000000000000000000000
000027ACEEFEDA73000000
002BFFFFFFFFFFFFD83000
04FFE95311001369EFE000
1EF910000000000005B000
4FD0000000000000000000
6FA0000000000000000000
3FD0000000000000000000
0BFB200000000000000000
01BFFA4100000000000000
0006DFFFB7300000000000
0000038CFFFEB720000000
00000000159CFFFC710000
000000000000159EFE6000
00000000000000006EF900
000000000000000002DF50
0000000000000000006FA0
0000000000000000005FB0
000000000000000000AF80
4A3000000000000019FF30
4FFD964210011369EFF600
05AFFFFFFFFFFFFFFB3000
000158BDEFFEECA6200000
ENDCHAR
STARTCHAR scaron
ENCODING 353
SWIDTH 787 0
DWIDTH 25 0
BBX 21 29 2 0
BITMAP
00005B300000004C200000
00003DF920003BFB200000
0000008FE83AFE60000000
00000003CFFFA100000000
0000000006D40000000000
0000000000000000000000
0000000000000000000000
000027ACEEFEDA73000000
002BFFFFFFFFFFFFD83000
04FFE95311001369EFE000
1EF910000000000005B000
4FD0000000000000000000
6FA0000000000000000000
3FD0000000000000000000
0BFB200000000000000000
01BFFA4100000000000000
0006DFFFB7300000000000
0000038CFFFEB720000000
00000000159CFFFC710000
000000000000159EFE6000
00000000000000006EF900
000000000000000002DF50
0000000000000000006FA0
0000000000000000005FB0
000000000000000000AF80
4A3000000000000019FF30
4FFD964210011369EFF600
05AFFFFFFFFFFFFFFB3000
000158BDEFFEECA6200000
ENDCHAR
STARTCHAR Tcommaaccent
ENCODING 354
SWIDTH 708 0
DWIDTH 23 0
BBX 23 28 0 -6
BITMAP
6FFFFFFFFFFFFFFFFFFFFF10
6FFFFFFFFFFFFFFFFFFFFF10
00000000009F500000000000
00000000009F500000000000
00000000009F500000000000
00000000009F500000000000
00000000009F500000000000
00000000009F500000000000
00000000009F500000000000
00000000009F500000000000
00000000009F500000000000
00000000009F500000000000
00000000009F500000000000
00000000009F500000000000
00000000009F500000000000
00000000009F500000000000
00000000009F500000000000
00000000009F500000000000
00000000009F500000000000
00000000009F500000000000
00000000009F500000000000
00000000009F500000000000
000000000000000000000000
000000000000000000000000
00000000009F900000000000
0000000000BF400000000000
0000000000DE000000000000
0000000001F9000000000000
ENDCHAR
STARTCHAR tcommaaccent
ENCODING 355
SWIDTH 708 0
DWIDTH 23 0
BBX 23 28 0 -6
BITMAP
6FFFFFFFFFFFFFFFFFFFFF10
6FFFFFFFFFFFFFFFFFFFFF10
00000000009F500000000000
00000000009F500000000000
00000000009F500000000000
00000000009F500000000000
00000000009F500000000000
00000000009F500000000000
00000000009F500000000000
00000000009F500000000000
00000000009F500000000000
00000000009F500000000000
00000000009F500000000000
00000000009F500000000000
00000000009F500000000000
00000000009F500000000000
00000000009F500000000000
00000000009F500000000000
00000000009F500000000000
00000000009F500000000000
00000000009F500000000000
00000000009F500000000000
000000000000000000000000
000000000000000000000000
00000000009F900000000000
0000000000BF400000000000
0000000000DE000000000000
0000000001F9000000000000
ENDCHAR
STARTCHAR Tcaron
ENCODING 356
SWIDTH 708 0
DWIDTH 23 0
BBX 23 29 0 0
BITMAP
000006A200000005C1000000
000004DF910003CFA1000000
00000018FE73AFE500000000
000000003CFFF91000000000
00000000007C400000000000
000000000000000000000000
000000000000000000000000
6FFFFFFFFFFFFFFFFFFFFF10
6FFFFFFFFFFFFFFFFFFFFF10
00000000009F500000000000
00000000009F500000000000
00000000009F500000000000
00000000009F500000000000
00000000009F500000000000
00000000009F500000000000
00000000009F500000000000
00000000009F500000000000
00000000009F500000000000
00000000009F500000000000
00000000009F500000000000
00000000009F500000000000
00000000009F500000000000
00000000009F500000000000
00000000009F500000000000
00000000009F500000000000
00000000009F500000000000
00000000009F500000000000
00000000009F500000000000
00000000009F500000000000
ENDCHAR
STARTCHAR tcaron
ENCODING 357
SWIDTH 708 0
DWIDTH 23 0
BBX 23 29 0 0
BITMAP
000005A200000004C2000000
000003DF910003BFB1000000
00000008FE83AFE500000000
000000003CFFF91000000000
00000000007C400000000000
000000000000000000000000
000000000000000000000000
6FFFFFFFFFFFFFFFFFFFFF10
6FFFFFFFFFFFFFFFFFFFFF10
00000000009F500000000000
00000000009F500000000000
00000000009F500000000000
00000000009F500000000000
00000000009F500000000000
00000000009F500000000000
00000000009F500000000000
00000000009F500000000000
00000000009F500000000000
00000000009F500000000000
00000000009F500000000000
00000000009F500000000000
00000000009F500000000000
00000000009F500000000000
00000000009F500000000000
00000000009F500000000000
00000000009F500000000000
00000000009F500000000000
00000000009F500000000000
00000000009F500000000000
ENDCHAR
STARTCHAR Tbar
ENCODING 358
SWIDTH 708 0
DWIDTH 23 0
BBX 23 22 0 0
BITMAP
6FFFFFFFFFFFFFFFFFFFFF10
6FFFFFFFFFFFFFFFFFFFFF10
00000000009F500000000000
00000000009F500000000000
00000000009F500000000000
00000000009F500000000000
00000000009F500000000000
00000000009F500000000000
002FFFFFFFFFFFFFFFFD0000
002FFFFFFFFFFFFFFFFD0000
00000000009F500000000000
00000000009F500000000000
00000000009F500000000000
00000000009F500000000000
00000000009F500000000000
00000000009F500000000000
00000000009F500000000000
00000000009F500000000000
00000000009F500000000000
00000000009F500000000000
00000000009F500000000000
00000000009F500000000000
ENDCHAR
STARTCHAR tbar
ENCODING 359
SWIDTH 708 0
DWIDTH 23 0
BBX 23 22 0 0
BITMAP
6FFFFFFFFFFFFFFFFFFFFF10
6FFFFFFFFFFFFFFFFFFFFF10
00000000009F500000000000
00000000009F500000000000
00000000009F500000000000
00000000009F500000000000
00000000009F500000000000
00000000009F500000000000
002FFFFFFFFFFFFFFFFD0000
002FFFFFFFFFFFFFFFFD0000
00000000009F500000000000
00000000009F500000000000
00000000009F500000000000
00000000009F500000000000
00000000009F500000000000
00000000009F500000000000
00000000009F500000000000
00000000009F500000000000
00000000009F500000000000
00000000009F500000000000
00000000009F500000000000
00000000009F500000000000
ENDCHAR
STARTCHAR Utilde
ENCODING 360
SWIDTH 891 0
DWIDTH 29 0
BBX 23 27 3 0
BITMAP
0000001BFEB7312DB0000000
000000CFFFFFFFFF60000000
000002F91259DEE800000000
000000000000000000000000
000000000000000000000000
9F600000000000000000DF10
9F600000000000000000DF10
9F600000000000000000DF10
9F600000000000000000DF10
9F600000000000000000DF10
9F600000000000000000DF10
9F600000000000000000DF10
9F600000000000000000DF10
9F600000000000000000DF10
9F600000000000000000DF10
9F600000000000000000DF10
9F600000000000000000DF10
9F600000000000000000DF10
9F600000000000000000DF10
9F600000000000000000DF10
8F700000000000000000EF00
5FC00000000000000005FD00
1EF8000000000000002EF700
06FFA2000000000005EFD100
007FFFB631101258DFFD2000
0003BFFFFFFFFFFFFE810000
0000027ACEEFEDB950000000
ENDCHAR
STARTCHAR utilde
ENCODING 361
SWIDTH 931 0
DWIDTH 30 0
BBX 24 27 3 0
BITMAP
00000005DFD95216F5000000
0000003FFFFFFFFFE1000000
0000008F3137BEFC30000000
000000000000000000000000
000000000000000000000000
7F8000000000000000000CF3
7F8000000000000000000CF3
7F8000000000000000000CF3
7F8000000000000000000CF3
7F8000000000000000000CF3
7F8000000000000000000CF3
7F8000000000000000000CF3
7F8000000000000000000CF3
7F8000000000000000000CF3
7F8000000000000000000CF3
7F8000000000000000000CF3
7F8000000000000000000CF3
7F8000000000000000000CF3
7F8000000000000000000CF3
7F8000000000000000000CF3
6F9000000000000000002EF3
4FC00000000000000006EFF3
0EF300000000000003BFFEF3
07FD200000000015BFFB2CF3
00BFE84200136AEFFC500CF3
0008FFFFFFFFFFFB50000CF3
000027BDEFECA51000000CF3
ENDCHAR
STARTCHAR Umacron
ENCODING 362
SWIDTH 891 0
DWIDTH 29 0
BBX 23 26 3 0
BITMAP
0000000FFFFFFFF800000000
0000000FFFFFFFF800000000
000000000000000000000000
000000000000000000000000
9F600000000000000000DF10
9F600000000000000000DF10
9F600000000000000000DF10
9F600000000000000000DF10
9F600000000000000000DF10
9F600000000000000000DF10
9F600000000000000000DF10
9F600000000000000000DF10
9F600000000000000000DF10
9F600000000000000000DF10
9F600000000000000000DF10
9F600000000000000000DF10
9F600000000000000000DF10
9F600000000000000000DF10
9F600000000000000000DF10
8F700000000000000000EF00
5FC00000000000000005FD00
1EF8000000000000002EF700
06FFA2000000000005EFD100
007FFFB631101258DFFD2000
0003BFFFFFFFFFFFFE810000
0000027ACEEFEDB950000000
ENDCHAR
STARTCHAR umacron
ENCODING 363
SWIDTH 931 0
DWIDTH 30 0
BBX 24 26 3 0
BITMAP
00000007FFFFFFFF20000000
00000007FFFFFFFF20000000
000000000000000000000000
000000000000000000000000
7F8000000000000000000CF3
7F8000000000000000000CF3
7F8000000000000000000CF3
7F8000000000000000000CF3
7F8000000000000000000CF3
7F8000000000000000000CF3
7F8000000000000000000CF3
7F8000000000000000000CF3
7F8000000000000000000CF3
7F8000000000000000000CF3
7F8000000000000000000CF3
7F8000000000000000000CF3
7F8000000000000000000CF3
7F8000000000000000000CF3
7F8000000000000000000CF3
6F9000000000000000002EF3
4FC00000000000000006EFF3
0EF300000000000003BFFEF3
07FD200000000015BFFB2CF3
00BFE84200136AEFFC500CF3
0008FFFFFFFFFFFB50000CF3
000027BDEFECA51000000CF3
ENDCHAR
STARTCHAR Ubreve
ENCODING 364
SWIDTH 891 0
DWIDTH 29 0
BBX 23 28 3 0
BITMAP
000000EE1000006F80000000
0000008FD51028FE20000000
0000000BFFFFFFF500000000
000000006CEFDA3000000000
000000000000000000000000
000000000000000000000000
9F600000000000000000DF10
9F600000000000000000DF10
9F600000000000000000DF10
9F600000000000000000DF10
9F600000000000000000DF10
9F600000000000000000DF10
9F600000000000000000DF10
9F600000000000000000DF10
9F600000000000000000DF10
9F600000000000000000DF10
9F600000000000000000DF10
9F600000000000000000DF10
9F600000000000000000DF10
9F600000000000000000DF10
9F600000000000000000DF10
8F700000000000000000EF00
5FC00000000000000005FD00
1EF8000000000000002EF700
06FFA2000000000005EFD100
007FFFB631101258DFFD2000
0003BFFFFFFFFFFFFE810000
0000027ACEEFEDB950000000
ENDCHAR
STARTCHAR ubreve
ENCODING 365
SWIDTH 931 0
DWIDTH 30 0
BBX 24 28 3 0
BITMAP
0000006F8000000CF1000000
0000001EF92014CFA0000000
00000004EFFFFFFC10000000
0000000029DFEC7100000000
000000000000000000000000
000000000000000000000000
7F8000000000000000000CF3
7F8000000000000000000CF3
7F8000000000000000000CF3
7F8000000000000000000CF3
7F8000000000000000000CF3
7F8000000000000000000CF3
7F8000000000000000000CF3
7F8000000000000000000CF3
7F8000000000000000000CF3
7F8000000000000000000CF3
7F8000000000000000000CF3
7F8000000000000000000CF3
7F8000000000000000000CF3
7F8000000000000000000CF3
7F8000000000000000000CF3
6F9000000000000000002EF3
4FC00000000000000006EFF3
0EF300000000000003BFFEF3
07FD200000000015BFFB2CF3
00BFE84200136AEFFC500CF3
0008FFFFFFFFFFFB50000CF3
000027BDEFECA51000000CF3
ENDCHAR
STARTCHAR Uring
ENCODING 366
SWIDTH 891 0
DWIDTH 29 0
BBX 23 29 3 0
BITMAP
000000004BEED81000000000
00000005F8214DC000000000
0000000BD00006F500000000
0000000BD00006F400000000
00000005F8213DC000000000
000000004BEED81000000000
000000000000000000000000
9F600000000000000000DF10
9F600000000000000000DF10
9F600000000000000000DF10
9F600000000000000000DF10
9F600000000000000000DF10
9F600000000000000000DF10
9F600000000000000000DF10
9F600000000000000000DF10
9F600000000000000000DF10
9F600000000000000000DF10
9F600000000000000000DF10
9F600000000000000000DF10
9F600000000000000000DF10
9F600000000000000000DF10
9F600000000000000000DF10
8F700000000000000000EF00
5FC00000000000000005FD00
1EF8000000000000002EF700
06FFA2000000000005EFD100
007FFFB631101258DFFD2000
0003BFFFFFFFFFFFFE810000
0000027ACEEFEDB950000000
ENDCHAR
STARTCHAR uring
ENCODING 367
SWIDTH 931 0
DWIDTH 30 0
BBX 24 29 3 0
BITMAP
0000000017CEEB5000000000
00000000BE4117F600000000
00000002F70000CD00000000
00000002F70000CD00000000
00000000BE4117F600000000
0000000017DEEB5000000000
000000000000000000000000
7F8000000000000000000CF3
7F8000000000000000000CF3
7F8000000000000000000CF3
7F8000000000000000000CF3
7F8000000000000000000CF3
7F8000000000000000000CF3
7F8000000000000000000CF3
7F8000000000000000000CF3
7F8000000000000000000CF3
7F8000000000000000000CF3
7F8000000000000000000CF3
7F8000000000000000000CF3
7F8000000000000000000CF3
7F8000000000000000000CF3
7F8000000000000000000CF3
6F9000000000000000002EF3
4FC00000000000000006EFF3
0EF300000000000003BFFEF3
07FD200000000015BFFB2CF3
00BFE84200136AEFFC500CF3
0008FFFFFFFFFFFB50000CF3
000027BDEFECA51000000CF3
ENDCHAR
STARTCHAR Uhungarumlaut
ENCODING 368
SWIDTH 891 0
DWIDTH 29 0
BBX 23 28 3 0
BITMAP
00000000007A0002B3000000
000000002CFC206EF7000000
00000006EE602BFB30000000
0000000A81003C4000000000
000000000000000000000000
000000000000000000000000
9F600000000000000000DF10
9F600000000000000000DF10
9F600000000000000000DF10
9F600000000000000000DF10
9F600000000000000000DF10
9F600000000000000000DF10
9F600000000000000000DF10
9F600000000000000000DF10
9F600000000000000000DF10
9F600000000000000000DF10
9F600000000000000000DF10
9F600000000000000000DF10
9F600000000000000000DF10
9F600000000000000000DF10
9F600000000000000000DF10
8F700000000000000000EF00
5FC00000000000000005FD00
1EF8000000000000002EF700
06FFA2000000000005EFD100
007FFFB631101258DFFD2000
0003BFFFFFFFFFFFFE810000
0000027ACEEFEDB950000000
ENDCHAR
STARTCHAR uhungarumlaut
ENCODING 369
SWIDTH 931 0
DWIDTH 30 0
BBX 24 28 3 0
BITMAP
00000000002B40006B000000
0000000006EF801BFD300000
00000002BFB305EE70000000
00000003C500099100000000
000000000000000000000000
000000000000000000000000
7F8000000000000000000CF3
7F8000000000000000000CF3
7F8000000000000000000CF3
7F8000000000000000000CF3
7F8000000000000000000CF3
7F8000000000000000000CF3
7F8000000000000000000CF3
7F8000000000000000000CF3
7F8000000000000000000CF3
7F8000000000000000000CF3
7F8000000000000000000CF3
7F8000000000000000000CF3
7F8000000000000000000CF3
7F8000000000000000000CF3
7F8000000000000000000CF3
6F9000000000000000002EF3
4FC00000000000000006EFF3
0EF300000000000003BFFEF3
07FD200000000015BFFB2CF3
00BFE84200136AEFFC500CF3
0008FFFFFFFFFFFB50000CF3
000027BDEFECA51000000CF3
ENDCHAR
STARTCHAR Uogonek
ENCODING 370
SWIDTH 891 0
DWIDTH 29 0
BBX 23 28 3 -6
BITMAP
9F600000000000000000DF10
9F600000000000000000DF10
9F600000000000000000DF10
9F600000000000000000DF10
9F600000000000000000DF10
9F600000000000000000DF10
9F600000000000000000DF10
9F600000000000000000DF10
9F600000000000000000DF10
9F600000000000000000DF10
9F600000000000000000DF10
9F600000000000000000DF10
9F600000000000000000DF10
9F600000000000000000DF10
9F600000000000000000DF10
8F700000000000000000EF00
5FC00000000000000005FD00
1EF8000000000000002EF800
06FFA2000000000005EFD100
007FFFB631101258DFFD2000
0003CFFFFFFFFFFFFE810000
0000037ADEFFFEC951000000
0000000006F8000000000000
000000003FC0000000000000
000000008F40000000000000
00000000AF30000000000000
000000005FA203A200000000
0000000006CEFFF300000000
ENDCHAR
STARTCHAR uogonek
ENCODING 371
SWIDTH 931 0
DWIDTH 30 0
BBX 26 28 3 -6
BITMAP
7F8000000000000000000CF300
7F8000000000000000000CF300
7F8000000000000000000CF300
7F8000000000000000000CF300
7F8000000000000000000CF300
7F8000000000000000000CF300
7F8000000000000000000CF300
7F8000000000000000000CF300
7F8000000000000000000CF300
7F8000000000000000000CF300
7F8000000000000000000CF300
7F8000000000000000000CF300
7F8000000000000000000CF300
7F8000000000000000000CF300
7F8000000000000000000CF300
6F9000000000000000002EF300
4FC00000000000000006EFF300
0EF300000000000003BFFEF300
07FD200000000015BFFB2CF300
00BFE84200136AEFFC500CF300
0008FFFFFFFFFFFB50000CF300
000027BDEFECA51000000CF300
00000000000000000001AE6000
0000000000000000000CE30000
0000000000000000005F800000
0000000000000000008F400000
0000000000000000005FA20294
00000000000000000005CEFFF4
ENDCHAR
STARTCHAR Wcircumflex
ENCODING 372
SWIDTH 1266 0
DWIDTH 41 0
BBX 39 29 1 0
BITMAP
0000000000000000008C30000000000000000000
00000000000000004DFFF8100000000000000000
0000000000000019FE74BFD40000000000000000
00000000000004DF810004CF9100000000000000
000000000000079200000006C100000000000000
0000000000000000000000000000000000000000
0000000000000000000000000000000000000000
9F8000000000000004FFB000000000000001FF20
3FE000000000000009FFF200000000000006FB00
0CF50000000000001EFAF70000000000000CF500
07FB0000000000006FB3FD0000000000003FE000
01FF200000000000BF50DF4000000000009F8000
00AF700000000002FE007F900000000001EF2000
004FD00000000007F9001FE10000000006FC0000
000DF4000000000DF3000BF6000000000BF60000
0007FA000000004FC00005FB000000002FE10000
0001FF100000009F700000EF200000008F900000
0000AF70000001EF1000009F70000000EF300000
00004FC0000005FA0000003FD0000005FC000000
00000DF300000BF50000000CF400000BF6000000
000008F900002FE000000007F900002FE1000000
000002FE10007F8000000001FE10007F90000000
000000BF6000DF3000000000AF6000DF40000000
0000005FC004FC00000000004FB004FD00000000
0000000EF209F600000000000EF20AF700000000
00000008F81EF1000000000008F71FF100000000
00000002FE6FA0000000000002FD6FA000000000
00000000BFEF40000000000000CFEF4000000000
000000006FFE000000000000006FFD0000000000
ENDCHAR
STARTCHAR wcircumflex
ENCODING 373
SWIDTH 1266 0
DWIDTH 41 0
BBX 39 29 1 0
BITMAP
0000000000000000008C30000000000000000000
00000000000000004DFFF8100000000000000000
0000000000000019FE74BFD40000000000000000
00000000000004DF810004CF9100000000000000
000000000000079200000006C100000000000000
0000000000000000000000000000000000000000
0000000000000000000000000000000000000000
9F8000000000000004FFB000000000000001FF20
3FE000000000000009FFF200000000000006FB00
0CF50000000000001EFAF70000000000000CF500
07FB0000000000006FB3FD0000000000003FE000
01FF200000000000BF50DF4000000000009F8000
00AF700000000002FE007F900000000001EF2000
004FD00000000007F9001FE10000000006FC0000
000DF4000000000DF3000BF6000000000BF60000
0007FA000000004FC00005FB000000002FE10000
0001FF100000009F700000EF200000008F900000
0000AF70000001EF1000009F70000000EF300000
00004FC0000005FA0000003FD0000005FC000000
00000DF300000BF50000000CF400000BF6000000
000008F900002FE000000007F900002FE1000000
000002FE10007F8000000001FE10007F90000000
000000BF6000DF3000000000AF6000DF40000000
0000005FC004FC00000000004FB004FD00000000
0000000EF209F600000000000EF20AF700000000
00000008F81EF1000000000008F71FF100000000
00000002FE6FA0000000000002FD6FA000000000
00000000BFEF40000000000000CFEF4000000000
000000006FFE000000000000006FFD0000000000
ENDCHAR
STARTCHAR Ycircumflex
ENCODING 374
SWIDTH 763 0
DWIDTH 24 0
BBX 23 29 1 0
BITMAP
00000000008C300000000000
000000004DFFF81000000000
00000019FE74BFD400000000
000004DF810004CF91000000
0000079200000006C1000000
000000000000000000000000
000000000000000000000000
7FC10000000000000007FC10
0AFA000000000000004FE200
01CF70000000000002EF4000
002EF400000000000CF70000
0004FE20000000009FA00000
00007FC000000006FD100000
00000AF90000003FE2000000
000001DF600001DF50000000
0000002EF3000BF800000000
00000005FD108FB000000000
000000008FB5FD1000000000
000000000BFFE30000000000
0000000001DF600000000000
0000000000CF300000000000
0000000000CF300000000000
0000000000CF300000000000
0000000000CF300000000000
0000000000CF300000000000
0000000000CF300000000000
0000000000CF300000000000
0000000000CF300000000000
0000000000CF300000000000
ENDCHAR
STARTCHAR ycircumflex
ENCODING 375
SWIDTH 911 0
DWIDTH 29 0
BBX 24 29 2 0
BITMAP
000000000018C30000000000
0000000004DFFF8000000000
000000019FE74CFD30000000
0000005EE810005DF9100000
00000089100000006C000000
000000000000000000000000
000000000000000000000000
2FD0000000000000000007F8
2FD0000000000000000007F8
2FD0000000000000000007F8
2FD0000000000000000007F8
2FD0000000000000000007F8
2FD0000000000000000007F8
1FE0000000000000000007F8
0EF200000000000000001DF8
0BF60000000000000000AFF8
06FC0000000000000009FFF8
01EF70000000000001BFD8F8
006FF800000000005DFD27F8
0008FFE84210137DFFA107F8
00005DFFFFFFFFFFC40007F8
00000049CEFFEB83000009F7
000000000000000000000DF4
000000000000000000007FE0
00000000000000000006FF70
2B6100000000000004BFF900
2FFFB85321011359DFFF7000
04AFFFFFFFFFFFFFFF920000
000148ACEEFFEDB851000000
ENDCHAR
STARTCHAR Ydieresis
ENCODING 376
SWIDTH 763 0
DWIDTH 24 0
BBX 23 26 1 0
BITMAP
0000001FF4000CF800000000
0000001FF4000CF800000000
000000000000000000000000
000000000000000000000000
7FC10000000000000007FC10
0AFA000000000000004FE200
01CF70000000000002EF4000
002EF400000000000CF70000
0004FE20000000009FA00000
00007FC000000006FD100000
00000AF90000003FE2000000
000001DF600001DF50000000
0000002EF3000BF800000000
00000005FD108FB000000000
000000008FB5FD1000000000
000000000BFFE30000000000
0000000001DF600000000000
0000000000CF300000000000
0000000000CF300000000000
0000000000CF300000000000
0000000000CF300000000000
0000000000CF300000000000
0000000000CF300000000000
0000000000CF300000000000
0000000000CF300000000000
0000000000CF300000000000
ENDCHAR
STARTCHAR Zacute
ENCODING 377
SWIDTH 728 0
DWIDTH 23 0
BBX 20 29 2 0
BITMAP
00000000000006B00000
000000000005DFF30000
0000000003BFFA300000
00000000AFF920000000
00000000A82000000000
00000000000000000000
00000000000000000000
4FFFFFFFFFFFFFFFFFD0
4FFFFFFFFFFFFFFFFF90
0000000000000009FB00
000000000000006FC100
00000000000004FE2000
0000000000003EF30000
000000000001DF500000
00000000001CF7000000
0000000000AF90000000
0000000008FB00000000
000000006FD100000000
00000004FE2000000000
0000002EF40000000000
000001DF600000000000
00000CF8000000000000
0000AFA0000000000000
0008FC10000000000000
005FD100000000000000
04FE3000000000000000
2EF40000000000000000
AFFFFFFFFFFFFFFFFFF3
BFFFFFFFFFFFFFFFFFF3
ENDCHAR
STARTCHAR zacute
ENCODING 378
SWIDTH 728 0
DWIDTH 23 0
BBX 20 29 2 0
BITMAP
00000000000006B00000
000000000005DFF30000
0000000003BFFA300000
00000000AFF920000000
00000000A82000000000
00000000000000000000
00000000000000000000
4FFFFFFFFFFFFFFFFFD0
4FFFFFFFFFFFFFFFFF90
0000000000000009FB00
000000000000006FC100
00000000000004FE2000
0000000000003EF30000
000000000001DF500000
00000000001CF7000000
0000000000AF90000000
0000000008FB00000000
000000006FD100000000
00000004FE2000000000
0000002EF40000000000
000001DF600000000000
00000CF8000000000000
0000AFA0000000000000
0008FC10000000000000
005FD100000000000000
04FE3000000000000000
2EF40000000000000000
AFFFFFFFFFFFFFFFFFF3
BFFFFFFFFFFFFFFFFFF3
ENDCHAR
STARTCHAR Zdotaccent
ENCODING 379
SWIDTH 728 0
DWIDTH 23 0
BBX 20 26 2 0
BITMAP
000000005FF100000000
000000005FF100000000
00000000000000000000
00000000000000000000
4FFFFFFFFFFFFFFFFFD0
4FFFFFFFFFFFFFFFFF90
0000000000000009FB00
000000000000006FC100
00000000000004FE2000
0000000000003EF30000
000000000001DF500000
00000000001CF7000000
0000000000AF90000000
0000000008FB00000000
000000006FD100000000
00000004FE2000000000
0000002EF40000000000
000001DF600000000000
00000CF8000000000000
0000AFA0000000000000
0008FC10000000000000
005FD100000000000000
04FE3000000000000000
2EF40000000000000000
AFFFFFFFFFFFFFFFFFF3
BFFFFFFFFFFFFFFFFFF3
ENDCHAR
ENDFONT
